  0
SECTION
  2
HEADER
  9
$ACADVER
  1
AC1014
  9
$HANDSEED
  5
FFFF
  9
$MEASUREMENT
 70
     1
  0
ENDSEC
  0
SECTION
  2
TABLES
  0
TABLE
  2
VPORT
  5
8
330
0
100
AcDbSymbolTable
 70
     4
  0
VPORT
  5
2E
330
8
100
AcDbSymbolTableRecord
100
AcDbViewportTableRecord
  2
*ACTIVE
 70
     0
 10
0.0
 20
0.0
 11
1.0
 21
1.0
 12
210.0
 22
148.5
 13
0.0
 23
0.0
 14
10.0
 24
10.0
 15
10.0
 25
10.0
 16
0.0
 26
0.0
 36
1.0
 17
0.0
 27
0.0
 37
0.0
 40
341.0
 41
1.24
 42
50.0
 43
0.0
 44
0.0
 50
0.0
 51
0.0
 71
     0
 72
   100
 73
     1
 74
     3
 75
     0
 76
     0
 77
     0
 78
     0
  0
ENDTAB
  0
TABLE
  2
LTYPE
  5
5
330
0
100
AcDbSymbolTable
 70
     1
  0
LTYPE
  5
14
330
5
100
AcDbSymbolTableRecord
100
AcDbLinetypeTableRecord
  2
BYBLOCK
 70
     0
  3

 72
    65
 73
     0
 40
0.0
  0
LTYPE
  5
15
330
5
100
AcDbSymbolTableRecord
100
AcDbLinetypeTableRecord
  2
BYLAYER
 70
     0
  3

 72
    65
 73
     0
 40
0.0
  0
LTYPE
  5
16
330
5
100
AcDbSymbolTableRecord
100
AcDbLinetypeTableRecord
  2
CONTINUOUS
 70
     0
  3
Solid line
 72
    65
 73
     0
 40
0.0
  0
ENDTAB
  0
TABLE
  2
LAYER
  5
2
100
AcDbSymbolTable
 70
2
  0
LAYER
  5
50
100
AcDbSymbolTableRecord
100
AcDbLayerTableRecord
  2
0
 70
0
  6
CONTINUOUS
  0
LAYER
  5
51
100
AcDbSymbolTableRecord
100
AcDbLayerTableRecord
  2
Capa_1
 70
0
  6
CONTINUOUS
  0
ENDTAB
  0
TABLE
  2
STYLE
  5
3
330
0
100
AcDbSymbolTable
 70
     1
  0
STYLE
  5
11
330
3
100
AcDbSymbolTableRecord
100
AcDbTextStyleTableRecord
  2
STANDARD
 70
     0
 40
0.0
 41
1.0
 50
0.0
 71
     0
 42
2.5
  3
txt
  4

  0
ENDTAB
  0
TABLE
  2
VIEW
  5
6
330
0
100
AcDbSymbolTable
 70
     0
  0
ENDTAB
  0
TABLE
  2
UCS
  5
7
330
0
100
AcDbSymbolTable
 70
     0
  0
ENDTAB
  0
TABLE
  2
APPID
  5
9
330
0
100
AcDbSymbolTable
 70
     2
  0
APPID
  5
12
330
9
100
AcDbSymbolTableRecord
100
AcDbRegAppTableRecord
  2
ACAD
 70
     0
  0
ENDTAB
  0
TABLE
  2
DIMSTYLE
  5
A
330
0
100
AcDbSymbolTable
 70
     1
  0
DIMSTYLE
105
27
330
A
100
AcDbSymbolTableRecord
100
AcDbDimStyleTableRecord
  2
ISO-25
 70
     0
  3

  4

  5

  6

  7

 40
1.0
 41
2.5
 42
0.625
 43
3.75
 44
1.25
 45
0.0
 46
0.0
 47
0.0
 48
0.0
140
2.5
141
2.5
142
0.0
143
0.03937007874016
144
1.0
145
0.0
146
1.0
147
0.625
 71
     0
 72
     0
 73
     0
 74
     0
 75
     0
 76
     0
 77
     1
 78
     8
170
     0
171
     3
172
     1
173
     0
174
     0
175
     0
176
     0
177
     0
178
     0
270
     2
271
     2
272
     2
273
     2
274
     3
340
11
275
     0
280
     0
281
     0
282
     0
283
     0
284
     8
285
     0
286
     0
287
     3
288
     0
  0
ENDTAB
  0
TABLE
  2
BLOCK_RECORD
  5
1
330
0
100
AcDbSymbolTable
 70
     1
  0
BLOCK_RECORD
  5
1F
330
1
100
AcDbSymbolTableRecord
100
AcDbBlockTableRecord
  2
*MODEL_SPACE
  0
BLOCK_RECORD
  5
1B
330
1
100
AcDbSymbolTableRecord
100
AcDbBlockTableRecord
  2
*PAPER_SPACE
  0
ENDTAB
  0
ENDSEC
  0
SECTION
  2
BLOCKS
  0
BLOCK
  5
20
330
1F
100
AcDbEntity
  8
0
100
AcDbBlockBegin
  2
*MODEL_SPACE
 70
     0
 10
0.0
 20
0.0
 30
0.0
  3
*MODEL_SPACE
  1

  0
ENDBLK
  5
21
330
1F
100
AcDbEntity
  8
0
100
AcDbBlockEnd
  0
BLOCK
  5
1C
330
1B
100
AcDbEntity
 67
     1
  8
0
100
AcDbBlockBegin
  2
*PAPER_SPACE
  1

  0
ENDBLK
  5
1D
330
1B
100
AcDbEntity
 67
     1
  8
0
100
AcDbBlockEnd
  0
ENDSEC
  0
SECTION
  2
ENTITIES
  0
LINE
  5
100
100
AcDbEntity
  8
Capa_1
 62
7
100
AcDbLine
 10
7.467601
 20
2.082804
 30
0.0
 11
8.151814
 21
2.103442
 31
0.0
  0
LINE
  5
101
100
AcDbEntity
  8
Capa_1
 62
7
100
AcDbLine
 10
8.151814
 20
2.103442
 30
0.0
 11
8.782051
 21
2.165354
 31
0.0
  0
LINE
  5
102
100
AcDbEntity
  8
Capa_1
 62
7
100
AcDbLine
 10
8.782051
 20
2.165354
 30
0.0
 11
9.358314
 21
2.268542
 31
0.0
  0
LINE
  5
103
100
AcDbEntity
  8
Capa_1
 62
7
100
AcDbLine
 10
9.358314
 20
2.268542
 30
0.0
 11
9.880601
 21
2.413004
 31
0.0
  0
LINE
  5
104
100
AcDbEntity
  8
Capa_1
 62
7
100
AcDbLine
 10
9.880601
 20
2.413004
 30
0.0
 11
10.342564
 21
2.590804
 31
0.0
  0
LINE
  5
105
100
AcDbEntity
  8
Capa_1
 62
7
100
AcDbLine
 10
10.342564
 20
2.590804
 30
0.0
 11
10.737851
 21
2.794004
 31
0.0
  0
LINE
  5
106
100
AcDbEntity
  8
Capa_1
 62
7
100
AcDbLine
 10
10.737851
 20
2.794004
 30
0.0
 11
11.066464
 21
3.022604
 31
0.0
  0
LINE
  5
107
100
AcDbEntity
  8
Capa_1
 62
7
100
AcDbLine
 10
11.066464
 20
3.022604
 30
0.0
 11
11.328401
 21
3.276604
 31
0.0
  0
LINE
  5
108
100
AcDbEntity
  8
Capa_1
 62
7
100
AcDbLine
 10
11.328401
 20
3.276604
 30
0.0
 11
11.550651
 21
3.541717
 31
0.0
  0
LINE
  5
109
100
AcDbEntity
  8
Capa_1
 62
7
100
AcDbLine
 10
11.550651
 20
3.541717
 30
0.0
 11
11.734801
 21
3.803654
 31
0.0
  0
LINE
  5
10a
100
AcDbEntity
  8
Capa_1
 62
7
100
AcDbLine
 10
11.734801
 20
3.803654
 30
0.0
 11
11.880851
 21
4.062417
 31
0.0
  0
LINE
  5
10b
100
AcDbEntity
  8
Capa_1
 62
7
100
AcDbLine
 10
11.880851
 20
4.062417
 30
0.0
 11
11.988801
 21
4.318004
 31
0.0
  0
LINE
  5
10c
100
AcDbEntity
  8
Capa_1
 62
7
100
AcDbLine
 10
11.988801
 20
4.318004
 30
0.0
 11
12.077701
 21
4.587879
 31
0.0
  0
LINE
  5
10d
100
AcDbEntity
  8
Capa_1
 62
7
100
AcDbLine
 10
12.077701
 20
4.587879
 30
0.0
 11
12.141201
 21
4.864104
 31
0.0
  0
LINE
  5
10e
100
AcDbEntity
  8
Capa_1
 62
7
100
AcDbLine
 10
12.141201
 20
4.864104
 30
0.0
 11
12.179301
 21
5.146679
 31
0.0
  0
LINE
  5
10f
100
AcDbEntity
  8
Capa_1
 62
7
100
AcDbLine
 10
12.179301
 20
5.146679
 30
0.0
 11
12.192001
 21
5.435604
 31
0.0
  0
LINE
  5
110
100
AcDbEntity
  8
Capa_1
 62
7
100
AcDbLine
 10
12.192001
 20
5.435604
 30
0.0
 11
11.979276
 21
6.413504
 31
0.0
  0
LINE
  5
111
100
AcDbEntity
  8
Capa_1
 62
7
100
AcDbLine
 10
11.979276
 20
6.413504
 30
0.0
 11
11.341101
 21
7.239004
 31
0.0
  0
LINE
  5
112
100
AcDbEntity
  8
Capa_1
 62
7
100
AcDbLine
 10
11.341101
 20
7.239004
 30
0.0
 11
10.277476
 21
7.912104
 31
0.0
  0
LINE
  5
113
100
AcDbEntity
  8
Capa_1
 62
7
100
AcDbLine
 10
10.277476
 20
7.912104
 30
0.0
 11
8.788401
 21
8.432804
 31
0.0
  0
LINE
  5
114
100
AcDbEntity
  8
Capa_1
 62
7
100
AcDbLine
 10
8.788401
 20
8.432804
 30
0.0
 11
7.639051
 21
8.737604
 31
0.0
  0
LINE
  5
115
100
AcDbEntity
  8
Capa_1
 62
7
100
AcDbLine
 10
7.639051
 20
8.737604
 30
0.0
 11
6.489701
 21
9.042404
 31
0.0
  0
LINE
  5
116
100
AcDbEntity
  8
Capa_1
 62
7
100
AcDbLine
 10
6.489701
 20
9.042404
 30
0.0
 11
5.340351
 21
9.347204
 31
0.0
  0
LINE
  5
117
100
AcDbEntity
  8
Capa_1
 62
7
100
AcDbLine
 10
5.340351
 20
9.347204
 30
0.0
 11
4.191001
 21
9.652004
 31
0.0
  0
LINE
  5
118
100
AcDbEntity
  8
Capa_1
 62
7
100
AcDbLine
 10
4.191001
 20
9.652004
 30
0.0
 11
2.601914
 21
10.274304
 31
0.0
  0
LINE
  5
119
100
AcDbEntity
  8
Capa_1
 62
7
100
AcDbLine
 10
2.601914
 20
10.274304
 30
0.0
 11
1.466851
 21
11.201404
 31
0.0
  0
LINE
  5
11a
100
AcDbEntity
  8
Capa_1
 62
7
100
AcDbLine
 10
1.466851
 20
11.201404
 30
0.0
 11
0.785814
 21
12.433304
 31
0.0
  0
LINE
  5
11b
100
AcDbEntity
  8
Capa_1
 62
7
100
AcDbLine
 10
0.785814
 20
12.433304
 30
0.0
 11
0.558801
 21
13.970004
 31
0.0
  0
LINE
  5
11c
100
AcDbEntity
  8
Capa_1
 62
7
100
AcDbLine
 10
0.558801
 20
13.970004
 30
0.0
 11
0.668339
 21
15.160629
 31
0.0
  0
LINE
  5
11d
100
AcDbEntity
  8
Capa_1
 62
7
100
AcDbLine
 10
0.668339
 20
15.160629
 30
0.0
 11
0.996951
 21
16.217904
 31
0.0
  0
LINE
  5
11e
100
AcDbEntity
  8
Capa_1
 62
7
100
AcDbLine
 10
0.996951
 20
16.217904
 30
0.0
 11
1.544639
 21
17.141829
 31
0.0
  0
LINE
  5
11f
100
AcDbEntity
  8
Capa_1
 62
7
100
AcDbLine
 10
1.544639
 20
17.141829
 30
0.0
 11
2.311401
 21
17.932404
 31
0.0
  0
LINE
  5
120
100
AcDbEntity
  8
Capa_1
 62
7
100
AcDbLine
 10
2.311401
 20
17.932404
 30
0.0
 11
3.279776
 21
18.576929
 31
0.0
  0
LINE
  5
121
100
AcDbEntity
  8
Capa_1
 62
7
100
AcDbLine
 10
3.279776
 20
18.576929
 30
0.0
 11
4.406901
 21
19.037304
 31
0.0
  0
LINE
  5
122
100
AcDbEntity
  8
Capa_1
 62
7
100
AcDbLine
 10
4.406901
 20
19.037304
 30
0.0
 11
5.692776
 21
19.313529
 31
0.0
  0
LINE
  5
123
100
AcDbEntity
  8
Capa_1
 62
7
100
AcDbLine
 10
5.692776
 20
19.313529
 30
0.0
 11
7.137401
 21
19.405604
 31
0.0
  0
LINE
  5
124
100
AcDbEntity
  8
Capa_1
 62
7
100
AcDbLine
 10
7.137401
 20
19.405604
 30
0.0
 11
8.648701
 21
19.310354
 31
0.0
  0
LINE
  5
125
100
AcDbEntity
  8
Capa_1
 62
7
100
AcDbLine
 10
8.648701
 20
19.310354
 30
0.0
 11
9.982201
 21
19.024604
 31
0.0
  0
LINE
  5
126
100
AcDbEntity
  8
Capa_1
 62
7
100
AcDbLine
 10
9.982201
 20
19.024604
 30
0.0
 11
11.137901
 21
18.548354
 31
0.0
  0
LINE
  5
127
100
AcDbEntity
  8
Capa_1
 62
7
100
AcDbLine
 10
11.137901
 20
18.548354
 30
0.0
 11
12.115801
 21
17.881604
 31
0.0
  0
LINE
  5
128
100
AcDbEntity
  8
Capa_1
 62
7
100
AcDbLine
 10
12.115801
 20
17.881604
 30
0.0
 11
12.895264
 21
17.056104
 31
0.0
  0
LINE
  5
129
100
AcDbEntity
  8
Capa_1
 62
7
100
AcDbLine
 10
12.895264
 20
17.056104
 30
0.0
 11
13.455651
 21
16.078204
 31
0.0
  0
LINE
  5
12a
100
AcDbEntity
  8
Capa_1
 62
7
100
AcDbLine
 10
13.455651
 20
16.078204
 30
0.0
 11
13.796964
 21
14.947904
 31
0.0
  0
LINE
  5
12b
100
AcDbEntity
  8
Capa_1
 62
7
100
AcDbLine
 10
13.796964
 20
14.947904
 30
0.0
 11
13.919201
 21
13.665204
 31
0.0
  0
LINE
  5
12c
100
AcDbEntity
  8
Capa_1
 62
7
100
AcDbLine
 10
13.919201
 20
13.665204
 30
0.0
 11
13.360401
 21
13.665204
 31
0.0
  0
LINE
  5
12d
100
AcDbEntity
  8
Capa_1
 62
7
100
AcDbLine
 10
13.360401
 20
13.665204
 30
0.0
 11
12.801601
 21
13.665204
 31
0.0
  0
LINE
  5
12e
100
AcDbEntity
  8
Capa_1
 62
7
100
AcDbLine
 10
12.801601
 20
13.665204
 30
0.0
 11
12.242801
 21
13.665204
 31
0.0
  0
LINE
  5
12f
100
AcDbEntity
  8
Capa_1
 62
7
100
AcDbLine
 10
12.242801
 20
13.665204
 30
0.0
 11
11.684001
 21
13.665204
 31
0.0
  0
LINE
  5
130
100
AcDbEntity
  8
Capa_1
 62
7
100
AcDbLine
 10
11.684001
 20
13.665204
 30
0.0
 11
11.598276
 21
14.514517
 31
0.0
  0
LINE
  5
131
100
AcDbEntity
  8
Capa_1
 62
7
100
AcDbLine
 10
11.598276
 20
14.514517
 30
0.0
 11
11.366501
 21
15.259054
 31
0.0
  0
LINE
  5
132
100
AcDbEntity
  8
Capa_1
 62
7
100
AcDbLine
 10
11.366501
 20
15.259054
 30
0.0
 11
10.988676
 21
15.898817
 31
0.0
  0
LINE
  5
133
100
AcDbEntity
  8
Capa_1
 62
7
100
AcDbLine
 10
10.988676
 20
15.898817
 30
0.0
 11
10.464801
 21
16.433804
 31
0.0
  0
LINE
  5
134
100
AcDbEntity
  8
Capa_1
 62
7
100
AcDbLine
 10
10.464801
 20
16.433804
 30
0.0
 11
9.804401
 21
16.867192
 31
0.0
  0
LINE
  5
135
100
AcDbEntity
  8
Capa_1
 62
7
100
AcDbLine
 10
9.804401
 20
16.867192
 30
0.0
 11
9.017001
 21
17.176754
 31
0.0
  0
LINE
  5
136
100
AcDbEntity
  8
Capa_1
 62
7
100
AcDbLine
 10
9.017001
 20
17.176754
 30
0.0
 11
8.102601
 21
17.362492
 31
0.0
  0
LINE
  5
137
100
AcDbEntity
  8
Capa_1
 62
7
100
AcDbLine
 10
8.102601
 20
17.362492
 30
0.0
 11
7.061201
 21
17.424404
 31
0.0
  0
LINE
  5
138
100
AcDbEntity
  8
Capa_1
 62
7
100
AcDbLine
 10
7.061201
 20
17.424404
 30
0.0
 11
6.167439
 21
17.370429
 31
0.0
  0
LINE
  5
139
100
AcDbEntity
  8
Capa_1
 62
7
100
AcDbLine
 10
6.167439
 20
17.370429
 30
0.0
 11
5.365751
 21
17.208504
 31
0.0
  0
LINE
  5
13a
100
AcDbEntity
  8
Capa_1
 62
7
100
AcDbLine
 10
5.365751
 20
17.208504
 30
0.0
 11
4.656139
 21
16.938629
 31
0.0
  0
LINE
  5
13b
100
AcDbEntity
  8
Capa_1
 62
7
100
AcDbLine
 10
4.656139
 20
16.938629
 30
0.0
 11
4.038601
 21
16.560804
 31
0.0
  0
LINE
  5
13c
100
AcDbEntity
  8
Capa_1
 62
7
100
AcDbLine
 10
4.038601
 20
16.560804
 30
0.0
 11
3.549651
 21
16.095667
 31
0.0
  0
LINE
  5
13d
100
AcDbEntity
  8
Capa_1
 62
7
100
AcDbLine
 10
3.549651
 20
16.095667
 30
0.0
 11
3.200401
 21
15.563854
 31
0.0
  0
LINE
  5
13e
100
AcDbEntity
  8
Capa_1
 62
7
100
AcDbLine
 10
3.200401
 20
15.563854
 30
0.0
 11
2.990851
 21
14.965367
 31
0.0
  0
LINE
  5
13f
100
AcDbEntity
  8
Capa_1
 62
7
100
AcDbLine
 10
2.990851
 20
14.965367
 30
0.0
 11
2.921001
 21
14.300204
 31
0.0
  0
LINE
  5
140
100
AcDbEntity
  8
Capa_1
 62
7
100
AcDbLine
 10
2.921001
 20
14.300204
 30
0.0
 11
2.963864
 21
13.795379
 31
0.0
  0
LINE
  5
141
100
AcDbEntity
  8
Capa_1
 62
7
100
AcDbLine
 10
2.963864
 20
13.795379
 30
0.0
 11
3.092451
 21
13.347704
 31
0.0
  0
LINE
  5
142
100
AcDbEntity
  8
Capa_1
 62
7
100
AcDbLine
 10
3.092451
 20
13.347704
 30
0.0
 11
3.306764
 21
12.957179
 31
0.0
  0
LINE
  5
143
100
AcDbEntity
  8
Capa_1
 62
7
100
AcDbLine
 10
3.306764
 20
12.957179
 30
0.0
 11
3.606801
 21
12.623804
 31
0.0
  0
LINE
  5
144
100
AcDbEntity
  8
Capa_1
 62
7
100
AcDbLine
 10
3.606801
 20
12.623804
 30
0.0
 11
4.011614
 21
12.328529
 31
0.0
  0
LINE
  5
145
100
AcDbEntity
  8
Capa_1
 62
7
100
AcDbLine
 10
4.011614
 20
12.328529
 30
0.0
 11
4.540251
 21
12.052304
 31
0.0
  0
LINE
  5
146
100
AcDbEntity
  8
Capa_1
 62
7
100
AcDbLine
 10
4.540251
 20
12.052304
 30
0.0
 11
5.192714
 21
11.795129
 31
0.0
  0
LINE
  5
147
100
AcDbEntity
  8
Capa_1
 62
7
100
AcDbLine
 10
5.192714
 20
11.795129
 30
0.0
 11
5.969001
 21
11.557004
 31
0.0
  0
LINE
  5
148
100
AcDbEntity
  8
Capa_1
 62
7
100
AcDbLine
 10
5.969001
 20
11.557004
 30
0.0
 11
7.131051
 21
11.245854
 31
0.0
  0
LINE
  5
149
100
AcDbEntity
  8
Capa_1
 62
7
100
AcDbLine
 10
7.131051
 20
11.245854
 30
0.0
 11
8.293101
 21
10.934704
 31
0.0
  0
LINE
  5
14a
100
AcDbEntity
  8
Capa_1
 62
7
100
AcDbLine
 10
8.293101
 20
10.934704
 30
0.0
 11
9.455151
 21
10.623554
 31
0.0
  0
LINE
  5
14b
100
AcDbEntity
  8
Capa_1
 62
7
100
AcDbLine
 10
9.455151
 20
10.623554
 30
0.0
 11
10.617201
 21
10.312404
 31
0.0
  0
LINE
  5
14c
100
AcDbEntity
  8
Capa_1
 62
7
100
AcDbLine
 10
10.617201
 20
10.312404
 30
0.0
 11
11.503026
 21
10.013954
 31
0.0
  0
LINE
  5
14d
100
AcDbEntity
  8
Capa_1
 62
7
100
AcDbLine
 10
11.503026
 20
10.013954
 30
0.0
 11
12.280901
 21
9.626604
 31
0.0
  0
LINE
  5
14e
100
AcDbEntity
  8
Capa_1
 62
7
100
AcDbLine
 10
12.280901
 20
9.626604
 30
0.0
 11
12.950826
 21
9.150354
 31
0.0
  0
LINE
  5
14f
100
AcDbEntity
  8
Capa_1
 62
7
100
AcDbLine
 10
12.950826
 20
9.150354
 30
0.0
 11
13.512801
 21
8.585204
 31
0.0
  0
LINE
  5
150
100
AcDbEntity
  8
Capa_1
 62
7
100
AcDbLine
 10
13.512801
 20
8.585204
 30
0.0
 11
13.968414
 21
7.945442
 31
0.0
  0
LINE
  5
151
100
AcDbEntity
  8
Capa_1
 62
7
100
AcDbLine
 10
13.968414
 20
7.945442
 30
0.0
 11
14.293851
 21
7.245354
 31
0.0
  0
LINE
  5
152
100
AcDbEntity
  8
Capa_1
 62
7
100
AcDbLine
 10
14.293851
 20
7.245354
 30
0.0
 11
14.489114
 21
6.484942
 31
0.0
  0
LINE
  5
153
100
AcDbEntity
  8
Capa_1
 62
7
100
AcDbLine
 10
14.489114
 20
6.484942
 30
0.0
 11
14.554201
 21
5.664204
 31
0.0
  0
LINE
  5
154
100
AcDbEntity
  8
Capa_1
 62
7
100
AcDbLine
 10
14.554201
 20
5.664204
 30
0.0
 11
14.541501
 21
5.295904
 31
0.0
  0
LINE
  5
155
100
AcDbEntity
  8
Capa_1
 62
7
100
AcDbLine
 10
14.541501
 20
5.295904
 30
0.0
 11
14.503401
 21
4.927604
 31
0.0
  0
LINE
  5
156
100
AcDbEntity
  8
Capa_1
 62
7
100
AcDbLine
 10
14.503401
 20
4.927604
 30
0.0
 11
14.439901
 21
4.559304
 31
0.0
  0
LINE
  5
157
100
AcDbEntity
  8
Capa_1
 62
7
100
AcDbLine
 10
14.439901
 20
4.559304
 30
0.0
 11
14.351001
 21
4.191004
 31
0.0
  0
LINE
  5
158
100
AcDbEntity
  8
Capa_1
 62
7
100
AcDbLine
 10
14.351001
 20
4.191004
 30
0.0
 11
14.241464
 21
3.830642
 31
0.0
  0
LINE
  5
159
100
AcDbEntity
  8
Capa_1
 62
7
100
AcDbLine
 10
14.241464
 20
3.830642
 30
0.0
 11
14.090651
 21
3.460754
 31
0.0
  0
LINE
  5
15a
100
AcDbEntity
  8
Capa_1
 62
7
100
AcDbLine
 10
14.090651
 20
3.460754
 30
0.0
 11
13.898564
 21
3.081342
 31
0.0
  0
LINE
  5
15b
100
AcDbEntity
  8
Capa_1
 62
7
100
AcDbLine
 10
13.898564
 20
3.081342
 30
0.0
 11
13.665201
 21
2.692404
 31
0.0
  0
LINE
  5
15c
100
AcDbEntity
  8
Capa_1
 62
7
100
AcDbLine
 10
13.665201
 20
2.692404
 30
0.0
 11
13.393739
 21
2.322517
 31
0.0
  0
LINE
  5
15d
100
AcDbEntity
  8
Capa_1
 62
7
100
AcDbLine
 10
13.393739
 20
2.322517
 30
0.0
 11
13.087351
 21
1.974854
 31
0.0
  0
LINE
  5
15e
100
AcDbEntity
  8
Capa_1
 62
7
100
AcDbLine
 10
13.087351
 20
1.974854
 30
0.0
 11
12.746039
 21
1.649417
 31
0.0
  0
LINE
  5
15f
100
AcDbEntity
  8
Capa_1
 62
7
100
AcDbLine
 10
12.746039
 20
1.649417
 30
0.0
 11
12.369801
 21
1.346204
 31
0.0
  0
LINE
  5
160
100
AcDbEntity
  8
Capa_1
 62
7
100
AcDbLine
 10
12.369801
 20
1.346204
 30
0.0
 11
11.942764
 21
1.066804
 31
0.0
  0
LINE
  5
161
100
AcDbEntity
  8
Capa_1
 62
7
100
AcDbLine
 10
11.942764
 20
1.066804
 30
0.0
 11
11.449051
 21
0.812804
 31
0.0
  0
LINE
  5
162
100
AcDbEntity
  8
Capa_1
 62
7
100
AcDbLine
 10
11.449051
 20
0.812804
 30
0.0
 11
10.888664
 21
0.584204
 31
0.0
  0
LINE
  5
163
100
AcDbEntity
  8
Capa_1
 62
7
100
AcDbLine
 10
10.888664
 20
0.584204
 30
0.0
 11
10.261601
 21
0.381004
 31
0.0
  0
LINE
  5
164
100
AcDbEntity
  8
Capa_1
 62
7
100
AcDbLine
 10
10.261601
 20
0.381004
 30
0.0
 11
9.591676
 21
0.214317
 31
0.0
  0
LINE
  5
165
100
AcDbEntity
  8
Capa_1
 62
7
100
AcDbLine
 10
9.591676
 20
0.214317
 30
0.0
 11
8.877301
 21
0.095254
 31
0.0
  0
LINE
  5
166
100
AcDbEntity
  8
Capa_1
 62
7
100
AcDbLine
 10
8.877301
 20
0.095254
 30
0.0
 11
8.118476
 21
0.023817
 31
0.0
  0
LINE
  5
167
100
AcDbEntity
  8
Capa_1
 62
7
100
AcDbLine
 10
8.118476
 20
0.023817
 30
0.0
 11
7.315201
 21
0.000004
 31
0.0
  0
LINE
  5
168
100
AcDbEntity
  8
Capa_1
 62
7
100
AcDbLine
 10
7.315201
 20
0.000004
 30
0.0
 11
6.799264
 21
0.011117
 31
0.0
  0
LINE
  5
169
100
AcDbEntity
  8
Capa_1
 62
7
100
AcDbLine
 10
6.799264
 20
0.011117
 30
0.0
 11
6.292851
 21
0.044454
 31
0.0
  0
LINE
  5
16a
100
AcDbEntity
  8
Capa_1
 62
7
100
AcDbLine
 10
6.292851
 20
0.044454
 30
0.0
 11
5.795964
 21
0.100017
 31
0.0
  0
LINE
  5
16b
100
AcDbEntity
  8
Capa_1
 62
7
100
AcDbLine
 10
5.795964
 20
0.100017
 30
0.0
 11
5.308601
 21
0.177804
 31
0.0
  0
LINE
  5
16c
100
AcDbEntity
  8
Capa_1
 62
7
100
AcDbLine
 10
5.308601
 20
0.177804
 30
0.0
 11
4.835526
 21
0.271467
 31
0.0
  0
LINE
  5
16d
100
AcDbEntity
  8
Capa_1
 62
7
100
AcDbLine
 10
4.835526
 20
0.271467
 30
0.0
 11
4.356101
 21
0.400054
 31
0.0
  0
LINE
  5
16e
100
AcDbEntity
  8
Capa_1
 62
7
100
AcDbLine
 10
4.356101
 20
0.400054
 30
0.0
 11
3.870326
 21
0.563567
 31
0.0
  0
LINE
  5
16f
100
AcDbEntity
  8
Capa_1
 62
7
100
AcDbLine
 10
3.870326
 20
0.563567
 30
0.0
 11
3.378201
 21
0.762004
 31
0.0
  0
LINE
  5
170
100
AcDbEntity
  8
Capa_1
 62
7
100
AcDbLine
 10
3.378201
 20
0.762004
 30
0.0
 11
2.900364
 21
1.004892
 31
0.0
  0
LINE
  5
171
100
AcDbEntity
  8
Capa_1
 62
7
100
AcDbLine
 10
2.900364
 20
1.004892
 30
0.0
 11
2.457451
 21
1.276354
 31
0.0
  0
LINE
  5
172
100
AcDbEntity
  8
Capa_1
 62
7
100
AcDbLine
 10
2.457451
 20
1.276354
 30
0.0
 11
2.049464
 21
1.576392
 31
0.0
  0
LINE
  5
173
100
AcDbEntity
  8
Capa_1
 62
7
100
AcDbLine
 10
2.049464
 20
1.576392
 30
0.0
 11
1.676401
 21
1.905004
 31
0.0
  0
LINE
  5
174
100
AcDbEntity
  8
Capa_1
 62
7
100
AcDbLine
 10
1.676401
 20
1.905004
 30
0.0
 11
1.335089
 21
2.289179
 31
0.0
  0
LINE
  5
175
100
AcDbEntity
  8
Capa_1
 62
7
100
AcDbLine
 10
1.335089
 20
2.289179
 30
0.0
 11
1.022351
 21
2.730504
 31
0.0
  0
LINE
  5
176
100
AcDbEntity
  8
Capa_1
 62
7
100
AcDbLine
 10
1.022351
 20
2.730504
 30
0.0
 11
0.738189
 21
3.228979
 31
0.0
  0
LINE
  5
177
100
AcDbEntity
  8
Capa_1
 62
7
100
AcDbLine
 10
0.738189
 20
3.228979
 30
0.0
 11
0.482601
 21
3.784604
 31
0.0
  0
LINE
  5
178
100
AcDbEntity
  8
Capa_1
 62
7
100
AcDbLine
 10
0.482601
 20
3.784604
 30
0.0
 11
0.280989
 21
4.391029
 31
0.0
  0
LINE
  5
179
100
AcDbEntity
  8
Capa_1
 62
7
100
AcDbLine
 10
0.280989
 20
4.391029
 30
0.0
 11
0.133351
 21
5.041904
 31
0.0
  0
LINE
  5
17a
100
AcDbEntity
  8
Capa_1
 62
7
100
AcDbLine
 10
0.133351
 20
5.041904
 30
0.0
 11
0.039689
 21
5.737229
 31
0.0
  0
LINE
  5
17b
100
AcDbEntity
  8
Capa_1
 62
7
100
AcDbLine
 10
0.039689
 20
5.737229
 30
0.0
 11
0.000001
 21
6.477004
 31
0.0
  0
LINE
  5
17c
100
AcDbEntity
  8
Capa_1
 62
7
100
AcDbLine
 10
0.000001
 20
6.477004
 30
0.0
 11
0.558801
 21
6.477004
 31
0.0
  0
LINE
  5
17d
100
AcDbEntity
  8
Capa_1
 62
7
100
AcDbLine
 10
0.558801
 20
6.477004
 30
0.0
 11
1.117601
 21
6.477004
 31
0.0
  0
LINE
  5
17e
100
AcDbEntity
  8
Capa_1
 62
7
100
AcDbLine
 10
1.117601
 20
6.477004
 30
0.0
 11
1.676401
 21
6.477004
 31
0.0
  0
LINE
  5
17f
100
AcDbEntity
  8
Capa_1
 62
7
100
AcDbLine
 10
1.676401
 20
6.477004
 30
0.0
 11
2.235201
 21
6.477004
 31
0.0
  0
LINE
  5
180
100
AcDbEntity
  8
Capa_1
 62
7
100
AcDbLine
 10
2.235201
 20
6.477004
 30
0.0
 11
2.235201
 21
6.445254
 31
0.0
  0
LINE
  5
181
100
AcDbEntity
  8
Capa_1
 62
7
100
AcDbLine
 10
2.235201
 20
6.445254
 30
0.0
 11
2.235201
 21
6.413504
 31
0.0
  0
LINE
  5
182
100
AcDbEntity
  8
Capa_1
 62
7
100
AcDbLine
 10
2.235201
 20
6.413504
 30
0.0
 11
2.235201
 21
6.381754
 31
0.0
  0
LINE
  5
183
100
AcDbEntity
  8
Capa_1
 62
7
100
AcDbLine
 10
2.235201
 20
6.381754
 30
0.0
 11
2.235201
 21
6.350004
 31
0.0
  0
LINE
  5
184
100
AcDbEntity
  8
Capa_1
 62
7
100
AcDbLine
 10
2.235201
 20
6.350004
 30
0.0
 11
2.249489
 21
5.962654
 31
0.0
  0
LINE
  5
185
100
AcDbEntity
  8
Capa_1
 62
7
100
AcDbLine
 10
2.249489
 20
5.962654
 30
0.0
 11
2.292351
 21
5.588004
 31
0.0
  0
LINE
  5
186
100
AcDbEntity
  8
Capa_1
 62
7
100
AcDbLine
 10
2.292351
 20
5.588004
 30
0.0
 11
2.363789
 21
5.226054
 31
0.0
  0
LINE
  5
187
100
AcDbEntity
  8
Capa_1
 62
7
100
AcDbLine
 10
2.363789
 20
5.226054
 30
0.0
 11
2.463801
 21
4.876804
 31
0.0
  0
LINE
  5
188
100
AcDbEntity
  8
Capa_1
 62
7
100
AcDbLine
 10
2.463801
 20
4.876804
 30
0.0
 11
2.608264
 21
4.535492
 31
0.0
  0
LINE
  5
189
100
AcDbEntity
  8
Capa_1
 62
7
100
AcDbLine
 10
2.608264
 20
4.535492
 30
0.0
 11
2.787651
 21
4.197354
 31
0.0
  0
LINE
  5
18a
100
AcDbEntity
  8
Capa_1
 62
7
100
AcDbLine
 10
2.787651
 20
4.197354
 30
0.0
 11
3.001964
 21
3.862392
 31
0.0
  0
LINE
  5
18b
100
AcDbEntity
  8
Capa_1
 62
7
100
AcDbLine
 10
3.001964
 20
3.862392
 30
0.0
 11
3.251201
 21
3.530604
 31
0.0
  0
LINE
  5
18c
100
AcDbEntity
  8
Capa_1
 62
7
100
AcDbLine
 10
3.251201
 20
3.530604
 30
0.0
 11
3.562351
 21
3.216279
 31
0.0
  0
LINE
  5
18d
100
AcDbEntity
  8
Capa_1
 62
7
100
AcDbLine
 10
3.562351
 20
3.216279
 30
0.0
 11
3.937001
 21
2.933704
 31
0.0
  0
LINE
  5
18e
100
AcDbEntity
  8
Capa_1
 62
7
100
AcDbLine
 10
3.937001
 20
2.933704
 30
0.0
 11
4.375151
 21
2.682879
 31
0.0
  0
LINE
  5
18f
100
AcDbEntity
  8
Capa_1
 62
7
100
AcDbLine
 10
4.375151
 20
2.682879
 30
0.0
 11
4.876801
 21
2.463804
 31
0.0
  0
LINE
  5
190
100
AcDbEntity
  8
Capa_1
 62
7
100
AcDbLine
 10
4.876801
 20
2.463804
 30
0.0
 11
5.448301
 21
2.297117
 31
0.0
  0
LINE
  5
191
100
AcDbEntity
  8
Capa_1
 62
7
100
AcDbLine
 10
5.448301
 20
2.297117
 30
0.0
 11
6.070601
 21
2.178054
 31
0.0
  0
LINE
  5
192
100
AcDbEntity
  8
Capa_1
 62
7
100
AcDbLine
 10
6.070601
 20
2.178054
 30
0.0
 11
6.743701
 21
2.106617
 31
0.0
  0
LINE
  5
193
100
AcDbEntity
  8
Capa_1
 62
7
100
AcDbLine
 10
6.743701
 20
2.106617
 30
0.0
 11
7.467601
 21
2.082804
 31
0.0
  0
LINE
  5
194
100
AcDbEntity
  8
Capa_1
 62
7
100
AcDbLine
 10
27.761407
 20
0.584204
 30
0.0
 11
25.272207
 21
0.584204
 31
0.0
  0
LINE
  5
195
100
AcDbEntity
  8
Capa_1
 62
7
100
AcDbLine
 10
25.272207
 20
0.584204
 30
0.0
 11
20.014407
 21
16.103604
 31
0.0
  0
LINE
  5
196
100
AcDbEntity
  8
Capa_1
 62
7
100
AcDbLine
 10
20.014407
 20
16.103604
 30
0.0
 11
20.014407
 21
0.584204
 31
0.0
  0
LINE
  5
197
100
AcDbEntity
  8
Capa_1
 62
7
100
AcDbLine
 10
20.014407
 20
0.584204
 30
0.0
 11
17.779207
 21
0.584204
 31
0.0
  0
LINE
  5
198
100
AcDbEntity
  8
Capa_1
 62
7
100
AcDbLine
 10
17.779207
 20
0.584204
 30
0.0
 11
17.779207
 21
19.100804
 31
0.0
  0
LINE
  5
199
100
AcDbEntity
  8
Capa_1
 62
7
100
AcDbLine
 10
17.779207
 20
19.100804
 30
0.0
 11
21.055807
 21
19.100804
 31
0.0
  0
LINE
  5
19a
100
AcDbEntity
  8
Capa_1
 62
7
100
AcDbLine
 10
21.055807
 20
19.100804
 30
0.0
 11
26.542207
 21
2.971804
 31
0.0
  0
LINE
  5
19b
100
AcDbEntity
  8
Capa_1
 62
7
100
AcDbLine
 10
26.542207
 20
2.971804
 30
0.0
 11
31.927007
 21
19.100804
 31
0.0
  0
LINE
  5
19c
100
AcDbEntity
  8
Capa_1
 62
7
100
AcDbLine
 10
31.927007
 20
19.100804
 30
0.0
 11
35.203607
 21
19.100804
 31
0.0
  0
LINE
  5
19d
100
AcDbEntity
  8
Capa_1
 62
7
100
AcDbLine
 10
35.203607
 20
19.100804
 30
0.0
 11
35.203607
 21
0.584204
 31
0.0
  0
LINE
  5
19e
100
AcDbEntity
  8
Capa_1
 62
7
100
AcDbLine
 10
35.203607
 20
0.584204
 30
0.0
 11
32.968407
 21
0.584204
 31
0.0
  0
LINE
  5
19f
100
AcDbEntity
  8
Capa_1
 62
7
100
AcDbLine
 10
32.968407
 20
0.584204
 30
0.0
 11
32.968407
 21
16.103604
 31
0.0
  0
LINE
  5
1a0
100
AcDbEntity
  8
Capa_1
 62
7
100
AcDbLine
 10
32.968407
 20
16.103604
 30
0.0
 11
27.761407
 21
0.584204
 31
0.0
  0
LINE
  5
1a1
100
AcDbEntity
  8
Capa_1
 62
7
100
AcDbLine
 10
51.147266
 20
9.017004
 30
0.0
 11
41.622266
 21
9.017004
 31
0.0
  0
LINE
  5
1a2
100
AcDbEntity
  8
Capa_1
 62
7
100
AcDbLine
 10
41.622266
 20
9.017004
 30
0.0
 11
41.622266
 21
0.584204
 31
0.0
  0
LINE
  5
1a3
100
AcDbEntity
  8
Capa_1
 62
7
100
AcDbLine
 10
41.622266
 20
0.584204
 30
0.0
 11
39.260067
 21
0.584204
 31
0.0
  0
LINE
  5
1a4
100
AcDbEntity
  8
Capa_1
 62
7
100
AcDbLine
 10
39.260067
 20
0.584204
 30
0.0
 11
39.260067
 21
19.100804
 31
0.0
  0
LINE
  5
1a5
100
AcDbEntity
  8
Capa_1
 62
7
100
AcDbLine
 10
39.260067
 20
19.100804
 30
0.0
 11
41.622266
 21
19.100804
 31
0.0
  0
LINE
  5
1a6
100
AcDbEntity
  8
Capa_1
 62
7
100
AcDbLine
 10
41.622266
 20
19.100804
 30
0.0
 11
41.622266
 21
11.099804
 31
0.0
  0
LINE
  5
1a7
100
AcDbEntity
  8
Capa_1
 62
7
100
AcDbLine
 10
41.622266
 20
11.099804
 30
0.0
 11
51.147266
 21
11.099804
 31
0.0
  0
LINE
  5
1a8
100
AcDbEntity
  8
Capa_1
 62
7
100
AcDbLine
 10
51.147266
 20
11.099804
 30
0.0
 11
51.147266
 21
19.100804
 31
0.0
  0
LINE
  5
1a9
100
AcDbEntity
  8
Capa_1
 62
7
100
AcDbLine
 10
51.147266
 20
19.100804
 30
0.0
 11
53.509466
 21
19.100804
 31
0.0
  0
LINE
  5
1aa
100
AcDbEntity
  8
Capa_1
 62
7
100
AcDbLine
 10
53.509466
 20
19.100804
 30
0.0
 11
53.509466
 21
0.584204
 31
0.0
  0
LINE
  5
1ab
100
AcDbEntity
  8
Capa_1
 62
7
100
AcDbLine
 10
53.509466
 20
0.584204
 30
0.0
 11
51.147266
 21
0.584204
 31
0.0
  0
LINE
  5
1ac
100
AcDbEntity
  8
Capa_1
 62
7
100
AcDbLine
 10
51.147266
 20
0.584204
 30
0.0
 11
51.147266
 21
9.017004
 31
0.0
  0
ENDSEC
  0
SECTION
  2
OBJECTS
  0
DICTIONARY
  5
C
330
0
100
AcDbDictionary
  3
ACAD_GROUP
350
D
  3
ACAD_MLINESTYLE
350
17
  0
DICTIONARY
  5
D
330
C
100
AcDbDictionary
  0
DICTIONARY
  5
1A
330
C
100
AcDbDictionary
  0
DICTIONARY
  5
17
330
C
100
AcDbDictionary
  3
STANDARD
350
18
  0
DICTIONARY
  5
19
330
C
100
AcDbDictionary
  0
ENDSEC
  0
EOF
