  0
SECTION
  2
HEADER
  9
$ACADVER
  1
AC1014
  9
$HANDSEED
  5
FFFF
  9
$MEASUREMENT
 70
     1
  0
ENDSEC
  0
SECTION
  2
TABLES
  0
TABLE
  2
VPORT
  5
8
330
0
100
AcDbSymbolTable
 70
     4
  0
VPORT
  5
2E
330
8
100
AcDbSymbolTableRecord
100
AcDbViewportTableRecord
  2
*ACTIVE
 70
     0
 10
0.0
 20
0.0
 11
1.0
 21
1.0
 12
210.0
 22
148.5
 13
0.0
 23
0.0
 14
10.0
 24
10.0
 15
10.0
 25
10.0
 16
0.0
 26
0.0
 36
1.0
 17
0.0
 27
0.0
 37
0.0
 40
341.0
 41
1.24
 42
50.0
 43
0.0
 44
0.0
 50
0.0
 51
0.0
 71
     0
 72
   100
 73
     1
 74
     3
 75
     0
 76
     0
 77
     0
 78
     0
  0
ENDTAB
  0
TABLE
  2
LTYPE
  5
5
330
0
100
AcDbSymbolTable
 70
     1
  0
LTYPE
  5
14
330
5
100
AcDbSymbolTableRecord
100
AcDbLinetypeTableRecord
  2
BYBLOCK
 70
     0
  3

 72
    65
 73
     0
 40
0.0
  0
LTYPE
  5
15
330
5
100
AcDbSymbolTableRecord
100
AcDbLinetypeTableRecord
  2
BYLAYER
 70
     0
  3

 72
    65
 73
     0
 40
0.0
  0
LTYPE
  5
16
330
5
100
AcDbSymbolTableRecord
100
AcDbLinetypeTableRecord
  2
CONTINUOUS
 70
     0
  3
Solid line
 72
    65
 73
     0
 40
0.0
  0
ENDTAB
  0
TABLE
  2
LAYER
  5
2
100
AcDbSymbolTable
 70
2
  0
LAYER
  5
50
100
AcDbSymbolTableRecord
100
AcDbLayerTableRecord
  2
0
 70
0
  6
CONTINUOUS
  0
LAYER
  5
51
100
AcDbSymbolTableRecord
100
AcDbLayerTableRecord
  2
Capa_1
 70
0
  6
CONTINUOUS
  0
ENDTAB
  0
TABLE
  2
STYLE
  5
3
330
0
100
AcDbSymbolTable
 70
     1
  0
STYLE
  5
11
330
3
100
AcDbSymbolTableRecord
100
AcDbTextStyleTableRecord
  2
STANDARD
 70
     0
 40
0.0
 41
1.0
 50
0.0
 71
     0
 42
2.5
  3
txt
  4

  0
ENDTAB
  0
TABLE
  2
VIEW
  5
6
330
0
100
AcDbSymbolTable
 70
     0
  0
ENDTAB
  0
TABLE
  2
UCS
  5
7
330
0
100
AcDbSymbolTable
 70
     0
  0
ENDTAB
  0
TABLE
  2
APPID
  5
9
330
0
100
AcDbSymbolTable
 70
     2
  0
APPID
  5
12
330
9
100
AcDbSymbolTableRecord
100
AcDbRegAppTableRecord
  2
ACAD
 70
     0
  0
ENDTAB
  0
TABLE
  2
DIMSTYLE
  5
A
330
0
100
AcDbSymbolTable
 70
     1
  0
DIMSTYLE
105
27
330
A
100
AcDbSymbolTableRecord
100
AcDbDimStyleTableRecord
  2
ISO-25
 70
     0
  3

  4

  5

  6

  7

 40
1.0
 41
2.5
 42
0.625
 43
3.75
 44
1.25
 45
0.0
 46
0.0
 47
0.0
 48
0.0
140
2.5
141
2.5
142
0.0
143
0.03937007874016
144
1.0
145
0.0
146
1.0
147
0.625
 71
     0
 72
     0
 73
     0
 74
     0
 75
     0
 76
     0
 77
     1
 78
     8
170
     0
171
     3
172
     1
173
     0
174
     0
175
     0
176
     0
177
     0
178
     0
270
     2
271
     2
272
     2
273
     2
274
     3
340
11
275
     0
280
     0
281
     0
282
     0
283
     0
284
     8
285
     0
286
     0
287
     3
288
     0
  0
ENDTAB
  0
TABLE
  2
BLOCK_RECORD
  5
1
330
0
100
AcDbSymbolTable
 70
     1
  0
BLOCK_RECORD
  5
1F
330
1
100
AcDbSymbolTableRecord
100
AcDbBlockTableRecord
  2
*MODEL_SPACE
  0
BLOCK_RECORD
  5
1B
330
1
100
AcDbSymbolTableRecord
100
AcDbBlockTableRecord
  2
*PAPER_SPACE
  0
ENDTAB
  0
ENDSEC
  0
SECTION
  2
BLOCKS
  0
BLOCK
  5
20
330
1F
100
AcDbEntity
  8
0
100
AcDbBlockBegin
  2
*MODEL_SPACE
 70
     0
 10
0.0
 20
0.0
 30
0.0
  3
*MODEL_SPACE
  1

  0
ENDBLK
  5
21
330
1F
100
AcDbEntity
  8
0
100
AcDbBlockEnd
  0
BLOCK
  5
1C
330
1B
100
AcDbEntity
 67
     1
  8
0
100
AcDbBlockBegin
  2
*PAPER_SPACE
  1

  0
ENDBLK
  5
1D
330
1B
100
AcDbEntity
 67
     1
  8
0
100
AcDbBlockEnd
  0
ENDSEC
  0
SECTION
  2
ENTITIES
  0
LINE
  5
100
100
AcDbEntity
  8
Capa_1
 62
7
100
AcDbLine
 10
0.158044
 20
0.248350
 30
0.0
 11
0.180622
 21
0.248350
 31
0.0
  0
LINE
  5
101
100
AcDbEntity
  8
Capa_1
 62
7
100
AcDbLine
 10
0.180622
 20
0.248350
 30
0.0
 11
0.203200
 21
0.248350
 31
0.0
  0
LINE
  5
102
100
AcDbEntity
  8
Capa_1
 62
7
100
AcDbLine
 10
0.203200
 20
0.248350
 30
0.0
 11
0.225778
 21
0.248350
 31
0.0
  0
LINE
  5
103
100
AcDbEntity
  8
Capa_1
 62
7
100
AcDbLine
 10
0.225778
 20
0.248350
 30
0.0
 11
0.248356
 21
0.248350
 31
0.0
  0
LINE
  5
104
100
AcDbEntity
  8
Capa_1
 62
7
100
AcDbLine
 10
0.248356
 20
0.248350
 30
0.0
 11
0.270933
 21
0.248350
 31
0.0
  0
LINE
  5
105
100
AcDbEntity
  8
Capa_1
 62
7
100
AcDbLine
 10
0.270933
 20
0.248350
 30
0.0
 11
0.293511
 21
0.248350
 31
0.0
  0
LINE
  5
106
100
AcDbEntity
  8
Capa_1
 62
7
100
AcDbLine
 10
0.293511
 20
0.248350
 30
0.0
 11
0.316089
 21
0.248350
 31
0.0
  0
LINE
  5
107
100
AcDbEntity
  8
Capa_1
 62
7
100
AcDbLine
 10
0.316089
 20
0.248350
 30
0.0
 11
0.338667
 21
0.248350
 31
0.0
  0
LINE
  5
108
100
AcDbEntity
  8
Capa_1
 62
7
100
AcDbLine
 10
0.338667
 20
0.248350
 30
0.0
 11
0.522332
 21
0.263250
 31
0.0
  0
LINE
  5
109
100
AcDbEntity
  8
Capa_1
 62
7
100
AcDbLine
 10
0.522332
 20
0.263250
 30
0.0
 11
0.732720
 21
0.274450
 31
0.0
  0
LINE
  5
10a
100
AcDbEntity
  8
Capa_1
 62
7
100
AcDbLine
 10
0.732720
 20
0.274450
 30
0.0
 11
0.966920
 21
0.282450
 31
0.0
  0
LINE
  5
10b
100
AcDbEntity
  8
Capa_1
 62
7
100
AcDbLine
 10
0.966920
 20
0.282450
 30
0.0
 11
1.222022
 21
0.287450
 31
0.0
  0
LINE
  5
10c
100
AcDbEntity
  8
Capa_1
 62
7
100
AcDbLine
 10
1.222022
 20
0.287450
 30
0.0
 11
1.495116
 21
0.290450
 31
0.0
  0
LINE
  5
10d
100
AcDbEntity
  8
Capa_1
 62
7
100
AcDbLine
 10
1.495116
 20
0.290450
 30
0.0
 11
1.783292
 21
0.292450
 31
0.0
  0
LINE
  5
10e
100
AcDbEntity
  8
Capa_1
 62
7
100
AcDbLine
 10
1.783292
 20
0.292450
 30
0.0
 11
2.083638
 21
0.293070
 31
0.0
  0
LINE
  5
10f
100
AcDbEntity
  8
Capa_1
 62
7
100
AcDbLine
 10
2.083638
 20
0.293070
 30
0.0
 11
2.393245
 21
0.293160
 31
0.0
  0
LINE
  5
110
100
AcDbEntity
  8
Capa_1
 62
7
100
AcDbLine
 10
2.393245
 20
0.293160
 30
0.0
 11
2.708319
 21
0.291160
 31
0.0
  0
LINE
  5
111
100
AcDbEntity
  8
Capa_1
 62
7
100
AcDbLine
 10
2.708319
 20
0.291160
 30
0.0
 11
3.025775
 21
0.286160
 31
0.0
  0
LINE
  5
112
100
AcDbEntity
  8
Capa_1
 62
7
100
AcDbLine
 10
3.025775
 20
0.286160
 30
0.0
 11
3.343760
 21
0.279160
 31
0.0
  0
LINE
  5
113
100
AcDbEntity
  8
Capa_1
 62
7
100
AcDbLine
 10
3.343760
 20
0.279160
 30
0.0
 11
3.660422
 21
0.271160
 31
0.0
  0
LINE
  5
114
100
AcDbEntity
  8
Capa_1
 62
7
100
AcDbLine
 10
3.660422
 20
0.271160
 30
0.0
 11
3.973910
 21
0.263160
 31
0.0
  0
LINE
  5
115
100
AcDbEntity
  8
Capa_1
 62
7
100
AcDbLine
 10
3.973910
 20
0.263160
 30
0.0
 11
4.282370
 21
0.256160
 31
0.0
  0
LINE
  5
116
100
AcDbEntity
  8
Capa_1
 62
7
100
AcDbLine
 10
4.282370
 20
0.256160
 30
0.0
 11
4.583951
 21
0.251160
 31
0.0
  0
LINE
  5
117
100
AcDbEntity
  8
Capa_1
 62
7
100
AcDbLine
 10
4.583951
 20
0.251160
 30
0.0
 11
4.876800
 21
0.249160
 31
0.0
  0
LINE
  5
118
100
AcDbEntity
  8
Capa_1
 62
7
100
AcDbLine
 10
4.876800
 20
0.249160
 30
0.0
 11
4.982281
 21
0.254160
 31
0.0
  0
LINE
  5
119
100
AcDbEntity
  8
Capa_1
 62
7
100
AcDbLine
 10
4.982281
 20
0.254160
 30
0.0
 11
5.064478
 21
0.269960
 31
0.0
  0
LINE
  5
11a
100
AcDbEntity
  8
Capa_1
 62
7
100
AcDbLine
 10
5.064478
 20
0.269960
 30
0.0
 11
5.127625
 21
0.299460
 31
0.0
  0
LINE
  5
11b
100
AcDbEntity
  8
Capa_1
 62
7
100
AcDbLine
 10
5.127625
 20
0.299460
 30
0.0
 11
5.175956
 21
0.345360
 31
0.0
  0
LINE
  5
11c
100
AcDbEntity
  8
Capa_1
 62
7
100
AcDbLine
 10
5.175956
 20
0.345360
 30
0.0
 11
5.213703
 21
0.410360
 31
0.0
  0
LINE
  5
11d
100
AcDbEntity
  8
Capa_1
 62
7
100
AcDbLine
 10
5.213703
 20
0.410360
 30
0.0
 11
5.245100
 21
0.497060
 31
0.0
  0
LINE
  5
11e
100
AcDbEntity
  8
Capa_1
 62
7
100
AcDbLine
 10
5.245100
 20
0.497060
 30
0.0
 11
5.274381
 21
0.608100
 31
0.0
  0
LINE
  5
11f
100
AcDbEntity
  8
Capa_1
 62
7
100
AcDbLine
 10
5.274381
 20
0.608100
 30
0.0
 11
5.305778
 21
0.746130
 31
0.0
  0
LINE
  5
120
100
AcDbEntity
  8
Capa_1
 62
7
100
AcDbLine
 10
5.305778
 20
0.746130
 30
0.0
 11
5.321653
 21
0.795830
 31
0.0
  0
LINE
  5
121
100
AcDbEntity
  8
Capa_1
 62
7
100
AcDbLine
 10
5.321653
 20
0.795830
 30
0.0
 11
5.335411
 21
0.843130
 31
0.0
  0
LINE
  5
122
100
AcDbEntity
  8
Capa_1
 62
7
100
AcDbLine
 10
5.335411
 20
0.843130
 30
0.0
 11
5.347053
 21
0.887830
 31
0.0
  0
LINE
  5
123
100
AcDbEntity
  8
Capa_1
 62
7
100
AcDbLine
 10
5.347053
 20
0.887830
 30
0.0
 11
5.356573
 21
0.929630
 31
0.0
  0
LINE
  5
124
100
AcDbEntity
  8
Capa_1
 62
7
100
AcDbLine
 10
5.356573
 20
0.929630
 30
0.0
 11
5.363983
 21
0.968230
 31
0.0
  0
LINE
  5
125
100
AcDbEntity
  8
Capa_1
 62
7
100
AcDbLine
 10
5.363983
 20
0.968230
 30
0.0
 11
5.369273
 21
1.003330
 31
0.0
  0
LINE
  5
126
100
AcDbEntity
  8
Capa_1
 62
7
100
AcDbLine
 10
5.369273
 20
1.003330
 30
0.0
 11
5.372443
 21
1.034730
 31
0.0
  0
LINE
  5
127
100
AcDbEntity
  8
Capa_1
 62
7
100
AcDbLine
 10
5.372443
 20
1.034730
 30
0.0
 11
5.373503
 21
1.062230
 31
0.0
  0
LINE
  5
128
100
AcDbEntity
  8
Capa_1
 62
7
100
AcDbLine
 10
5.373503
 20
1.062230
 30
0.0
 11
5.368033
 21
1.123830
 31
0.0
  0
LINE
  5
129
100
AcDbEntity
  8
Capa_1
 62
7
100
AcDbLine
 10
5.368033
 20
1.123830
 30
0.0
 11
5.350923
 21
1.173730
 31
0.0
  0
LINE
  5
12a
100
AcDbEntity
  8
Capa_1
 62
7
100
AcDbLine
 10
5.350923
 20
1.173730
 30
0.0
 11
5.321113
 21
1.213030
 31
0.0
  0
LINE
  5
12b
100
AcDbEntity
  8
Capa_1
 62
7
100
AcDbLine
 10
5.321113
 20
1.213030
 30
0.0
 11
5.277545
 21
1.242830
 31
0.0
  0
LINE
  5
12c
100
AcDbEntity
  8
Capa_1
 62
7
100
AcDbLine
 10
5.277545
 20
1.242830
 30
0.0
 11
5.219160
 21
1.264230
 31
0.0
  0
LINE
  5
12d
100
AcDbEntity
  8
Capa_1
 62
7
100
AcDbLine
 10
5.219160
 20
1.264230
 30
0.0
 11
5.144900
 21
1.278130
 31
0.0
  0
LINE
  5
12e
100
AcDbEntity
  8
Capa_1
 62
7
100
AcDbLine
 10
5.144900
 20
1.278130
 30
0.0
 11
5.053707
 21
1.286130
 31
0.0
  0
LINE
  5
12f
100
AcDbEntity
  8
Capa_1
 62
7
100
AcDbLine
 10
5.053707
 20
1.286130
 30
0.0
 11
4.944522
 21
1.288130
 31
0.0
  0
LINE
  5
130
100
AcDbEntity
  8
Capa_1
 62
7
100
AcDbLine
 10
4.944522
 20
1.288130
 30
0.0
 11
4.744321
 21
1.312530
 31
0.0
  0
LINE
  5
131
100
AcDbEntity
  8
Capa_1
 62
7
100
AcDbLine
 10
4.744321
 20
1.312530
 30
0.0
 11
4.553644
 21
1.352330
 31
0.0
  0
LINE
  5
132
100
AcDbEntity
  8
Capa_1
 62
7
100
AcDbLine
 10
4.553644
 20
1.352330
 30
0.0
 11
4.377785
 21
1.408030
 31
0.0
  0
LINE
  5
133
100
AcDbEntity
  8
Capa_1
 62
7
100
AcDbLine
 10
4.377785
 20
1.408030
 30
0.0
 11
4.222033
 21
1.480030
 31
0.0
  0
LINE
  5
134
100
AcDbEntity
  8
Capa_1
 62
7
100
AcDbLine
 10
4.222033
 20
1.480030
 30
0.0
 11
4.091682
 21
1.569030
 31
0.0
  0
LINE
  5
135
100
AcDbEntity
  8
Capa_1
 62
7
100
AcDbLine
 10
4.091682
 20
1.569030
 30
0.0
 11
3.992022
 21
1.675480
 31
0.0
  0
LINE
  5
136
100
AcDbEntity
  8
Capa_1
 62
7
100
AcDbLine
 10
3.992022
 20
1.675480
 30
0.0
 11
3.928346
 21
1.799920
 31
0.0
  0
LINE
  5
137
100
AcDbEntity
  8
Capa_1
 62
7
100
AcDbLine
 10
3.928346
 20
1.799920
 30
0.0
 11
3.905945
 21
1.942880
 31
0.0
  0
LINE
  5
138
100
AcDbEntity
  8
Capa_1
 62
7
100
AcDbLine
 10
3.905945
 20
1.942880
 30
0.0
 11
3.907045
 21
1.977780
 31
0.0
  0
LINE
  5
139
100
AcDbEntity
  8
Capa_1
 62
7
100
AcDbLine
 10
3.907045
 20
1.977780
 30
0.0
 11
3.910525
 21
2.014780
 31
0.0
  0
LINE
  5
13a
100
AcDbEntity
  8
Capa_1
 62
7
100
AcDbLine
 10
3.910525
 20
2.014780
 30
0.0
 11
3.916655
 21
2.053980
 31
0.0
  0
LINE
  5
13b
100
AcDbEntity
  8
Capa_1
 62
7
100
AcDbLine
 10
3.916655
 20
2.053980
 30
0.0
 11
3.925695
 21
2.095280
 31
0.0
  0
LINE
  5
13c
100
AcDbEntity
  8
Capa_1
 62
7
100
AcDbLine
 10
3.925695
 20
2.095280
 30
0.0
 11
3.937910
 21
2.138680
 31
0.0
  0
LINE
  5
13d
100
AcDbEntity
  8
Capa_1
 62
7
100
AcDbLine
 10
3.937910
 20
2.138680
 30
0.0
 11
3.953564
 21
2.184180
 31
0.0
  0
LINE
  5
13e
100
AcDbEntity
  8
Capa_1
 62
7
100
AcDbLine
 10
3.953564
 20
2.184180
 30
0.0
 11
3.972923
 21
2.231780
 31
0.0
  0
LINE
  5
13f
100
AcDbEntity
  8
Capa_1
 62
7
100
AcDbLine
 10
3.972923
 20
2.231780
 30
0.0
 11
3.996250
 21
2.281480
 31
0.0
  0
LINE
  5
140
100
AcDbEntity
  8
Capa_1
 62
7
100
AcDbLine
 10
3.996250
 20
2.281480
 30
0.0
 11
4.021033
 21
2.340780
 31
0.0
  0
LINE
  5
141
100
AcDbEntity
  8
Capa_1
 62
7
100
AcDbLine
 10
4.021033
 20
2.340780
 30
0.0
 11
4.075978
 21
2.447230
 31
0.0
  0
LINE
  5
142
100
AcDbEntity
  8
Capa_1
 62
7
100
AcDbLine
 10
4.075978
 20
2.447230
 30
0.0
 11
4.157381
 21
2.594960
 31
0.0
  0
LINE
  5
143
100
AcDbEntity
  8
Capa_1
 62
7
100
AcDbLine
 10
4.157381
 20
2.594960
 30
0.0
 11
4.261539
 21
2.778140
 31
0.0
  0
LINE
  5
144
100
AcDbEntity
  8
Capa_1
 62
7
100
AcDbLine
 10
4.261539
 20
2.778140
 30
0.0
 11
4.384746
 21
2.990950
 31
0.0
  0
LINE
  5
145
100
AcDbEntity
  8
Capa_1
 62
7
100
AcDbLine
 10
4.384746
 20
2.990950
 30
0.0
 11
4.523300
 21
3.227580
 31
0.0
  0
LINE
  5
146
100
AcDbEntity
  8
Capa_1
 62
7
100
AcDbLine
 10
4.523300
 20
3.227580
 30
0.0
 11
4.673495
 21
3.482200
 31
0.0
  0
LINE
  5
147
100
AcDbEntity
  8
Capa_1
 62
7
100
AcDbLine
 10
4.673495
 20
3.482200
 30
0.0
 11
4.831627
 21
3.748990
 31
0.0
  0
LINE
  5
148
100
AcDbEntity
  8
Capa_1
 62
7
100
AcDbLine
 10
4.831627
 20
3.748990
 30
0.0
 11
4.927582
 21
3.912680
 31
0.0
  0
LINE
  5
149
100
AcDbEntity
  8
Capa_1
 62
7
100
AcDbLine
 10
4.927582
 20
3.912680
 30
0.0
 11
5.023538
 21
4.076370
 31
0.0
  0
LINE
  5
14a
100
AcDbEntity
  8
Capa_1
 62
7
100
AcDbLine
 10
5.023538
 20
4.076370
 30
0.0
 11
5.119494
 21
4.240060
 31
0.0
  0
LINE
  5
14b
100
AcDbEntity
  8
Capa_1
 62
7
100
AcDbLine
 10
5.119494
 20
4.240060
 30
0.0
 11
5.215450
 21
4.403740
 31
0.0
  0
LINE
  5
14c
100
AcDbEntity
  8
Capa_1
 62
7
100
AcDbLine
 10
5.215450
 20
4.403740
 30
0.0
 11
5.311405
 21
4.567430
 31
0.0
  0
LINE
  5
14d
100
AcDbEntity
  8
Capa_1
 62
7
100
AcDbLine
 10
5.311405
 20
4.567430
 30
0.0
 11
5.407361
 21
4.731120
 31
0.0
  0
LINE
  5
14e
100
AcDbEntity
  8
Capa_1
 62
7
100
AcDbLine
 10
5.407361
 20
4.731120
 30
0.0
 11
5.503317
 21
4.894810
 31
0.0
  0
LINE
  5
14f
100
AcDbEntity
  8
Capa_1
 62
7
100
AcDbLine
 10
5.503317
 20
4.894810
 30
0.0
 11
5.599273
 21
5.058500
 31
0.0
  0
LINE
  5
150
100
AcDbEntity
  8
Capa_1
 62
7
100
AcDbLine
 10
5.599273
 20
5.058500
 30
0.0
 11
6.270962
 21
5.058500
 31
0.0
  0
LINE
  5
151
100
AcDbEntity
  8
Capa_1
 62
7
100
AcDbLine
 10
6.270962
 20
5.058500
 30
0.0
 11
6.942651
 21
5.058500
 31
0.0
  0
LINE
  5
152
100
AcDbEntity
  8
Capa_1
 62
7
100
AcDbLine
 10
6.942651
 20
5.058500
 30
0.0
 11
7.614340
 21
5.058500
 31
0.0
  0
LINE
  5
153
100
AcDbEntity
  8
Capa_1
 62
7
100
AcDbLine
 10
7.614340
 20
5.058500
 30
0.0
 11
8.286029
 21
5.058500
 31
0.0
  0
LINE
  5
154
100
AcDbEntity
  8
Capa_1
 62
7
100
AcDbLine
 10
8.286029
 20
5.058500
 30
0.0
 11
8.957718
 21
5.058500
 31
0.0
  0
LINE
  5
155
100
AcDbEntity
  8
Capa_1
 62
7
100
AcDbLine
 10
8.957718
 20
5.058500
 30
0.0
 11
9.629407
 21
5.058500
 31
0.0
  0
LINE
  5
156
100
AcDbEntity
  8
Capa_1
 62
7
100
AcDbLine
 10
9.629407
 20
5.058500
 30
0.0
 11
10.301096
 21
5.058500
 31
0.0
  0
LINE
  5
157
100
AcDbEntity
  8
Capa_1
 62
7
100
AcDbLine
 10
10.301096
 20
5.058500
 30
0.0
 11
10.972785
 21
5.058500
 31
0.0
  0
LINE
  5
158
100
AcDbEntity
  8
Capa_1
 62
7
100
AcDbLine
 10
10.972785
 20
5.058500
 30
0.0
 11
11.006655
 21
4.635170
 31
0.0
  0
LINE
  5
159
100
AcDbEntity
  8
Capa_1
 62
7
100
AcDbLine
 10
11.006655
 20
4.635170
 30
0.0
 11
11.040525
 21
4.211830
 31
0.0
  0
LINE
  5
15a
100
AcDbEntity
  8
Capa_1
 62
7
100
AcDbLine
 10
11.040525
 20
4.211830
 30
0.0
 11
11.074395
 21
3.788500
 31
0.0
  0
LINE
  5
15b
100
AcDbEntity
  8
Capa_1
 62
7
100
AcDbLine
 10
11.074395
 20
3.788500
 30
0.0
 11
11.108265
 21
3.365160
 31
0.0
  0
LINE
  5
15c
100
AcDbEntity
  8
Capa_1
 62
7
100
AcDbLine
 10
11.108265
 20
3.365160
 30
0.0
 11
11.142135
 21
2.941830
 31
0.0
  0
LINE
  5
15d
100
AcDbEntity
  8
Capa_1
 62
7
100
AcDbLine
 10
11.142135
 20
2.941830
 30
0.0
 11
11.176005
 21
2.518500
 31
0.0
  0
LINE
  5
15e
100
AcDbEntity
  8
Capa_1
 62
7
100
AcDbLine
 10
11.176005
 20
2.518500
 30
0.0
 11
11.209875
 21
2.095160
 31
0.0
  0
LINE
  5
15f
100
AcDbEntity
  8
Capa_1
 62
7
100
AcDbLine
 10
11.209875
 20
2.095160
 30
0.0
 11
11.243745
 21
1.671830
 31
0.0
  0
LINE
  5
160
100
AcDbEntity
  8
Capa_1
 62
7
100
AcDbLine
 10
11.243745
 20
1.671830
 30
0.0
 11
11.142763
 21
1.559030
 31
0.0
  0
LINE
  5
161
100
AcDbEntity
  8
Capa_1
 62
7
100
AcDbLine
 10
11.142763
 20
1.559030
 30
0.0
 11
11.011618
 21
1.472130
 31
0.0
  0
LINE
  5
162
100
AcDbEntity
  8
Capa_1
 62
7
100
AcDbLine
 10
11.011618
 20
1.472130
 30
0.0
 11
10.854014
 21
1.407530
 31
0.0
  0
LINE
  5
163
100
AcDbEntity
  8
Capa_1
 62
7
100
AcDbLine
 10
10.854014
 20
1.407530
 30
0.0
 11
10.673656
 21
1.361430
 31
0.0
  0
LINE
  5
164
100
AcDbEntity
  8
Capa_1
 62
7
100
AcDbLine
 10
10.673656
 20
1.361430
 30
0.0
 11
10.474249
 21
1.330130
 31
0.0
  0
LINE
  5
165
100
AcDbEntity
  8
Capa_1
 62
7
100
AcDbLine
 10
10.474249
 20
1.330130
 30
0.0
 11
10.259495
 21
1.309930
 31
0.0
  0
LINE
  5
166
100
AcDbEntity
  8
Capa_1
 62
7
100
AcDbLine
 10
10.259495
 20
1.309930
 30
0.0
 11
10.033100
 21
1.297130
 31
0.0
  0
LINE
  5
167
100
AcDbEntity
  8
Capa_1
 62
7
100
AcDbLine
 10
10.033100
 20
1.297130
 30
0.0
 11
9.798767
 21
1.288130
 31
0.0
  0
LINE
  5
168
100
AcDbEntity
  8
Capa_1
 62
7
100
AcDbLine
 10
9.798767
 20
1.288130
 30
0.0
 11
9.742311
 21
1.288130
 31
0.0
  0
LINE
  5
169
100
AcDbEntity
  8
Capa_1
 62
7
100
AcDbLine
 10
9.742311
 20
1.288130
 30
0.0
 11
9.685867
 21
1.288130
 31
0.0
  0
LINE
  5
16a
100
AcDbEntity
  8
Capa_1
 62
7
100
AcDbLine
 10
9.685867
 20
1.288130
 30
0.0
 11
9.629422
 21
1.288130
 31
0.0
  0
LINE
  5
16b
100
AcDbEntity
  8
Capa_1
 62
7
100
AcDbLine
 10
9.629422
 20
1.288130
 30
0.0
 11
9.572978
 21
1.288130
 31
0.0
  0
LINE
  5
16c
100
AcDbEntity
  8
Capa_1
 62
7
100
AcDbLine
 10
9.572978
 20
1.288130
 30
0.0
 11
9.516533
 21
1.288130
 31
0.0
  0
LINE
  5
16d
100
AcDbEntity
  8
Capa_1
 62
7
100
AcDbLine
 10
9.516533
 20
1.288130
 30
0.0
 11
9.460089
 21
1.288130
 31
0.0
  0
LINE
  5
16e
100
AcDbEntity
  8
Capa_1
 62
7
100
AcDbLine
 10
9.460089
 20
1.288130
 30
0.0
 11
9.403645
 21
1.288130
 31
0.0
  0
LINE
  5
16f
100
AcDbEntity
  8
Capa_1
 62
7
100
AcDbLine
 10
9.403645
 20
1.288130
 30
0.0
 11
9.347200
 21
1.288130
 31
0.0
  0
LINE
  5
170
100
AcDbEntity
  8
Capa_1
 62
7
100
AcDbLine
 10
9.347200
 20
1.288130
 30
0.0
 11
9.335911
 21
1.280130
 31
0.0
  0
LINE
  5
171
100
AcDbEntity
  8
Capa_1
 62
7
100
AcDbLine
 10
9.335911
 20
1.280130
 30
0.0
 11
9.324622
 21
1.272130
 31
0.0
  0
LINE
  5
172
100
AcDbEntity
  8
Capa_1
 62
7
100
AcDbLine
 10
9.324622
 20
1.272130
 30
0.0
 11
9.313333
 21
1.264130
 31
0.0
  0
LINE
  5
173
100
AcDbEntity
  8
Capa_1
 62
7
100
AcDbLine
 10
9.313333
 20
1.264130
 30
0.0
 11
9.302044
 21
1.256130
 31
0.0
  0
LINE
  5
174
100
AcDbEntity
  8
Capa_1
 62
7
100
AcDbLine
 10
9.302044
 20
1.256130
 30
0.0
 11
9.290755
 21
1.248130
 31
0.0
  0
LINE
  5
175
100
AcDbEntity
  8
Capa_1
 62
7
100
AcDbLine
 10
9.290755
 20
1.248130
 30
0.0
 11
9.279466
 21
1.240130
 31
0.0
  0
LINE
  5
176
100
AcDbEntity
  8
Capa_1
 62
7
100
AcDbLine
 10
9.279466
 20
1.240130
 30
0.0
 11
9.268177
 21
1.232130
 31
0.0
  0
LINE
  5
177
100
AcDbEntity
  8
Capa_1
 62
7
100
AcDbLine
 10
9.268177
 20
1.232130
 30
0.0
 11
9.256888
 21
1.224130
 31
0.0
  0
LINE
  5
178
100
AcDbEntity
  8
Capa_1
 62
7
100
AcDbLine
 10
9.256888
 20
1.224130
 30
0.0
 11
9.240881
 21
1.198430
 31
0.0
  0
LINE
  5
179
100
AcDbEntity
  8
Capa_1
 62
7
100
AcDbLine
 10
9.240881
 20
1.198430
 30
0.0
 11
9.226197
 21
1.170830
 31
0.0
  0
LINE
  5
17a
100
AcDbEntity
  8
Capa_1
 62
7
100
AcDbLine
 10
9.226197
 20
1.170830
 30
0.0
 11
9.212042
 21
1.139530
 31
0.0
  0
LINE
  5
17b
100
AcDbEntity
  8
Capa_1
 62
7
100
AcDbLine
 10
9.212042
 20
1.139530
 30
0.0
 11
9.197622
 21
1.102730
 31
0.0
  0
LINE
  5
17c
100
AcDbEntity
  8
Capa_1
 62
7
100
AcDbLine
 10
9.197622
 20
1.102730
 30
0.0
 11
9.182144
 21
1.058530
 31
0.0
  0
LINE
  5
17d
100
AcDbEntity
  8
Capa_1
 62
7
100
AcDbLine
 10
9.182144
 20
1.058530
 30
0.0
 11
9.164814
 21
1.005030
 31
0.0
  0
LINE
  5
17e
100
AcDbEntity
  8
Capa_1
 62
7
100
AcDbLine
 10
9.164814
 20
1.005030
 30
0.0
 11
9.144838
 21
0.940430
 31
0.0
  0
LINE
  5
17f
100
AcDbEntity
  8
Capa_1
 62
7
100
AcDbLine
 10
9.144838
 20
0.940430
 30
0.0
 11
9.121422
 21
0.862830
 31
0.0
  0
LINE
  5
180
100
AcDbEntity
  8
Capa_1
 62
7
100
AcDbLine
 10
9.121422
 20
0.862830
 30
0.0
 11
9.086409
 21
0.713470
 31
0.0
  0
LINE
  5
181
100
AcDbEntity
  8
Capa_1
 62
7
100
AcDbLine
 10
9.086409
 20
0.713470
 30
0.0
 11
9.065683
 21
0.599310
 31
0.0
  0
LINE
  5
182
100
AcDbEntity
  8
Capa_1
 62
7
100
AcDbLine
 10
9.065683
 20
0.599310
 30
0.0
 11
9.058713
 21
0.513210
 31
0.0
  0
LINE
  5
183
100
AcDbEntity
  8
Capa_1
 62
7
100
AcDbLine
 10
9.058713
 20
0.513210
 30
0.0
 11
9.064973
 21
0.448010
 31
0.0
  0
LINE
  5
184
100
AcDbEntity
  8
Capa_1
 62
7
100
AcDbLine
 10
9.064973
 20
0.448010
 30
0.0
 11
9.083935
 21
0.396510
 31
0.0
  0
LINE
  5
185
100
AcDbEntity
  8
Capa_1
 62
7
100
AcDbLine
 10
9.083935
 20
0.396510
 30
0.0
 11
9.115068
 21
0.351710
 31
0.0
  0
LINE
  5
186
100
AcDbEntity
  8
Capa_1
 62
7
100
AcDbLine
 10
9.115068
 20
0.351710
 30
0.0
 11
9.157842
 21
0.306310
 31
0.0
  0
LINE
  5
187
100
AcDbEntity
  8
Capa_1
 62
7
100
AcDbLine
 10
9.157842
 20
0.306310
 30
0.0
 11
9.211729
 21
0.253310
 31
0.0
  0
LINE
  5
188
100
AcDbEntity
  8
Capa_1
 62
7
100
AcDbLine
 10
9.211729
 20
0.253310
 30
0.0
 11
9.245596
 21
0.253310
 31
0.0
  0
LINE
  5
189
100
AcDbEntity
  8
Capa_1
 62
7
100
AcDbLine
 10
9.245596
 20
0.253310
 30
0.0
 11
9.279463
 21
0.253310
 31
0.0
  0
LINE
  5
18a
100
AcDbEntity
  8
Capa_1
 62
7
100
AcDbLine
 10
9.279463
 20
0.253310
 30
0.0
 11
9.313330
 21
0.253310
 31
0.0
  0
LINE
  5
18b
100
AcDbEntity
  8
Capa_1
 62
7
100
AcDbLine
 10
9.313330
 20
0.253310
 30
0.0
 11
9.347197
 21
0.253310
 31
0.0
  0
LINE
  5
18c
100
AcDbEntity
  8
Capa_1
 62
7
100
AcDbLine
 10
9.347197
 20
0.253310
 30
0.0
 11
9.381064
 21
0.253310
 31
0.0
  0
LINE
  5
18d
100
AcDbEntity
  8
Capa_1
 62
7
100
AcDbLine
 10
9.381064
 20
0.253310
 30
0.0
 11
9.414931
 21
0.253310
 31
0.0
  0
LINE
  5
18e
100
AcDbEntity
  8
Capa_1
 62
7
100
AcDbLine
 10
9.414931
 20
0.253310
 30
0.0
 11
9.448798
 21
0.253310
 31
0.0
  0
LINE
  5
18f
100
AcDbEntity
  8
Capa_1
 62
7
100
AcDbLine
 10
9.448798
 20
0.253310
 30
0.0
 11
9.482665
 21
0.253310
 31
0.0
  0
LINE
  5
190
100
AcDbEntity
  8
Capa_1
 62
7
100
AcDbLine
 10
9.482665
 20
0.253310
 30
0.0
 11
9.746455
 21
0.268210
 31
0.0
  0
LINE
  5
191
100
AcDbEntity
  8
Capa_1
 62
7
100
AcDbLine
 10
9.746455
 20
0.268210
 30
0.0
 11
10.043581
 21
0.279410
 31
0.0
  0
LINE
  5
192
100
AcDbEntity
  8
Capa_1
 62
7
100
AcDbLine
 10
10.043581
 20
0.279410
 30
0.0
 11
10.369283
 21
0.287410
 31
0.0
  0
LINE
  5
193
100
AcDbEntity
  8
Capa_1
 62
7
100
AcDbLine
 10
10.369283
 20
0.287410
 30
0.0
 11
10.718798
 21
0.292410
 31
0.0
  0
LINE
  5
194
100
AcDbEntity
  8
Capa_1
 62
7
100
AcDbLine
 10
10.718798
 20
0.292410
 30
0.0
 11
11.087363
 21
0.295410
 31
0.0
  0
LINE
  5
195
100
AcDbEntity
  8
Capa_1
 62
7
100
AcDbLine
 10
11.087363
 20
0.295410
 30
0.0
 11
11.470215
 21
0.297410
 31
0.0
  0
LINE
  5
196
100
AcDbEntity
  8
Capa_1
 62
7
100
AcDbLine
 10
11.470215
 20
0.297410
 30
0.0
 11
11.862592
 21
0.298030
 31
0.0
  0
LINE
  5
197
100
AcDbEntity
  8
Capa_1
 62
7
100
AcDbLine
 10
11.862592
 20
0.298030
 30
0.0
 11
12.259731
 21
0.298120
 31
0.0
  0
LINE
  5
198
100
AcDbEntity
  8
Capa_1
 62
7
100
AcDbLine
 10
12.259731
 20
0.298120
 30
0.0
 11
12.657929
 21
0.296120
 31
0.0
  0
LINE
  5
199
100
AcDbEntity
  8
Capa_1
 62
7
100
AcDbLine
 10
12.657929
 20
0.296120
 30
0.0
 11
13.040781
 21
0.291120
 31
0.0
  0
LINE
  5
19a
100
AcDbEntity
  8
Capa_1
 62
7
100
AcDbLine
 10
13.040781
 20
0.291120
 30
0.0
 11
13.409875
 21
0.284120
 31
0.0
  0
LINE
  5
19b
100
AcDbEntity
  8
Capa_1
 62
7
100
AcDbLine
 10
13.409875
 20
0.284120
 30
0.0
 11
13.766798
 21
0.276120
 31
0.0
  0
LINE
  5
19c
100
AcDbEntity
  8
Capa_1
 62
7
100
AcDbLine
 10
13.766798
 20
0.276120
 30
0.0
 11
14.113138
 21
0.268120
 31
0.0
  0
LINE
  5
19d
100
AcDbEntity
  8
Capa_1
 62
7
100
AcDbLine
 10
14.113138
 20
0.268120
 30
0.0
 11
14.450481
 21
0.261120
 31
0.0
  0
LINE
  5
19e
100
AcDbEntity
  8
Capa_1
 62
7
100
AcDbLine
 10
14.450481
 20
0.261120
 30
0.0
 11
14.780417
 21
0.256120
 31
0.0
  0
LINE
  5
19f
100
AcDbEntity
  8
Capa_1
 62
7
100
AcDbLine
 10
14.780417
 20
0.256120
 30
0.0
 11
15.104531
 21
0.254120
 31
0.0
  0
LINE
  5
1a0
100
AcDbEntity
  8
Capa_1
 62
7
100
AcDbLine
 10
15.104531
 20
0.254120
 30
0.0
 11
15.216494
 21
0.259120
 31
0.0
  0
LINE
  5
1a1
100
AcDbEntity
  8
Capa_1
 62
7
100
AcDbLine
 10
15.216494
 20
0.259120
 30
0.0
 11
15.301734
 21
0.274920
 31
0.0
  0
LINE
  5
1a2
100
AcDbEntity
  8
Capa_1
 62
7
100
AcDbLine
 10
15.301734
 20
0.274920
 30
0.0
 11
15.365274
 21
0.304420
 31
0.0
  0
LINE
  5
1a3
100
AcDbEntity
  8
Capa_1
 62
7
100
AcDbLine
 10
15.365274
 20
0.304420
 30
0.0
 11
15.412154
 21
0.350420
 31
0.0
  0
LINE
  5
1a4
100
AcDbEntity
  8
Capa_1
 62
7
100
AcDbLine
 10
15.412154
 20
0.350420
 30
0.0
 11
15.447384
 21
0.415420
 31
0.0
  0
LINE
  5
1a5
100
AcDbEntity
  8
Capa_1
 62
7
100
AcDbLine
 10
15.447384
 20
0.415420
 30
0.0
 11
15.476004
 21
0.502120
 31
0.0
  0
LINE
  5
1a6
100
AcDbEntity
  8
Capa_1
 62
7
100
AcDbLine
 10
15.476004
 20
0.502120
 30
0.0
 11
15.503034
 21
0.613160
 31
0.0
  0
LINE
  5
1a7
100
AcDbEntity
  8
Capa_1
 62
7
100
AcDbLine
 10
15.503034
 20
0.613160
 30
0.0
 11
15.533504
 21
0.751190
 31
0.0
  0
LINE
  5
1a8
100
AcDbEntity
  8
Capa_1
 62
7
100
AcDbLine
 10
15.533504
 20
0.751190
 30
0.0
 11
15.549384
 21
0.814790
 31
0.0
  0
LINE
  5
1a9
100
AcDbEntity
  8
Capa_1
 62
7
100
AcDbLine
 10
15.549384
 20
0.814790
 30
0.0
 11
15.563144
 21
0.870490
 31
0.0
  0
LINE
  5
1aa
100
AcDbEntity
  8
Capa_1
 62
7
100
AcDbLine
 10
15.563144
 20
0.870490
 30
0.0
 11
15.574784
 21
0.918690
 31
0.0
  0
LINE
  5
1ab
100
AcDbEntity
  8
Capa_1
 62
7
100
AcDbLine
 10
15.574784
 20
0.918690
 30
0.0
 11
15.584284
 21
0.960090
 31
0.0
  0
LINE
  5
1ac
100
AcDbEntity
  8
Capa_1
 62
7
100
AcDbLine
 10
15.584284
 20
0.960090
 30
0.0
 11
15.591684
 21
0.995090
 31
0.0
  0
LINE
  5
1ad
100
AcDbEntity
  8
Capa_1
 62
7
100
AcDbLine
 10
15.591684
 20
0.995090
 30
0.0
 11
15.596984
 21
1.024290
 31
0.0
  0
LINE
  5
1ae
100
AcDbEntity
  8
Capa_1
 62
7
100
AcDbLine
 10
15.596984
 20
1.024290
 30
0.0
 11
15.600184
 21
1.048190
 31
0.0
  0
LINE
  5
1af
100
AcDbEntity
  8
Capa_1
 62
7
100
AcDbLine
 10
15.600184
 20
1.048190
 30
0.0
 11
15.601284
 21
1.067290
 31
0.0
  0
LINE
  5
1b0
100
AcDbEntity
  8
Capa_1
 62
7
100
AcDbLine
 10
15.601284
 20
1.067290
 30
0.0
 11
15.594584
 21
1.141790
 31
0.0
  0
LINE
  5
1b1
100
AcDbEntity
  8
Capa_1
 62
7
100
AcDbLine
 10
15.594584
 20
1.141790
 30
0.0
 11
15.573374
 21
1.197790
 31
0.0
  0
LINE
  5
1b2
100
AcDbEntity
  8
Capa_1
 62
7
100
AcDbLine
 10
15.573374
 20
1.197790
 30
0.0
 11
15.535754
 21
1.237890
 31
0.0
  0
LINE
  5
1b3
100
AcDbEntity
  8
Capa_1
 62
7
100
AcDbLine
 10
15.535754
 20
1.237890
 30
0.0
 11
15.479884
 21
1.264790
 31
0.0
  0
LINE
  5
1b4
100
AcDbEntity
  8
Capa_1
 62
7
100
AcDbLine
 10
15.479884
 20
1.264790
 30
0.0
 11
15.403904
 21
1.281090
 31
0.0
  0
LINE
  5
1b5
100
AcDbEntity
  8
Capa_1
 62
7
100
AcDbLine
 10
15.403904
 20
1.281090
 30
0.0
 11
15.305964
 21
1.289090
 31
0.0
  0
LINE
  5
1b6
100
AcDbEntity
  8
Capa_1
 62
7
100
AcDbLine
 10
15.305964
 20
1.289090
 30
0.0
 11
15.184211
 21
1.292090
 31
0.0
  0
LINE
  5
1b7
100
AcDbEntity
  8
Capa_1
 62
7
100
AcDbLine
 10
15.184211
 20
1.292090
 30
0.0
 11
15.036794
 21
1.292530
 31
0.0
  0
LINE
  5
1b8
100
AcDbEntity
  8
Capa_1
 62
7
100
AcDbLine
 10
15.036794
 20
1.292530
 30
0.0
 11
14.821864
 21
1.294530
 31
0.0
  0
LINE
  5
1b9
100
AcDbEntity
  8
Capa_1
 62
7
100
AcDbLine
 10
14.821864
 20
1.294530
 30
0.0
 11
14.591588
 21
1.302530
 31
0.0
  0
LINE
  5
1ba
100
AcDbEntity
  8
Capa_1
 62
7
100
AcDbLine
 10
14.591588
 20
1.302530
 30
0.0
 11
14.358138
 21
1.317330
 31
0.0
  0
LINE
  5
1bb
100
AcDbEntity
  8
Capa_1
 62
7
100
AcDbLine
 10
14.358138
 20
1.317330
 30
0.0
 11
14.133683
 21
1.340330
 31
0.0
  0
LINE
  5
1bc
100
AcDbEntity
  8
Capa_1
 62
7
100
AcDbLine
 10
14.133683
 20
1.340330
 30
0.0
 11
13.930395
 21
1.372830
 31
0.0
  0
LINE
  5
1bd
100
AcDbEntity
  8
Capa_1
 62
7
100
AcDbLine
 10
13.930395
 20
1.372830
 30
0.0
 11
13.760444
 21
1.416230
 31
0.0
  0
LINE
  5
1be
100
AcDbEntity
  8
Capa_1
 62
7
100
AcDbLine
 10
13.760444
 20
1.416230
 30
0.0
 11
13.636001
 21
1.471730
 31
0.0
  0
LINE
  5
1bf
100
AcDbEntity
  8
Capa_1
 62
7
100
AcDbLine
 10
13.636001
 20
1.471730
 30
0.0
 11
13.569241
 21
1.540730
 31
0.0
  0
LINE
  5
1c0
100
AcDbEntity
  8
Capa_1
 62
7
100
AcDbLine
 10
13.569241
 20
1.540730
 30
0.0
 11
13.487971
 21
2.199980
 31
0.0
  0
LINE
  5
1c1
100
AcDbEntity
  8
Capa_1
 62
7
100
AcDbLine
 10
13.487971
 20
2.199980
 30
0.0
 11
13.329706
 21
3.868350
 31
0.0
  0
LINE
  5
1c2
100
AcDbEntity
  8
Capa_1
 62
7
100
AcDbLine
 10
13.329706
 20
3.868350
 30
0.0
 11
13.121171
 21
6.208770
 31
0.0
  0
LINE
  5
1c3
100
AcDbEntity
  8
Capa_1
 62
7
100
AcDbLine
 10
13.121171
 20
6.208770
 30
0.0
 11
12.889087
 21
8.884150
 31
0.0
  0
LINE
  5
1c4
100
AcDbEntity
  8
Capa_1
 62
7
100
AcDbLine
 10
12.889087
 20
8.884150
 30
0.0
 11
12.660178
 21
11.557410
 31
0.0
  0
LINE
  5
1c5
100
AcDbEntity
  8
Capa_1
 62
7
100
AcDbLine
 10
12.660178
 20
11.557410
 30
0.0
 11
12.461167
 21
13.891470
 31
0.0
  0
LINE
  5
1c6
100
AcDbEntity
  8
Capa_1
 62
7
100
AcDbLine
 10
12.461167
 20
13.891470
 30
0.0
 11
12.318777
 21
15.549260
 31
0.0
  0
LINE
  5
1c7
100
AcDbEntity
  8
Capa_1
 62
7
100
AcDbLine
 10
12.318777
 20
15.549260
 30
0.0
 11
12.259727
 21
16.193700
 31
0.0
  0
LINE
  5
1c8
100
AcDbEntity
  8
Capa_1
 62
7
100
AcDbLine
 10
12.259727
 20
16.193700
 30
0.0
 11
12.255727
 21
16.226500
 31
0.0
  0
LINE
  5
1c9
100
AcDbEntity
  8
Capa_1
 62
7
100
AcDbLine
 10
12.255727
 20
16.226500
 30
0.0
 11
12.244877
 21
16.257500
 31
0.0
  0
LINE
  5
1ca
100
AcDbEntity
  8
Capa_1
 62
7
100
AcDbLine
 10
12.244877
 20
16.257500
 30
0.0
 11
12.228737
 21
16.286900
 31
0.0
  0
LINE
  5
1cb
100
AcDbEntity
  8
Capa_1
 62
7
100
AcDbLine
 10
12.228737
 20
16.286900
 30
0.0
 11
12.208897
 21
16.315000
 31
0.0
  0
LINE
  5
1cc
100
AcDbEntity
  8
Capa_1
 62
7
100
AcDbLine
 10
12.208897
 20
16.315000
 30
0.0
 11
12.186937
 21
16.342000
 31
0.0
  0
LINE
  5
1cd
100
AcDbEntity
  8
Capa_1
 62
7
100
AcDbLine
 10
12.186937
 20
16.342000
 30
0.0
 11
12.164447
 21
16.368200
 31
0.0
  0
LINE
  5
1ce
100
AcDbEntity
  8
Capa_1
 62
7
100
AcDbLine
 10
12.164447
 20
16.368200
 30
0.0
 11
12.143017
 21
16.393900
 31
0.0
  0
LINE
  5
1cf
100
AcDbEntity
  8
Capa_1
 62
7
100
AcDbLine
 10
12.143017
 20
16.393900
 30
0.0
 11
12.124227
 21
16.419300
 31
0.0
  0
LINE
  5
1d0
100
AcDbEntity
  8
Capa_1
 62
7
100
AcDbLine
 10
12.124227
 20
16.419300
 30
0.0
 11
12.076247
 21
16.419300
 31
0.0
  0
LINE
  5
1d1
100
AcDbEntity
  8
Capa_1
 62
7
100
AcDbLine
 10
12.076247
 20
16.419300
 30
0.0
 11
12.028267
 21
16.419300
 31
0.0
  0
LINE
  5
1d2
100
AcDbEntity
  8
Capa_1
 62
7
100
AcDbLine
 10
12.028267
 20
16.419300
 30
0.0
 11
11.980287
 21
16.419300
 31
0.0
  0
LINE
  5
1d3
100
AcDbEntity
  8
Capa_1
 62
7
100
AcDbLine
 10
11.980287
 20
16.419300
 30
0.0
 11
11.932307
 21
16.419300
 31
0.0
  0
LINE
  5
1d4
100
AcDbEntity
  8
Capa_1
 62
7
100
AcDbLine
 10
11.932307
 20
16.419300
 30
0.0
 11
11.884327
 21
16.419300
 31
0.0
  0
LINE
  5
1d5
100
AcDbEntity
  8
Capa_1
 62
7
100
AcDbLine
 10
11.884327
 20
16.419300
 30
0.0
 11
11.836347
 21
16.419300
 31
0.0
  0
LINE
  5
1d6
100
AcDbEntity
  8
Capa_1
 62
7
100
AcDbLine
 10
11.836347
 20
16.419300
 30
0.0
 11
11.788367
 21
16.419300
 31
0.0
  0
LINE
  5
1d7
100
AcDbEntity
  8
Capa_1
 62
7
100
AcDbLine
 10
11.788367
 20
16.419300
 30
0.0
 11
11.740387
 21
16.419300
 31
0.0
  0
LINE
  5
1d8
100
AcDbEntity
  8
Capa_1
 62
7
100
AcDbLine
 10
11.740387
 20
16.419300
 30
0.0
 11
11.566732
 21
16.418770
 31
0.0
  0
LINE
  5
1d9
100
AcDbEntity
  8
Capa_1
 62
7
100
AcDbLine
 10
11.566732
 20
16.418770
 30
0.0
 11
11.430649
 21
16.414770
 31
0.0
  0
LINE
  5
1da
100
AcDbEntity
  8
Capa_1
 62
7
100
AcDbLine
 10
11.430649
 20
16.414770
 30
0.0
 11
11.325256
 21
16.404670
 31
0.0
  0
LINE
  5
1db
100
AcDbEntity
  8
Capa_1
 62
7
100
AcDbLine
 10
11.325256
 20
16.404670
 30
0.0
 11
11.243676
 21
16.385070
 31
0.0
  0
LINE
  5
1dc
100
AcDbEntity
  8
Capa_1
 62
7
100
AcDbLine
 10
11.243676
 20
16.385070
 30
0.0
 11
11.179026
 21
16.352770
 31
0.0
  0
LINE
  5
1dd
100
AcDbEntity
  8
Capa_1
 62
7
100
AcDbLine
 10
11.179026
 20
16.352770
 30
0.0
 11
11.124436
 21
16.304670
 31
0.0
  0
LINE
  5
1de
100
AcDbEntity
  8
Capa_1
 62
7
100
AcDbLine
 10
11.124436
 20
16.304670
 30
0.0
 11
11.073016
 21
16.237470
 31
0.0
  0
LINE
  5
1df
100
AcDbEntity
  8
Capa_1
 62
7
100
AcDbLine
 10
11.073016
 20
16.237470
 30
0.0
 11
11.017896
 21
16.148070
 31
0.0
  0
LINE
  5
1e0
100
AcDbEntity
  8
Capa_1
 62
7
100
AcDbLine
 10
11.017896
 20
16.148070
 30
0.0
 11
10.620536
 21
15.483220
 31
0.0
  0
LINE
  5
1e1
100
AcDbEntity
  8
Capa_1
 62
7
100
AcDbLine
 10
10.620536
 20
15.483220
 30
0.0
 11
9.697449
 21
13.911110
 31
0.0
  0
LINE
  5
1e2
100
AcDbEntity
  8
Capa_1
 62
7
100
AcDbLine
 10
9.697449
 20
13.911110
 30
0.0
 11
8.423524
 21
11.735220
 31
0.0
  0
LINE
  5
1e3
100
AcDbEntity
  8
Capa_1
 62
7
100
AcDbLine
 10
8.423524
 20
11.735220
 30
0.0
 11
6.973652
 21
9.259030
 31
0.0
  0
LINE
  5
1e4
100
AcDbEntity
  8
Capa_1
 62
7
100
AcDbLine
 10
6.973652
 20
9.259030
 30
0.0
 11
5.522721
 21
6.786010
 31
0.0
  0
LINE
  5
1e5
100
AcDbEntity
  8
Capa_1
 62
7
100
AcDbLine
 10
5.522721
 20
6.786010
 30
0.0
 11
4.245621
 21
4.619650
 31
0.0
  0
LINE
  5
1e6
100
AcDbEntity
  8
Capa_1
 62
7
100
AcDbLine
 10
4.245621
 20
4.619650
 30
0.0
 11
3.317242
 21
3.063410
 31
0.0
  0
LINE
  5
1e7
100
AcDbEntity
  8
Capa_1
 62
7
100
AcDbLine
 10
3.317242
 20
3.063410
 30
0.0
 11
2.912474
 21
2.420780
 31
0.0
  0
LINE
  5
1e8
100
AcDbEntity
  8
Capa_1
 62
7
100
AcDbLine
 10
2.912474
 20
2.420780
 30
0.0
 11
2.715359
 21
2.166690
 31
0.0
  0
LINE
  5
1e9
100
AcDbEntity
  8
Capa_1
 62
7
100
AcDbLine
 10
2.715359
 20
2.166690
 30
0.0
 11
2.495490
 21
1.945940
 31
0.0
  0
LINE
  5
1ea
100
AcDbEntity
  8
Capa_1
 62
7
100
AcDbLine
 10
2.495490
 20
1.945940
 30
0.0
 11
2.251280
 21
1.758000
 31
0.0
  0
LINE
  5
1eb
100
AcDbEntity
  8
Capa_1
 62
7
100
AcDbLine
 10
2.251280
 20
1.758000
 30
0.0
 11
1.981140
 21
1.602340
 31
0.0
  0
LINE
  5
1ec
100
AcDbEntity
  8
Capa_1
 62
7
100
AcDbLine
 10
1.981140
 20
1.602340
 30
0.0
 11
1.683484
 21
1.478420
 31
0.0
  0
LINE
  5
1ed
100
AcDbEntity
  8
Capa_1
 62
7
100
AcDbLine
 10
1.683484
 20
1.478420
 30
0.0
 11
1.356724
 21
1.385720
 31
0.0
  0
LINE
  5
1ee
100
AcDbEntity
  8
Capa_1
 62
7
100
AcDbLine
 10
1.356724
 20
1.385720
 30
0.0
 11
0.999272
 21
1.323720
 31
0.0
  0
LINE
  5
1ef
100
AcDbEntity
  8
Capa_1
 62
7
100
AcDbLine
 10
0.999272
 20
1.323720
 30
0.0
 11
0.609540
 21
1.291920
 31
0.0
  0
LINE
  5
1f0
100
AcDbEntity
  8
Capa_1
 62
7
100
AcDbLine
 10
0.609540
 20
1.291920
 30
0.0
 11
0.570030
 21
1.291920
 31
0.0
  0
LINE
  5
1f1
100
AcDbEntity
  8
Capa_1
 62
7
100
AcDbLine
 10
0.570030
 20
1.291920
 30
0.0
 11
0.530519
 21
1.291920
 31
0.0
  0
LINE
  5
1f2
100
AcDbEntity
  8
Capa_1
 62
7
100
AcDbLine
 10
0.530519
 20
1.291920
 30
0.0
 11
0.491009
 21
1.291920
 31
0.0
  0
LINE
  5
1f3
100
AcDbEntity
  8
Capa_1
 62
7
100
AcDbLine
 10
0.491009
 20
1.291920
 30
0.0
 11
0.451498
 21
1.291920
 31
0.0
  0
LINE
  5
1f4
100
AcDbEntity
  8
Capa_1
 62
7
100
AcDbLine
 10
0.451498
 20
1.291920
 30
0.0
 11
0.411987
 21
1.291920
 31
0.0
  0
LINE
  5
1f5
100
AcDbEntity
  8
Capa_1
 62
7
100
AcDbLine
 10
0.411987
 20
1.291920
 30
0.0
 11
0.372477
 21
1.291920
 31
0.0
  0
LINE
  5
1f6
100
AcDbEntity
  8
Capa_1
 62
7
100
AcDbLine
 10
0.372477
 20
1.291920
 30
0.0
 11
0.332966
 21
1.291920
 31
0.0
  0
LINE
  5
1f7
100
AcDbEntity
  8
Capa_1
 62
7
100
AcDbLine
 10
0.332966
 20
1.291920
 30
0.0
 11
0.293456
 21
1.291920
 31
0.0
  0
LINE
  5
1f8
100
AcDbEntity
  8
Capa_1
 62
7
100
AcDbLine
 10
0.293456
 20
1.291920
 30
0.0
 11
0.282167
 21
1.283920
 31
0.0
  0
LINE
  5
1f9
100
AcDbEntity
  8
Capa_1
 62
7
100
AcDbLine
 10
0.282167
 20
1.283920
 30
0.0
 11
0.270878
 21
1.275920
 31
0.0
  0
LINE
  5
1fa
100
AcDbEntity
  8
Capa_1
 62
7
100
AcDbLine
 10
0.270878
 20
1.275920
 30
0.0
 11
0.259589
 21
1.267920
 31
0.0
  0
LINE
  5
1fb
100
AcDbEntity
  8
Capa_1
 62
7
100
AcDbLine
 10
0.259589
 20
1.267920
 30
0.0
 11
0.248300
 21
1.259920
 31
0.0
  0
LINE
  5
1fc
100
AcDbEntity
  8
Capa_1
 62
7
100
AcDbLine
 10
0.248300
 20
1.259920
 30
0.0
 11
0.237011
 21
1.251920
 31
0.0
  0
LINE
  5
1fd
100
AcDbEntity
  8
Capa_1
 62
7
100
AcDbLine
 10
0.237011
 20
1.251920
 30
0.0
 11
0.225722
 21
1.243920
 31
0.0
  0
LINE
  5
1fe
100
AcDbEntity
  8
Capa_1
 62
7
100
AcDbLine
 10
0.225722
 20
1.243920
 30
0.0
 11
0.214433
 21
1.235920
 31
0.0
  0
LINE
  5
1ff
100
AcDbEntity
  8
Capa_1
 62
7
100
AcDbLine
 10
0.214433
 20
1.235920
 30
0.0
 11
0.203144
 21
1.227920
 31
0.0
  0
LINE
  5
200
100
AcDbEntity
  8
Capa_1
 62
7
100
AcDbLine
 10
0.203144
 20
1.227920
 30
0.0
 11
0.181449
 21
1.183020
 31
0.0
  0
LINE
  5
201
100
AcDbEntity
  8
Capa_1
 62
7
100
AcDbLine
 10
0.181449
 20
1.183020
 30
0.0
 11
0.152344
 21
1.105520
 31
0.0
  0
LINE
  5
202
100
AcDbEntity
  8
Capa_1
 62
7
100
AcDbLine
 10
0.152344
 20
1.105520
 30
0.0
 11
0.119007
 21
1.005290
 31
0.0
  0
LINE
  5
203
100
AcDbEntity
  8
Capa_1
 62
7
100
AcDbLine
 10
0.119007
 20
1.005290
 30
0.0
 11
0.084611
 21
0.892090
 31
0.0
  0
LINE
  5
204
100
AcDbEntity
  8
Capa_1
 62
7
100
AcDbLine
 10
0.084611
 20
0.892090
 30
0.0
 11
0.052388
 21
0.766980
 31
0.0
  0
LINE
  5
205
100
AcDbEntity
  8
Capa_1
 62
7
100
AcDbLine
 10
0.052388
 20
0.766980
 30
0.0
 11
0.025400
 21
0.657220
 31
0.0
  0
LINE
  5
206
100
AcDbEntity
  8
Capa_1
 62
7
100
AcDbLine
 10
0.025400
 20
0.657220
 30
0.0
 11
0.006879
 21
0.563870
 31
0.0
  0
LINE
  5
207
100
AcDbEntity
  8
Capa_1
 62
7
100
AcDbLine
 10
0.006879
 20
0.563870
 30
0.0
 11
0.000000
 21
0.496710
 31
0.0
  0
LINE
  5
208
100
AcDbEntity
  8
Capa_1
 62
7
100
AcDbLine
 10
0.000000
 20
0.496710
 30
0.0
 11
0.004013
 21
0.456410
 31
0.0
  0
LINE
  5
209
100
AcDbEntity
  8
Capa_1
 62
7
100
AcDbLine
 10
0.004013
 20
0.456410
 30
0.0
 11
0.015169
 21
0.419810
 31
0.0
  0
LINE
  5
20a
100
AcDbEntity
  8
Capa_1
 62
7
100
AcDbLine
 10
0.015169
 20
0.419810
 30
0.0
 11
0.032147
 21
0.386410
 31
0.0
  0
LINE
  5
20b
100
AcDbEntity
  8
Capa_1
 62
7
100
AcDbLine
 10
0.032147
 20
0.386410
 30
0.0
 11
0.053622
 21
0.355610
 31
0.0
  0
LINE
  5
20c
100
AcDbEntity
  8
Capa_1
 62
7
100
AcDbLine
 10
0.053622
 20
0.355610
 30
0.0
 11
0.078273
 21
0.326910
 31
0.0
  0
LINE
  5
20d
100
AcDbEntity
  8
Capa_1
 62
7
100
AcDbLine
 10
0.078273
 20
0.326910
 30
0.0
 11
0.104775
 21
0.299810
 31
0.0
  0
LINE
  5
20e
100
AcDbEntity
  8
Capa_1
 62
7
100
AcDbLine
 10
0.104775
 20
0.299810
 30
0.0
 11
0.131807
 21
0.273810
 31
0.0
  0
LINE
  5
20f
100
AcDbEntity
  8
Capa_1
 62
7
100
AcDbLine
 10
0.131807
 20
0.273810
 30
0.0
 11
0.158044
 21
0.248350
 31
0.0
  0
LINE
  5
210
100
AcDbEntity
  8
Capa_1
 62
7
100
AcDbLine
 10
10.859911
 20
6.118570
 30
0.0
 11
10.811841
 21
6.111570
 31
0.0
  0
LINE
  5
211
100
AcDbEntity
  8
Capa_1
 62
7
100
AcDbLine
 10
10.811841
 20
6.111570
 30
0.0
 11
10.674346
 21
6.105570
 31
0.0
  0
LINE
  5
212
100
AcDbEntity
  8
Capa_1
 62
7
100
AcDbLine
 10
10.674346
 20
6.105570
 30
0.0
 11
10.457476
 21
6.101570
 31
0.0
  0
LINE
  5
213
100
AcDbEntity
  8
Capa_1
 62
7
100
AcDbLine
 10
10.457476
 20
6.101570
 30
0.0
 11
10.171285
 21
6.098570
 31
0.0
  0
LINE
  5
214
100
AcDbEntity
  8
Capa_1
 62
7
100
AcDbLine
 10
10.171285
 20
6.098570
 30
0.0
 11
9.825827
 21
6.096570
 31
0.0
  0
LINE
  5
215
100
AcDbEntity
  8
Capa_1
 62
7
100
AcDbLine
 10
9.825827
 20
6.096570
 30
0.0
 11
9.431157
 21
6.095730
 31
0.0
  0
LINE
  5
216
100
AcDbEntity
  8
Capa_1
 62
7
100
AcDbLine
 10
9.431157
 20
6.095730
 30
0.0
 11
8.997329
 21
6.095420
 31
0.0
  0
LINE
  5
217
100
AcDbEntity
  8
Capa_1
 62
7
100
AcDbLine
 10
8.997329
 20
6.095420
 30
0.0
 11
8.534396
 21
6.095380
 31
0.0
  0
LINE
  5
218
100
AcDbEntity
  8
Capa_1
 62
7
100
AcDbLine
 10
8.534396
 20
6.095380
 30
0.0
 11
8.243707
 21
6.098380
 31
0.0
  0
LINE
  5
219
100
AcDbEntity
  8
Capa_1
 62
7
100
AcDbLine
 10
8.243707
 20
6.098380
 30
0.0
 11
7.953018
 21
6.101380
 31
0.0
  0
LINE
  5
21a
100
AcDbEntity
  8
Capa_1
 62
7
100
AcDbLine
 10
7.953018
 20
6.101380
 30
0.0
 11
7.662329
 21
6.104380
 31
0.0
  0
LINE
  5
21b
100
AcDbEntity
  8
Capa_1
 62
7
100
AcDbLine
 10
7.662329
 20
6.104380
 30
0.0
 11
7.371640
 21
6.107380
 31
0.0
  0
LINE
  5
21c
100
AcDbEntity
  8
Capa_1
 62
7
100
AcDbLine
 10
7.371640
 20
6.107380
 30
0.0
 11
7.080952
 21
6.110380
 31
0.0
  0
LINE
  5
21d
100
AcDbEntity
  8
Capa_1
 62
7
100
AcDbLine
 10
7.080952
 20
6.110380
 30
0.0
 11
6.790263
 21
6.113380
 31
0.0
  0
LINE
  5
21e
100
AcDbEntity
  8
Capa_1
 62
7
100
AcDbLine
 10
6.790263
 20
6.113380
 30
0.0
 11
6.499574
 21
6.116380
 31
0.0
  0
LINE
  5
21f
100
AcDbEntity
  8
Capa_1
 62
7
100
AcDbLine
 10
6.499574
 20
6.116380
 30
0.0
 11
6.208885
 21
6.119380
 31
0.0
  0
LINE
  5
220
100
AcDbEntity
  8
Capa_1
 62
7
100
AcDbLine
 10
6.208885
 20
6.119380
 30
0.0
 11
6.462885
 21
6.548360
 31
0.0
  0
LINE
  5
221
100
AcDbEntity
  8
Capa_1
 62
7
100
AcDbLine
 10
6.462885
 20
6.548360
 30
0.0
 11
6.716885
 21
6.977340
 31
0.0
  0
LINE
  5
222
100
AcDbEntity
  8
Capa_1
 62
7
100
AcDbLine
 10
6.716885
 20
6.977340
 30
0.0
 11
6.970885
 21
7.406320
 31
0.0
  0
LINE
  5
223
100
AcDbEntity
  8
Capa_1
 62
7
100
AcDbLine
 10
6.970885
 20
7.406320
 30
0.0
 11
7.224885
 21
7.835290
 31
0.0
  0
LINE
  5
224
100
AcDbEntity
  8
Capa_1
 62
7
100
AcDbLine
 10
7.224885
 20
7.835290
 30
0.0
 11
7.478885
 21
8.264270
 31
0.0
  0
LINE
  5
225
100
AcDbEntity
  8
Capa_1
 62
7
100
AcDbLine
 10
7.478885
 20
8.264270
 30
0.0
 11
7.732885
 21
8.693250
 31
0.0
  0
LINE
  5
226
100
AcDbEntity
  8
Capa_1
 62
7
100
AcDbLine
 10
7.732885
 20
8.693250
 30
0.0
 11
7.986885
 21
9.122230
 31
0.0
  0
LINE
  5
227
100
AcDbEntity
  8
Capa_1
 62
7
100
AcDbLine
 10
7.986885
 20
9.122230
 30
0.0
 11
8.240885
 21
9.551210
 31
0.0
  0
LINE
  5
228
100
AcDbEntity
  8
Capa_1
 62
7
100
AcDbLine
 10
8.240885
 20
9.551210
 30
0.0
 11
8.853263
 21
10.594060
 31
0.0
  0
LINE
  5
229
100
AcDbEntity
  8
Capa_1
 62
7
100
AcDbLine
 10
8.853263
 20
10.594060
 30
0.0
 11
9.329910
 21
11.404350
 31
0.0
  0
LINE
  5
22a
100
AcDbEntity
  8
Capa_1
 62
7
100
AcDbLine
 10
9.329910
 20
11.404350
 30
0.0
 11
9.687494
 21
12.009850
 31
0.0
  0
LINE
  5
22b
100
AcDbEntity
  8
Capa_1
 62
7
100
AcDbLine
 10
9.687494
 20
12.009850
 30
0.0
 11
9.942685
 21
12.438340
 31
0.0
  0
LINE
  5
22c
100
AcDbEntity
  8
Capa_1
 62
7
100
AcDbLine
 10
9.942685
 20
12.438340
 30
0.0
 11
10.112151
 21
12.717610
 31
0.0
  0
LINE
  5
22d
100
AcDbEntity
  8
Capa_1
 62
7
100
AcDbLine
 10
10.112151
 20
12.717610
 30
0.0
 11
10.212560
 21
12.875430
 31
0.0
  0
LINE
  5
22e
100
AcDbEntity
  8
Capa_1
 62
7
100
AcDbLine
 10
10.212560
 20
12.875430
 30
0.0
 11
10.260580
 21
12.939630
 31
0.0
  0
LINE
  5
22f
100
AcDbEntity
  8
Capa_1
 62
7
100
AcDbLine
 10
10.260580
 20
12.939630
 30
0.0
 11
10.272880
 21
12.937630
 31
0.0
  0
LINE
  5
230
100
AcDbEntity
  8
Capa_1
 62
7
100
AcDbLine
 10
10.272880
 20
12.937630
 30
0.0
 11
10.304590
 21
12.652980
 31
0.0
  0
LINE
  5
231
100
AcDbEntity
  8
Capa_1
 62
7
100
AcDbLine
 10
10.304590
 20
12.652980
 30
0.0
 11
10.374130
 21
11.913510
 31
0.0
  0
LINE
  5
232
100
AcDbEntity
  8
Capa_1
 62
7
100
AcDbLine
 10
10.374130
 20
11.913510
 30
0.0
 11
10.468540
 21
10.865540
 31
0.0
  0
LINE
  5
233
100
AcDbEntity
  8
Capa_1
 62
7
100
AcDbLine
 10
10.468540
 20
10.865540
 30
0.0
 11
10.574859
 21
9.655380
 31
0.0
  0
LINE
  5
234
100
AcDbEntity
  8
Capa_1
 62
7
100
AcDbLine
 10
10.574859
 20
9.655380
 30
0.0
 11
10.680118
 21
8.429350
 31
0.0
  0
LINE
  5
235
100
AcDbEntity
  8
Capa_1
 62
7
100
AcDbLine
 10
10.680118
 20
8.429350
 30
0.0
 11
10.771358
 21
7.333750
 31
0.0
  0
LINE
  5
236
100
AcDbEntity
  8
Capa_1
 62
7
100
AcDbLine
 10
10.771358
 20
7.333750
 30
0.0
 11
10.835608
 21
6.514910
 31
0.0
  0
LINE
  5
237
100
AcDbEntity
  8
Capa_1
 62
7
100
AcDbLine
 10
10.835608
 20
6.514910
 30
0.0
 11
10.859911
 21
6.118570
 31
0.0
  0
LINE
  5
238
100
AcDbEntity
  8
Capa_1
 62
7
100
AcDbLine
 10
18.807290
 20
3.860800
 30
0.0
 11
18.504386
 21
3.828900
 31
0.0
  0
LINE
  5
239
100
AcDbEntity
  8
Capa_1
 62
7
100
AcDbLine
 10
18.504386
 20
3.828900
 30
0.0
 11
18.225559
 21
3.736700
 31
0.0
  0
LINE
  5
23a
100
AcDbEntity
  8
Capa_1
 62
7
100
AcDbLine
 10
18.225559
 20
3.736700
 30
0.0
 11
17.975837
 21
3.589420
 31
0.0
  0
LINE
  5
23b
100
AcDbEntity
  8
Capa_1
 62
7
100
AcDbLine
 10
17.975837
 20
3.589420
 30
0.0
 11
17.760245
 21
3.392390
 31
0.0
  0
LINE
  5
23c
100
AcDbEntity
  8
Capa_1
 62
7
100
AcDbLine
 10
17.760245
 20
3.392390
 30
0.0
 11
17.583812
 21
3.150910
 31
0.0
  0
LINE
  5
23d
100
AcDbEntity
  8
Capa_1
 62
7
100
AcDbLine
 10
17.583812
 20
3.150910
 30
0.0
 11
17.451565
 21
2.870280
 31
0.0
  0
LINE
  5
23e
100
AcDbEntity
  8
Capa_1
 62
7
100
AcDbLine
 10
17.451565
 20
2.870280
 30
0.0
 11
17.368525
 21
2.555780
 31
0.0
  0
LINE
  5
23f
100
AcDbEntity
  8
Capa_1
 62
7
100
AcDbLine
 10
17.368525
 20
2.555780
 30
0.0
 11
17.339735
 21
2.212700
 31
0.0
  0
LINE
  5
240
100
AcDbEntity
  8
Capa_1
 62
7
100
AcDbLine
 10
17.339735
 20
2.212700
 30
0.0
 11
17.340935
 21
2.087070
 31
0.0
  0
LINE
  5
241
100
AcDbEntity
  8
Capa_1
 62
7
100
AcDbLine
 10
17.340935
 20
2.087070
 30
0.0
 11
17.345335
 21
1.978100
 31
0.0
  0
LINE
  5
242
100
AcDbEntity
  8
Capa_1
 62
7
100
AcDbLine
 10
17.345335
 20
1.978100
 30
0.0
 11
17.353935
 21
1.881300
 31
0.0
  0
LINE
  5
243
100
AcDbEntity
  8
Capa_1
 62
7
100
AcDbLine
 10
17.353935
 20
1.881300
 30
0.0
 11
17.367875
 21
1.792200
 31
0.0
  0
LINE
  5
244
100
AcDbEntity
  8
Capa_1
 62
7
100
AcDbLine
 10
17.367875
 20
1.792200
 30
0.0
 11
17.388165
 21
1.706300
 31
0.0
  0
LINE
  5
245
100
AcDbEntity
  8
Capa_1
 62
7
100
AcDbLine
 10
17.388165
 20
1.706300
 30
0.0
 11
17.415855
 21
1.619000
 31
0.0
  0
LINE
  5
246
100
AcDbEntity
  8
Capa_1
 62
7
100
AcDbLine
 10
17.415855
 20
1.619000
 30
0.0
 11
17.452015
 21
1.525900
 31
0.0
  0
LINE
  5
247
100
AcDbEntity
  8
Capa_1
 62
7
100
AcDbLine
 10
17.452015
 20
1.525900
 30
0.0
 11
17.497695
 21
1.422490
 31
0.0
  0
LINE
  5
248
100
AcDbEntity
  8
Capa_1
 62
7
100
AcDbLine
 10
17.497695
 20
1.422490
 30
0.0
 11
17.674966
 21
1.116010
 31
0.0
  0
LINE
  5
249
100
AcDbEntity
  8
Capa_1
 62
7
100
AcDbLine
 10
17.674966
 20
1.116010
 30
0.0
 11
17.916795
 21
0.841810
 31
0.0
  0
LINE
  5
24a
100
AcDbEntity
  8
Capa_1
 62
7
100
AcDbLine
 10
17.916795
 20
0.841810
 30
0.0
 11
18.220007
 21
0.602540
 31
0.0
  0
LINE
  5
24b
100
AcDbEntity
  8
Capa_1
 62
7
100
AcDbLine
 10
18.220007
 20
0.602540
 30
0.0
 11
18.581428
 21
0.400840
 31
0.0
  0
LINE
  5
24c
100
AcDbEntity
  8
Capa_1
 62
7
100
AcDbLine
 10
18.581428
 20
0.400840
 30
0.0
 11
18.997882
 21
0.239360
 31
0.0
  0
LINE
  5
24d
100
AcDbEntity
  8
Capa_1
 62
7
100
AcDbLine
 10
18.997882
 20
0.239360
 30
0.0
 11
19.466195
 21
0.120730
 31
0.0
  0
LINE
  5
24e
100
AcDbEntity
  8
Capa_1
 62
7
100
AcDbLine
 10
19.466195
 20
0.120730
 30
0.0
 11
19.983191
 21
0.047630
 31
0.0
  0
LINE
  5
24f
100
AcDbEntity
  8
Capa_1
 62
7
100
AcDbLine
 10
19.983191
 20
0.047630
 30
0.0
 11
20.545695
 21
0.022630
 31
0.0
  0
LINE
  5
250
100
AcDbEntity
  8
Capa_1
 62
7
100
AcDbLine
 10
20.545695
 20
0.022630
 30
0.0
 11
21.298346
 21
0.062330
 31
0.0
  0
LINE
  5
251
100
AcDbEntity
  8
Capa_1
 62
7
100
AcDbLine
 10
21.298346
 20
0.062330
 30
0.0
 11
21.982206
 21
0.179270
 31
0.0
  0
LINE
  5
252
100
AcDbEntity
  8
Capa_1
 62
7
100
AcDbLine
 10
21.982206
 20
0.179270
 30
0.0
 11
22.598332
 21
0.370300
 31
0.0
  0
LINE
  5
253
100
AcDbEntity
  8
Capa_1
 62
7
100
AcDbLine
 10
22.598332
 20
0.370300
 30
0.0
 11
23.147784
 21
0.632240
 31
0.0
  0
LINE
  5
254
100
AcDbEntity
  8
Capa_1
 62
7
100
AcDbLine
 10
23.147784
 20
0.632240
 30
0.0
 11
23.631618
 21
0.961910
 31
0.0
  0
LINE
  5
255
100
AcDbEntity
  8
Capa_1
 62
7
100
AcDbLine
 10
23.631618
 20
0.961910
 30
0.0
 11
24.050895
 21
1.356140
 31
0.0
  0
LINE
  5
256
100
AcDbEntity
  8
Capa_1
 62
7
100
AcDbLine
 10
24.050895
 20
1.356140
 30
0.0
 11
24.406671
 21
1.811760
 31
0.0
  0
LINE
  5
257
100
AcDbEntity
  8
Capa_1
 62
7
100
AcDbLine
 10
24.406671
 20
1.811760
 30
0.0
 11
24.700006
 21
2.325580
 31
0.0
  0
LINE
  5
258
100
AcDbEntity
  8
Capa_1
 62
7
100
AcDbLine
 10
24.700006
 20
2.325580
 30
0.0
 11
24.787806
 21
2.520400
 31
0.0
  0
LINE
  5
259
100
AcDbEntity
  8
Capa_1
 62
7
100
AcDbLine
 10
24.787806
 20
2.520400
 30
0.0
 11
24.864756
 21
2.703050
 31
0.0
  0
LINE
  5
25a
100
AcDbEntity
  8
Capa_1
 62
7
100
AcDbLine
 10
24.864756
 20
2.703050
 30
0.0
 11
24.930596
 21
2.880410
 31
0.0
  0
LINE
  5
25b
100
AcDbEntity
  8
Capa_1
 62
7
100
AcDbLine
 10
24.930596
 20
2.880410
 30
0.0
 11
24.985056
 21
3.059350
 31
0.0
  0
LINE
  5
25c
100
AcDbEntity
  8
Capa_1
 62
7
100
AcDbLine
 10
24.985056
 20
3.059350
 30
0.0
 11
25.027876
 21
3.246770
 31
0.0
  0
LINE
  5
25d
100
AcDbEntity
  8
Capa_1
 62
7
100
AcDbLine
 10
25.027876
 20
3.246770
 30
0.0
 11
25.058786
 21
3.449530
 31
0.0
  0
LINE
  5
25e
100
AcDbEntity
  8
Capa_1
 62
7
100
AcDbLine
 10
25.058786
 20
3.449530
 30
0.0
 11
25.077526
 21
3.674510
 31
0.0
  0
LINE
  5
25f
100
AcDbEntity
  8
Capa_1
 62
7
100
AcDbLine
 10
25.077526
 20
3.674510
 30
0.0
 11
25.083826
 21
3.928600
 31
0.0
  0
LINE
  5
260
100
AcDbEntity
  8
Capa_1
 62
7
100
AcDbLine
 10
25.083826
 20
3.928600
 30
0.0
 11
25.076326
 21
4.037170
 31
0.0
  0
LINE
  5
261
100
AcDbEntity
  8
Capa_1
 62
7
100
AcDbLine
 10
25.076326
 20
4.037170
 30
0.0
 11
25.070126
 21
4.128270
 31
0.0
  0
LINE
  5
262
100
AcDbEntity
  8
Capa_1
 62
7
100
AcDbLine
 10
25.070126
 20
4.128270
 30
0.0
 11
25.064426
 21
4.205670
 31
0.0
  0
LINE
  5
263
100
AcDbEntity
  8
Capa_1
 62
7
100
AcDbLine
 10
25.064426
 20
4.205670
 30
0.0
 11
25.058426
 21
4.272970
 31
0.0
  0
LINE
  5
264
100
AcDbEntity
  8
Capa_1
 62
7
100
AcDbLine
 10
25.058426
 20
4.272970
 30
0.0
 11
25.051426
 21
4.333870
 31
0.0
  0
LINE
  5
265
100
AcDbEntity
  8
Capa_1
 62
7
100
AcDbLine
 10
25.051426
 20
4.333870
 30
0.0
 11
25.042526
 21
4.392170
 31
0.0
  0
LINE
  5
266
100
AcDbEntity
  8
Capa_1
 62
7
100
AcDbLine
 10
25.042526
 20
4.392170
 30
0.0
 11
25.031016
 21
4.451470
 31
0.0
  0
LINE
  5
267
100
AcDbEntity
  8
Capa_1
 62
7
100
AcDbLine
 10
25.031016
 20
4.451470
 30
0.0
 11
25.016066
 21
4.515570
 31
0.0
  0
LINE
  5
268
100
AcDbEntity
  8
Capa_1
 62
7
100
AcDbLine
 10
25.016066
 20
4.515570
 30
0.0
 11
24.919756
 21
4.771470
 31
0.0
  0
LINE
  5
269
100
AcDbEntity
  8
Capa_1
 62
7
100
AcDbLine
 10
24.919756
 20
4.771470
 30
0.0
 11
24.800164
 21
5.013340
 31
0.0
  0
LINE
  5
26a
100
AcDbEntity
  8
Capa_1
 62
7
100
AcDbLine
 10
24.800164
 20
5.013340
 30
0.0
 11
24.657289
 21
5.239870
 31
0.0
  0
LINE
  5
26b
100
AcDbEntity
  8
Capa_1
 62
7
100
AcDbLine
 10
24.657289
 20
5.239870
 30
0.0
 11
24.491131
 21
5.449730
 31
0.0
  0
LINE
  5
26c
100
AcDbEntity
  8
Capa_1
 62
7
100
AcDbLine
 10
24.491131
 20
5.449730
 30
0.0
 11
24.301689
 21
5.641600
 31
0.0
  0
LINE
  5
26d
100
AcDbEntity
  8
Capa_1
 62
7
100
AcDbLine
 10
24.301689
 20
5.641600
 30
0.0
 11
24.088964
 21
5.814150
 31
0.0
  0
LINE
  5
26e
100
AcDbEntity
  8
Capa_1
 62
7
100
AcDbLine
 10
24.088964
 20
5.814150
 30
0.0
 11
23.852956
 21
5.966060
 31
0.0
  0
LINE
  5
26f
100
AcDbEntity
  8
Capa_1
 62
7
100
AcDbLine
 10
23.852956
 20
5.966060
 30
0.0
 11
23.593664
 21
6.096020
 31
0.0
  0
LINE
  5
270
100
AcDbEntity
  8
Capa_1
 62
7
100
AcDbLine
 10
23.593664
 20
6.096020
 30
0.0
 11
23.478967
 21
6.150520
 31
0.0
  0
LINE
  5
271
100
AcDbEntity
  8
Capa_1
 62
7
100
AcDbLine
 10
23.478967
 20
6.150520
 30
0.0
 11
23.366122
 21
6.197320
 31
0.0
  0
LINE
  5
272
100
AcDbEntity
  8
Capa_1
 62
7
100
AcDbLine
 10
23.366122
 20
6.197320
 30
0.0
 11
23.246398
 21
6.239320
 31
0.0
  0
LINE
  5
273
100
AcDbEntity
  8
Capa_1
 62
7
100
AcDbLine
 10
23.246398
 20
6.239320
 30
0.0
 11
23.111064
 21
6.279520
 31
0.0
  0
LINE
  5
274
100
AcDbEntity
  8
Capa_1
 62
7
100
AcDbLine
 10
23.111064
 20
6.279520
 30
0.0
 11
22.951388
 21
6.320720
 31
0.0
  0
LINE
  5
275
100
AcDbEntity
  8
Capa_1
 62
7
100
AcDbLine
 10
22.951388
 20
6.320720
 30
0.0
 11
22.758639
 21
6.365920
 31
0.0
  0
LINE
  5
276
100
AcDbEntity
  8
Capa_1
 62
7
100
AcDbLine
 10
22.758639
 20
6.365920
 30
0.0
 11
22.524086
 21
6.418020
 31
0.0
  0
LINE
  5
277
100
AcDbEntity
  8
Capa_1
 62
7
100
AcDbLine
 10
22.524086
 20
6.418020
 30
0.0
 11
22.238997
 21
6.479920
 31
0.0
  0
LINE
  5
278
100
AcDbEntity
  8
Capa_1
 62
7
100
AcDbLine
 10
22.238997
 20
6.479920
 30
0.0
 11
21.965418
 21
6.540920
 31
0.0
  0
LINE
  5
279
100
AcDbEntity
  8
Capa_1
 62
7
100
AcDbLine
 10
21.965418
 20
6.540920
 30
0.0
 11
21.747930
 21
6.591020
 31
0.0
  0
LINE
  5
27a
100
AcDbEntity
  8
Capa_1
 62
7
100
AcDbLine
 10
21.747930
 20
6.591020
 30
0.0
 11
21.577009
 21
6.634320
 31
0.0
  0
LINE
  5
27b
100
AcDbEntity
  8
Capa_1
 62
7
100
AcDbLine
 10
21.577009
 20
6.634320
 30
0.0
 11
21.443130
 21
6.674620
 31
0.0
  0
LINE
  5
27c
100
AcDbEntity
  8
Capa_1
 62
7
100
AcDbLine
 10
21.443130
 20
6.674620
 30
0.0
 11
21.336768
 21
6.716020
 31
0.0
  0
LINE
  5
27d
100
AcDbEntity
  8
Capa_1
 62
7
100
AcDbLine
 10
21.336768
 20
6.716020
 30
0.0
 11
21.248398
 21
6.762420
 31
0.0
  0
LINE
  5
27e
100
AcDbEntity
  8
Capa_1
 62
7
100
AcDbLine
 10
21.248398
 20
6.762420
 30
0.0
 11
21.168498
 21
6.817820
 31
0.0
  0
LINE
  5
27f
100
AcDbEntity
  8
Capa_1
 62
7
100
AcDbLine
 10
21.168498
 20
6.817820
 30
0.0
 11
21.087538
 21
6.886220
 31
0.0
  0
LINE
  5
280
100
AcDbEntity
  8
Capa_1
 62
7
100
AcDbLine
 10
21.087538
 20
6.886220
 30
0.0
 11
21.008158
 21
6.962620
 31
0.0
  0
LINE
  5
281
100
AcDbEntity
  8
Capa_1
 62
7
100
AcDbLine
 10
21.008158
 20
6.962620
 30
0.0
 11
20.939368
 21
7.040320
 31
0.0
  0
LINE
  5
282
100
AcDbEntity
  8
Capa_1
 62
7
100
AcDbLine
 10
20.939368
 20
7.040320
 30
0.0
 11
20.881158
 21
7.120720
 31
0.0
  0
LINE
  5
283
100
AcDbEntity
  8
Capa_1
 62
7
100
AcDbLine
 10
20.881158
 20
7.120720
 30
0.0
 11
20.833528
 21
7.205120
 31
0.0
  0
LINE
  5
284
100
AcDbEntity
  8
Capa_1
 62
7
100
AcDbLine
 10
20.833528
 20
7.205120
 30
0.0
 11
20.796488
 21
7.294820
 31
0.0
  0
LINE
  5
285
100
AcDbEntity
  8
Capa_1
 62
7
100
AcDbLine
 10
20.796488
 20
7.294820
 30
0.0
 11
20.770028
 21
7.391120
 31
0.0
  0
LINE
  5
286
100
AcDbEntity
  8
Capa_1
 62
7
100
AcDbLine
 10
20.770028
 20
7.391120
 30
0.0
 11
20.754148
 21
7.495320
 31
0.0
  0
LINE
  5
287
100
AcDbEntity
  8
Capa_1
 62
7
100
AcDbLine
 10
20.754148
 20
7.495320
 30
0.0
 11
20.748848
 21
7.608780
 31
0.0
  0
LINE
  5
288
100
AcDbEntity
  8
Capa_1
 62
7
100
AcDbLine
 10
20.748848
 20
7.608780
 30
0.0
 11
20.791838
 21
7.990090
 31
0.0
  0
LINE
  5
289
100
AcDbEntity
  8
Capa_1
 62
7
100
AcDbLine
 10
20.791838
 20
7.990090
 30
0.0
 11
20.915001
 21
8.335150
 31
0.0
  0
LINE
  5
28a
100
AcDbEntity
  8
Capa_1
 62
7
100
AcDbLine
 10
20.915001
 20
8.335150
 30
0.0
 11
21.109602
 21
8.639460
 31
0.0
  0
LINE
  5
28b
100
AcDbEntity
  8
Capa_1
 62
7
100
AcDbLine
 10
21.109602
 20
8.639460
 30
0.0
 11
21.366909
 21
8.898530
 31
0.0
  0
LINE
  5
28c
100
AcDbEntity
  8
Capa_1
 62
7
100
AcDbLine
 10
21.366909
 20
8.898530
 30
0.0
 11
21.678192
 21
9.107860
 31
0.0
  0
LINE
  5
28d
100
AcDbEntity
  8
Capa_1
 62
7
100
AcDbLine
 10
21.678192
 20
9.107860
 30
0.0
 11
22.034718
 21
9.262950
 31
0.0
  0
LINE
  5
28e
100
AcDbEntity
  8
Capa_1
 62
7
100
AcDbLine
 10
22.034718
 20
9.262950
 30
0.0
 11
22.427756
 21
9.359350
 31
0.0
  0
LINE
  5
28f
100
AcDbEntity
  8
Capa_1
 62
7
100
AcDbLine
 10
22.427756
 20
9.359350
 30
0.0
 11
22.848576
 21
9.392450
 31
0.0
  0
LINE
  5
290
100
AcDbEntity
  8
Capa_1
 62
7
100
AcDbLine
 10
22.848576
 20
9.392450
 30
0.0
 11
23.184200
 21
9.371850
 31
0.0
  0
LINE
  5
291
100
AcDbEntity
  8
Capa_1
 62
7
100
AcDbLine
 10
23.184200
 20
9.371850
 30
0.0
 11
23.493101
 21
9.316550
 31
0.0
  0
LINE
  5
292
100
AcDbEntity
  8
Capa_1
 62
7
100
AcDbLine
 10
23.493101
 20
9.316550
 30
0.0
 11
23.769723
 21
9.236450
 31
0.0
  0
LINE
  5
293
100
AcDbEntity
  8
Capa_1
 62
7
100
AcDbLine
 10
23.769723
 20
9.236450
 30
0.0
 11
24.008509
 21
9.141250
 31
0.0
  0
LINE
  5
294
100
AcDbEntity
  8
Capa_1
 62
7
100
AcDbLine
 10
24.008509
 20
9.141250
 30
0.0
 11
24.203904
 21
9.040760
 31
0.0
  0
LINE
  5
295
100
AcDbEntity
  8
Capa_1
 62
7
100
AcDbLine
 10
24.203904
 20
9.040760
 30
0.0
 11
24.350351
 21
8.944760
 31
0.0
  0
LINE
  5
296
100
AcDbEntity
  8
Capa_1
 62
7
100
AcDbLine
 10
24.350351
 20
8.944760
 30
0.0
 11
24.442291
 21
8.863060
 31
0.0
  0
LINE
  5
297
100
AcDbEntity
  8
Capa_1
 62
7
100
AcDbLine
 10
24.442291
 20
8.863060
 30
0.0
 11
24.474171
 21
8.805460
 31
0.0
  0
LINE
  5
298
100
AcDbEntity
  8
Capa_1
 62
7
100
AcDbLine
 10
24.474171
 20
8.805460
 30
0.0
 11
24.474083
 21
8.798460
 31
0.0
  0
LINE
  5
299
100
AcDbEntity
  8
Capa_1
 62
7
100
AcDbLine
 10
24.474083
 20
8.798460
 30
0.0
 11
24.473465
 21
8.792460
 31
0.0
  0
LINE
  5
29a
100
AcDbEntity
  8
Capa_1
 62
7
100
AcDbLine
 10
24.473465
 20
8.792460
 30
0.0
 11
24.471765
 21
8.788460
 31
0.0
  0
LINE
  5
29b
100
AcDbEntity
  8
Capa_1
 62
7
100
AcDbLine
 10
24.471765
 20
8.788460
 30
0.0
 11
24.468465
 21
8.785460
 31
0.0
  0
LINE
  5
29c
100
AcDbEntity
  8
Capa_1
 62
7
100
AcDbLine
 10
24.468465
 20
8.785460
 30
0.0
 11
24.463065
 21
8.783460
 31
0.0
  0
LINE
  5
29d
100
AcDbEntity
  8
Capa_1
 62
7
100
AcDbLine
 10
24.463065
 20
8.783460
 30
0.0
 11
24.455065
 21
8.782620
 31
0.0
  0
LINE
  5
29e
100
AcDbEntity
  8
Capa_1
 62
7
100
AcDbLine
 10
24.455065
 20
8.782620
 30
0.0
 11
24.443865
 21
8.782310
 31
0.0
  0
LINE
  5
29f
100
AcDbEntity
  8
Capa_1
 62
7
100
AcDbLine
 10
24.443865
 20
8.782310
 30
0.0
 11
24.428955
 21
8.782270
 31
0.0
  0
LINE
  5
2a0
100
AcDbEntity
  8
Capa_1
 62
7
100
AcDbLine
 10
24.428955
 20
8.782270
 30
0.0
 11
24.417445
 21
8.780270
 31
0.0
  0
LINE
  5
2a1
100
AcDbEntity
  8
Capa_1
 62
7
100
AcDbLine
 10
24.417445
 20
8.780270
 30
0.0
 11
24.400375
 21
8.774270
 31
0.0
  0
LINE
  5
2a2
100
AcDbEntity
  8
Capa_1
 62
7
100
AcDbLine
 10
24.400375
 20
8.774270
 30
0.0
 11
24.378545
 21
8.765270
 31
0.0
  0
LINE
  5
2a3
100
AcDbEntity
  8
Capa_1
 62
7
100
AcDbLine
 10
24.378545
 20
8.765270
 30
0.0
 11
24.352745
 21
8.753670
 31
0.0
  0
LINE
  5
2a4
100
AcDbEntity
  8
Capa_1
 62
7
100
AcDbLine
 10
24.352745
 20
8.753670
 30
0.0
 11
24.323775
 21
8.739970
 31
0.0
  0
LINE
  5
2a5
100
AcDbEntity
  8
Capa_1
 62
7
100
AcDbLine
 10
24.323775
 20
8.739970
 30
0.0
 11
24.292425
 21
8.724770
 31
0.0
  0
LINE
  5
2a6
100
AcDbEntity
  8
Capa_1
 62
7
100
AcDbLine
 10
24.292425
 20
8.724770
 30
0.0
 11
24.259485
 21
8.708470
 31
0.0
  0
LINE
  5
2a7
100
AcDbEntity
  8
Capa_1
 62
7
100
AcDbLine
 10
24.259485
 20
8.708470
 30
0.0
 11
24.225755
 21
8.691670
 31
0.0
  0
LINE
  5
2a8
100
AcDbEntity
  8
Capa_1
 62
7
100
AcDbLine
 10
24.225755
 20
8.691670
 30
0.0
 11
24.079970
 21
8.605270
 31
0.0
  0
LINE
  5
2a9
100
AcDbEntity
  8
Capa_1
 62
7
100
AcDbLine
 10
24.079970
 20
8.605270
 30
0.0
 11
23.948472
 21
8.500100
 31
0.0
  0
LINE
  5
2aa
100
AcDbEntity
  8
Capa_1
 62
7
100
AcDbLine
 10
23.948472
 20
8.500100
 30
0.0
 11
23.832849
 21
8.378530
 31
0.0
  0
LINE
  5
2ab
100
AcDbEntity
  8
Capa_1
 62
7
100
AcDbLine
 10
23.832849
 20
8.378530
 30
0.0
 11
23.734689
 21
8.242930
 31
0.0
  0
LINE
  5
2ac
100
AcDbEntity
  8
Capa_1
 62
7
100
AcDbLine
 10
23.734689
 20
8.242930
 30
0.0
 11
23.655579
 21
8.095690
 31
0.0
  0
LINE
  5
2ad
100
AcDbEntity
  8
Capa_1
 62
7
100
AcDbLine
 10
23.655579
 20
8.095690
 30
0.0
 11
23.597109
 21
7.939190
 31
0.0
  0
LINE
  5
2ae
100
AcDbEntity
  8
Capa_1
 62
7
100
AcDbLine
 10
23.597109
 20
7.939190
 30
0.0
 11
23.560859
 21
7.775810
 31
0.0
  0
LINE
  5
2af
100
AcDbEntity
  8
Capa_1
 62
7
100
AcDbLine
 10
23.560859
 20
7.775810
 30
0.0
 11
23.548429
 21
7.607930
 31
0.0
  0
LINE
  5
2b0
100
AcDbEntity
  8
Capa_1
 62
7
100
AcDbLine
 10
23.548429
 20
7.607930
 30
0.0
 11
23.563909
 21
7.438810
 31
0.0
  0
LINE
  5
2b1
100
AcDbEntity
  8
Capa_1
 62
7
100
AcDbLine
 10
23.563909
 20
7.438810
 30
0.0
 11
23.608759
 21
7.287960
 31
0.0
  0
LINE
  5
2b2
100
AcDbEntity
  8
Capa_1
 62
7
100
AcDbLine
 10
23.608759
 20
7.287960
 30
0.0
 11
23.680589
 21
7.156680
 31
0.0
  0
LINE
  5
2b3
100
AcDbEntity
  8
Capa_1
 62
7
100
AcDbLine
 10
23.680589
 20
7.156680
 30
0.0
 11
23.777029
 21
7.046300
 31
0.0
  0
LINE
  5
2b4
100
AcDbEntity
  8
Capa_1
 62
7
100
AcDbLine
 10
23.777029
 20
7.046300
 30
0.0
 11
23.895695
 21
6.958100
 31
0.0
  0
LINE
  5
2b5
100
AcDbEntity
  8
Capa_1
 62
7
100
AcDbLine
 10
23.895695
 20
6.958100
 30
0.0
 11
24.034204
 21
6.893500
 31
0.0
  0
LINE
  5
2b6
100
AcDbEntity
  8
Capa_1
 62
7
100
AcDbLine
 10
24.034204
 20
6.893500
 30
0.0
 11
24.190176
 21
6.853800
 31
0.0
  0
LINE
  5
2b7
100
AcDbEntity
  8
Capa_1
 62
7
100
AcDbLine
 10
24.190176
 20
6.853800
 30
0.0
 11
24.361229
 21
6.840300
 31
0.0
  0
LINE
  5
2b8
100
AcDbEntity
  8
Capa_1
 62
7
100
AcDbLine
 10
24.361229
 20
6.840300
 30
0.0
 11
24.634985
 21
6.868100
 31
0.0
  0
LINE
  5
2b9
100
AcDbEntity
  8
Capa_1
 62
7
100
AcDbLine
 10
24.634985
 20
6.868100
 30
0.0
 11
24.879107
 21
6.948300
 31
0.0
  0
LINE
  5
2ba
100
AcDbEntity
  8
Capa_1
 62
7
100
AcDbLine
 10
24.879107
 20
6.948300
 30
0.0
 11
25.091479
 21
7.076090
 31
0.0
  0
LINE
  5
2bb
100
AcDbEntity
  8
Capa_1
 62
7
100
AcDbLine
 10
25.091479
 20
7.076090
 30
0.0
 11
25.269985
 21
7.246750
 31
0.0
  0
LINE
  5
2bc
100
AcDbEntity
  8
Capa_1
 62
7
100
AcDbLine
 10
25.269985
 20
7.246750
 30
0.0
 11
25.412507
 21
7.455510
 31
0.0
  0
LINE
  5
2bd
100
AcDbEntity
  8
Capa_1
 62
7
100
AcDbLine
 10
25.412507
 20
7.455510
 30
0.0
 11
25.516929
 21
7.697600
 31
0.0
  0
LINE
  5
2be
100
AcDbEntity
  8
Capa_1
 62
7
100
AcDbLine
 10
25.516929
 20
7.697600
 30
0.0
 11
25.581139
 21
7.968270
 31
0.0
  0
LINE
  5
2bf
100
AcDbEntity
  8
Capa_1
 62
7
100
AcDbLine
 10
25.581139
 20
7.968270
 30
0.0
 11
25.603009
 21
8.262750
 31
0.0
  0
LINE
  5
2c0
100
AcDbEntity
  8
Capa_1
 62
7
100
AcDbLine
 10
25.603009
 20
8.262750
 30
0.0
 11
25.602921
 21
8.321950
 31
0.0
  0
LINE
  5
2c1
100
AcDbEntity
  8
Capa_1
 62
7
100
AcDbLine
 10
25.602921
 20
8.321950
 30
0.0
 11
25.602303
 21
8.380650
 31
0.0
  0
LINE
  5
2c2
100
AcDbEntity
  8
Capa_1
 62
7
100
AcDbLine
 10
25.602303
 20
8.380650
 30
0.0
 11
25.600603
 21
8.438250
 31
0.0
  0
LINE
  5
2c3
100
AcDbEntity
  8
Capa_1
 62
7
100
AcDbLine
 10
25.600603
 20
8.438250
 30
0.0
 11
25.597303
 21
8.494250
 31
0.0
  0
LINE
  5
2c4
100
AcDbEntity
  8
Capa_1
 62
7
100
AcDbLine
 10
25.597303
 20
8.494250
 30
0.0
 11
25.591903
 21
8.548150
 31
0.0
  0
LINE
  5
2c5
100
AcDbEntity
  8
Capa_1
 62
7
100
AcDbLine
 10
25.591903
 20
8.548150
 30
0.0
 11
25.583903
 21
8.599350
 31
0.0
  0
LINE
  5
2c6
100
AcDbEntity
  8
Capa_1
 62
7
100
AcDbLine
 10
25.583903
 20
8.599350
 30
0.0
 11
25.572703
 21
8.647450
 31
0.0
  0
LINE
  5
2c7
100
AcDbEntity
  8
Capa_1
 62
7
100
AcDbLine
 10
25.572703
 20
8.647450
 30
0.0
 11
25.557793
 21
8.691850
 31
0.0
  0
LINE
  5
2c8
100
AcDbEntity
  8
Capa_1
 62
7
100
AcDbLine
 10
25.557793
 20
8.691850
 30
0.0
 11
25.418358
 21
9.049520
 31
0.0
  0
LINE
  5
2c9
100
AcDbEntity
  8
Capa_1
 62
7
100
AcDbLine
 10
25.418358
 20
9.049520
 30
0.0
 11
25.221243
 21
9.360360
 31
0.0
  0
LINE
  5
2ca
100
AcDbEntity
  8
Capa_1
 62
7
100
AcDbLine
 10
25.221243
 20
9.360360
 30
0.0
 11
24.968037
 21
9.624110
 31
0.0
  0
LINE
  5
2cb
100
AcDbEntity
  8
Capa_1
 62
7
100
AcDbLine
 10
24.968037
 20
9.624110
 30
0.0
 11
24.660326
 21
9.840490
 31
0.0
  0
LINE
  5
2cc
100
AcDbEntity
  8
Capa_1
 62
7
100
AcDbLine
 10
24.660326
 20
9.840490
 30
0.0
 11
24.299699
 21
10.009260
 31
0.0
  0
LINE
  5
2cd
100
AcDbEntity
  8
Capa_1
 62
7
100
AcDbLine
 10
24.299699
 20
10.009260
 30
0.0
 11
23.887743
 21
10.130130
 31
0.0
  0
LINE
  5
2ce
100
AcDbEntity
  8
Capa_1
 62
7
100
AcDbLine
 10
23.887743
 20
10.130130
 30
0.0
 11
23.426045
 21
10.202830
 31
0.0
  0
LINE
  5
2cf
100
AcDbEntity
  8
Capa_1
 62
7
100
AcDbLine
 10
23.426045
 20
10.202830
 30
0.0
 11
22.916193
 21
10.227130
 31
0.0
  0
LINE
  5
2d0
100
AcDbEntity
  8
Capa_1
 62
7
100
AcDbLine
 10
22.916193
 20
10.227130
 30
0.0
 11
22.448454
 21
10.206330
 31
0.0
  0
LINE
  5
2d1
100
AcDbEntity
  8
Capa_1
 62
7
100
AcDbLine
 10
22.448454
 20
10.206330
 30
0.0
 11
22.010613
 21
10.145330
 31
0.0
  0
LINE
  5
2d2
100
AcDbEntity
  8
Capa_1
 62
7
100
AcDbLine
 10
22.010613
 20
10.145330
 30
0.0
 11
21.602934
 21
10.046230
 31
0.0
  0
LINE
  5
2d3
100
AcDbEntity
  8
Capa_1
 62
7
100
AcDbLine
 10
21.602934
 20
10.046230
 30
0.0
 11
21.225682
 21
9.911120
 31
0.0
  0
LINE
  5
2d4
100
AcDbEntity
  8
Capa_1
 62
7
100
AcDbLine
 10
21.225682
 20
9.911120
 30
0.0
 11
20.879122
 21
9.742140
 31
0.0
  0
LINE
  5
2d5
100
AcDbEntity
  8
Capa_1
 62
7
100
AcDbLine
 10
20.879122
 20
9.742140
 30
0.0
 11
20.563519
 21
9.541410
 31
0.0
  0
LINE
  5
2d6
100
AcDbEntity
  8
Capa_1
 62
7
100
AcDbLine
 10
20.563519
 20
9.541410
 30
0.0
 11
20.279136
 21
9.311050
 31
0.0
  0
LINE
  5
2d7
100
AcDbEntity
  8
Capa_1
 62
7
100
AcDbLine
 10
20.279136
 20
9.311050
 30
0.0
 11
20.026238
 21
9.053170
 31
0.0
  0
LINE
  5
2d8
100
AcDbEntity
  8
Capa_1
 62
7
100
AcDbLine
 10
20.026238
 20
9.053170
 30
0.0
 11
19.837370
 21
8.832020
 31
0.0
  0
LINE
  5
2d9
100
AcDbEntity
  8
Capa_1
 62
7
100
AcDbLine
 10
19.837370
 20
8.832020
 30
0.0
 11
19.662524
 21
8.592090
 31
0.0
  0
LINE
  5
2da
100
AcDbEntity
  8
Capa_1
 62
7
100
AcDbLine
 10
19.662524
 20
8.592090
 30
0.0
 11
19.505141
 21
8.333630
 31
0.0
  0
LINE
  5
2db
100
AcDbEntity
  8
Capa_1
 62
7
100
AcDbLine
 10
19.505141
 20
8.333630
 30
0.0
 11
19.368660
 21
8.056920
 31
0.0
  0
LINE
  5
2dc
100
AcDbEntity
  8
Capa_1
 62
7
100
AcDbLine
 10
19.368660
 20
8.056920
 30
0.0
 11
19.256521
 21
7.762220
 31
0.0
  0
LINE
  5
2dd
100
AcDbEntity
  8
Capa_1
 62
7
100
AcDbLine
 10
19.256521
 20
7.762220
 30
0.0
 11
19.172161
 21
7.449790
 31
0.0
  0
LINE
  5
2de
100
AcDbEntity
  8
Capa_1
 62
7
100
AcDbLine
 10
19.172161
 20
7.449790
 30
0.0
 11
19.119021
 21
7.119900
 31
0.0
  0
LINE
  5
2df
100
AcDbEntity
  8
Capa_1
 62
7
100
AcDbLine
 10
19.119021
 20
7.119900
 30
0.0
 11
19.100541
 21
6.772810
 31
0.0
  0
LINE
  5
2e0
100
AcDbEntity
  8
Capa_1
 62
7
100
AcDbLine
 10
19.100541
 20
6.772810
 30
0.0
 11
19.118091
 21
6.449710
 31
0.0
  0
LINE
  5
2e1
100
AcDbEntity
  8
Capa_1
 62
7
100
AcDbLine
 10
19.118091
 20
6.449710
 30
0.0
 11
19.168981
 21
6.156510
 31
0.0
  0
LINE
  5
2e2
100
AcDbEntity
  8
Capa_1
 62
7
100
AcDbLine
 10
19.168981
 20
6.156510
 30
0.0
 11
19.250561
 21
5.891350
 31
0.0
  0
LINE
  5
2e3
100
AcDbEntity
  8
Capa_1
 62
7
100
AcDbLine
 10
19.250561
 20
5.891350
 30
0.0
 11
19.360186
 21
5.652390
 31
0.0
  0
LINE
  5
2e4
100
AcDbEntity
  8
Capa_1
 62
7
100
AcDbLine
 10
19.360186
 20
5.652390
 30
0.0
 11
19.495212
 21
5.437760
 31
0.0
  0
LINE
  5
2e5
100
AcDbEntity
  8
Capa_1
 62
7
100
AcDbLine
 10
19.495212
 20
5.437760
 30
0.0
 11
19.652992
 21
5.245630
 31
0.0
  0
LINE
  5
2e6
100
AcDbEntity
  8
Capa_1
 62
7
100
AcDbLine
 10
19.652992
 20
5.245630
 30
0.0
 11
19.830880
 21
5.074140
 31
0.0
  0
LINE
  5
2e7
100
AcDbEntity
  8
Capa_1
 62
7
100
AcDbLine
 10
19.830880
 20
5.074140
 30
0.0
 11
20.026231
 21
4.921430
 31
0.0
  0
LINE
  5
2e8
100
AcDbEntity
  8
Capa_1
 62
7
100
AcDbLine
 10
20.026231
 20
4.921430
 30
0.0
 11
20.200547
 21
4.809290
 31
0.0
  0
LINE
  5
2e9
100
AcDbEntity
  8
Capa_1
 62
7
100
AcDbLine
 10
20.200547
 20
4.809290
 30
0.0
 11
20.358195
 21
4.722790
 31
0.0
  0
LINE
  5
2ea
100
AcDbEntity
  8
Capa_1
 62
7
100
AcDbLine
 10
20.358195
 20
4.722790
 30
0.0
 11
20.510022
 21
4.655890
 31
0.0
  0
LINE
  5
2eb
100
AcDbEntity
  8
Capa_1
 62
7
100
AcDbLine
 10
20.510022
 20
4.655890
 30
0.0
 11
20.666875
 21
4.602490
 31
0.0
  0
LINE
  5
2ec
100
AcDbEntity
  8
Capa_1
 62
7
100
AcDbLine
 10
20.666875
 20
4.602490
 30
0.0
 11
20.839604
 21
4.556490
 31
0.0
  0
LINE
  5
2ed
100
AcDbEntity
  8
Capa_1
 62
7
100
AcDbLine
 10
20.839604
 20
4.556490
 30
0.0
 11
21.039056
 21
4.511790
 31
0.0
  0
LINE
  5
2ee
100
AcDbEntity
  8
Capa_1
 62
7
100
AcDbLine
 10
21.039056
 20
4.511790
 30
0.0
 11
21.276079
 21
4.462390
 31
0.0
  0
LINE
  5
2ef
100
AcDbEntity
  8
Capa_1
 62
7
100
AcDbLine
 10
21.276079
 20
4.462390
 30
0.0
 11
21.561520
 21
4.402090
 31
0.0
  0
LINE
  5
2f0
100
AcDbEntity
  8
Capa_1
 62
7
100
AcDbLine
 10
21.561520
 20
4.402090
 30
0.0
 11
21.821164
 21
4.348690
 31
0.0
  0
LINE
  5
2f1
100
AcDbEntity
  8
Capa_1
 62
7
100
AcDbLine
 10
21.821164
 20
4.348690
 30
0.0
 11
22.030009
 21
4.305090
 31
0.0
  0
LINE
  5
2f2
100
AcDbEntity
  8
Capa_1
 62
7
100
AcDbLine
 10
22.030009
 20
4.305090
 30
0.0
 11
22.196520
 21
4.268390
 31
0.0
  0
LINE
  5
2f3
100
AcDbEntity
  8
Capa_1
 62
7
100
AcDbLine
 10
22.196520
 20
4.268390
 30
0.0
 11
22.329164
 21
4.235590
 31
0.0
  0
LINE
  5
2f4
100
AcDbEntity
  8
Capa_1
 62
7
100
AcDbLine
 10
22.329164
 20
4.235590
 30
0.0
 11
22.436409
 21
4.203890
 31
0.0
  0
LINE
  5
2f5
100
AcDbEntity
  8
Capa_1
 62
7
100
AcDbLine
 10
22.436409
 20
4.203890
 30
0.0
 11
22.526719
 21
4.170390
 31
0.0
  0
LINE
  5
2f6
100
AcDbEntity
  8
Capa_1
 62
7
100
AcDbLine
 10
22.526719
 20
4.170390
 30
0.0
 11
22.608559
 21
4.132090
 31
0.0
  0
LINE
  5
2f7
100
AcDbEntity
  8
Capa_1
 62
7
100
AcDbLine
 10
22.608559
 20
4.132090
 30
0.0
 11
22.690409
 21
4.086090
 31
0.0
  0
LINE
  5
2f8
100
AcDbEntity
  8
Capa_1
 62
7
100
AcDbLine
 10
22.690409
 20
4.086090
 30
0.0
 11
22.845587
 21
4.003390
 31
0.0
  0
LINE
  5
2f9
100
AcDbEntity
  8
Capa_1
 62
7
100
AcDbLine
 10
22.845587
 20
4.003390
 30
0.0
 11
22.987800
 21
3.907190
 31
0.0
  0
LINE
  5
2fa
100
AcDbEntity
  8
Capa_1
 62
7
100
AcDbLine
 10
22.987800
 20
3.907190
 30
0.0
 11
23.114668
 21
3.796730
 31
0.0
  0
LINE
  5
2fb
100
AcDbEntity
  8
Capa_1
 62
7
100
AcDbLine
 10
23.114668
 20
3.796730
 30
0.0
 11
23.223808
 21
3.671190
 31
0.0
  0
LINE
  5
2fc
100
AcDbEntity
  8
Capa_1
 62
7
100
AcDbLine
 10
23.223808
 20
3.671190
 30
0.0
 11
23.312838
 21
3.529770
 31
0.0
  0
LINE
  5
2fd
100
AcDbEntity
  8
Capa_1
 62
7
100
AcDbLine
 10
23.312838
 20
3.529770
 30
0.0
 11
23.379378
 21
3.371680
 31
0.0
  0
LINE
  5
2fe
100
AcDbEntity
  8
Capa_1
 62
7
100
AcDbLine
 10
23.379378
 20
3.371680
 30
0.0
 11
23.421048
 21
3.196130
 31
0.0
  0
LINE
  5
2ff
100
AcDbEntity
  8
Capa_1
 62
7
100
AcDbLine
 10
23.421048
 20
3.196130
 30
0.0
 11
23.435468
 21
3.002320
 31
0.0
  0
LINE
  5
300
100
AcDbEntity
  8
Capa_1
 62
7
100
AcDbLine
 10
23.435468
 20
3.002320
 30
0.0
 11
23.429268
 21
2.874350
 31
0.0
  0
LINE
  5
301
100
AcDbEntity
  8
Capa_1
 62
7
100
AcDbLine
 10
23.429268
 20
2.874350
 30
0.0
 11
23.411148
 21
2.744790
 31
0.0
  0
LINE
  5
302
100
AcDbEntity
  8
Capa_1
 62
7
100
AcDbLine
 10
23.411148
 20
2.744790
 30
0.0
 11
23.381908
 21
2.614170
 31
0.0
  0
LINE
  5
303
100
AcDbEntity
  8
Capa_1
 62
7
100
AcDbLine
 10
23.381908
 20
2.614170
 30
0.0
 11
23.342348
 21
2.483030
 31
0.0
  0
LINE
  5
304
100
AcDbEntity
  8
Capa_1
 62
7
100
AcDbLine
 10
23.342348
 20
2.483030
 30
0.0
 11
23.293268
 21
2.351890
 31
0.0
  0
LINE
  5
305
100
AcDbEntity
  8
Capa_1
 62
7
100
AcDbLine
 10
23.293268
 20
2.351890
 30
0.0
 11
23.235458
 21
2.221270
 31
0.0
  0
LINE
  5
306
100
AcDbEntity
  8
Capa_1
 62
7
100
AcDbLine
 10
23.235458
 20
2.221270
 30
0.0
 11
23.169708
 21
2.091710
 31
0.0
  0
LINE
  5
307
100
AcDbEntity
  8
Capa_1
 62
7
100
AcDbLine
 10
23.169708
 20
2.091710
 30
0.0
 11
23.096818
 21
1.963740
 31
0.0
  0
LINE
  5
308
100
AcDbEntity
  8
Capa_1
 62
7
100
AcDbLine
 10
23.096818
 20
1.963740
 30
0.0
 11
22.905965
 21
1.702290
 31
0.0
  0
LINE
  5
309
100
AcDbEntity
  8
Capa_1
 62
7
100
AcDbLine
 10
22.905965
 20
1.702290
 30
0.0
 11
22.687595
 21
1.476560
 31
0.0
  0
LINE
  5
30a
100
AcDbEntity
  8
Capa_1
 62
7
100
AcDbLine
 10
22.687595
 20
1.476560
 30
0.0
 11
22.439593
 21
1.286280
 31
0.0
  0
LINE
  5
30b
100
AcDbEntity
  8
Capa_1
 62
7
100
AcDbLine
 10
22.439593
 20
1.286280
 30
0.0
 11
22.159840
 21
1.131190
 31
0.0
  0
LINE
  5
30c
100
AcDbEntity
  8
Capa_1
 62
7
100
AcDbLine
 10
22.159840
 20
1.131190
 30
0.0
 11
21.846220
 21
1.011020
 31
0.0
  0
LINE
  5
30d
100
AcDbEntity
  8
Capa_1
 62
7
100
AcDbLine
 10
21.846220
 20
1.011020
 30
0.0
 11
21.496618
 21
0.925520
 31
0.0
  0
LINE
  5
30e
100
AcDbEntity
  8
Capa_1
 62
7
100
AcDbLine
 10
21.496618
 20
0.925520
 30
0.0
 11
21.108915
 21
0.874420
 31
0.0
  0
LINE
  5
30f
100
AcDbEntity
  8
Capa_1
 62
7
100
AcDbLine
 10
21.108915
 20
0.874420
 30
0.0
 11
20.680995
 21
0.857420
 31
0.0
  0
LINE
  5
310
100
AcDbEntity
  8
Capa_1
 62
7
100
AcDbLine
 10
20.680995
 20
0.857420
 30
0.0
 11
20.417426
 21
0.862420
 31
0.0
  0
LINE
  5
311
100
AcDbEntity
  8
Capa_1
 62
7
100
AcDbLine
 10
20.417426
 20
0.862420
 30
0.0
 11
20.168409
 21
0.878320
 31
0.0
  0
LINE
  5
312
100
AcDbEntity
  8
Capa_1
 62
7
100
AcDbLine
 10
20.168409
 20
0.878320
 30
0.0
 11
19.933680
 21
0.904820
 31
0.0
  0
LINE
  5
313
100
AcDbEntity
  8
Capa_1
 62
7
100
AcDbLine
 10
19.933680
 20
0.904820
 30
0.0
 11
19.712973
 21
0.941820
 31
0.0
  0
LINE
  5
314
100
AcDbEntity
  8
Capa_1
 62
7
100
AcDbLine
 10
19.712973
 20
0.941820
 30
0.0
 11
19.506025
 21
0.989420
 31
0.0
  0
LINE
  5
315
100
AcDbEntity
  8
Capa_1
 62
7
100
AcDbLine
 10
19.506025
 20
0.989420
 30
0.0
 11
19.312570
 21
1.047620
 31
0.0
  0
LINE
  5
316
100
AcDbEntity
  8
Capa_1
 62
7
100
AcDbLine
 10
19.312570
 20
1.047620
 30
0.0
 11
19.132345
 21
1.116420
 31
0.0
  0
LINE
  5
317
100
AcDbEntity
  8
Capa_1
 62
7
100
AcDbLine
 10
19.132345
 20
1.116420
 30
0.0
 11
18.965084
 21
1.195820
 31
0.0
  0
LINE
  5
318
100
AcDbEntity
  8
Capa_1
 62
7
100
AcDbLine
 10
18.965084
 20
1.195820
 30
0.0
 11
18.909654
 21
1.226020
 31
0.0
  0
LINE
  5
319
100
AcDbEntity
  8
Capa_1
 62
7
100
AcDbLine
 10
18.909654
 20
1.226020
 30
0.0
 11
18.847614
 21
1.263920
 31
0.0
  0
LINE
  5
31a
100
AcDbEntity
  8
Capa_1
 62
7
100
AcDbLine
 10
18.847614
 20
1.263920
 30
0.0
 11
18.782924
 21
1.306520
 31
0.0
  0
LINE
  5
31b
100
AcDbEntity
  8
Capa_1
 62
7
100
AcDbLine
 10
18.782924
 20
1.306520
 30
0.0
 11
18.719554
 21
1.351020
 31
0.0
  0
LINE
  5
31c
100
AcDbEntity
  8
Capa_1
 62
7
100
AcDbLine
 10
18.719554
 20
1.351020
 30
0.0
 11
18.661474
 21
1.394420
 31
0.0
  0
LINE
  5
31d
100
AcDbEntity
  8
Capa_1
 62
7
100
AcDbLine
 10
18.661474
 20
1.394420
 30
0.0
 11
18.612654
 21
1.433920
 31
0.0
  0
LINE
  5
31e
100
AcDbEntity
  8
Capa_1
 62
7
100
AcDbLine
 10
18.612654
 20
1.433920
 30
0.0
 11
18.577064
 21
1.466520
 31
0.0
  0
LINE
  5
31f
100
AcDbEntity
  8
Capa_1
 62
7
100
AcDbLine
 10
18.577064
 20
1.466520
 30
0.0
 11
18.558674
 21
1.489320
 31
0.0
  0
LINE
  5
320
100
AcDbEntity
  8
Capa_1
 62
7
100
AcDbLine
 10
18.558674
 20
1.489320
 30
0.0
 11
18.553274
 21
1.497320
 31
0.0
  0
LINE
  5
321
100
AcDbEntity
  8
Capa_1
 62
7
100
AcDbLine
 10
18.553274
 20
1.497320
 30
0.0
 11
18.553714
 21
1.505320
 31
0.0
  0
LINE
  5
322
100
AcDbEntity
  8
Capa_1
 62
7
100
AcDbLine
 10
18.553714
 20
1.505320
 30
0.0
 11
18.559414
 21
1.513320
 31
0.0
  0
LINE
  5
323
100
AcDbEntity
  8
Capa_1
 62
7
100
AcDbLine
 10
18.559414
 20
1.513320
 30
0.0
 11
18.569914
 21
1.521320
 31
0.0
  0
LINE
  5
324
100
AcDbEntity
  8
Capa_1
 62
7
100
AcDbLine
 10
18.569914
 20
1.521320
 30
0.0
 11
18.584644
 21
1.529320
 31
0.0
  0
LINE
  5
325
100
AcDbEntity
  8
Capa_1
 62
7
100
AcDbLine
 10
18.584644
 20
1.529320
 30
0.0
 11
18.603074
 21
1.537320
 31
0.0
  0
LINE
  5
326
100
AcDbEntity
  8
Capa_1
 62
7
100
AcDbLine
 10
18.603074
 20
1.537320
 30
0.0
 11
18.624684
 21
1.545320
 31
0.0
  0
LINE
  5
327
100
AcDbEntity
  8
Capa_1
 62
7
100
AcDbLine
 10
18.624684
 20
1.545320
 30
0.0
 11
18.648934
 21
1.553320
 31
0.0
  0
LINE
  5
328
100
AcDbEntity
  8
Capa_1
 62
7
100
AcDbLine
 10
18.648934
 20
1.553320
 30
0.0
 11
18.677334
 21
1.556320
 31
0.0
  0
LINE
  5
329
100
AcDbEntity
  8
Capa_1
 62
7
100
AcDbLine
 10
18.677334
 20
1.556320
 30
0.0
 11
18.711024
 21
1.564320
 31
0.0
  0
LINE
  5
32a
100
AcDbEntity
  8
Capa_1
 62
7
100
AcDbLine
 10
18.711024
 20
1.564320
 30
0.0
 11
18.748944
 21
1.576820
 31
0.0
  0
LINE
  5
32b
100
AcDbEntity
  8
Capa_1
 62
7
100
AcDbLine
 10
18.748944
 20
1.576820
 30
0.0
 11
18.790044
 21
1.592520
 31
0.0
  0
LINE
  5
32c
100
AcDbEntity
  8
Capa_1
 62
7
100
AcDbLine
 10
18.790044
 20
1.592520
 30
0.0
 11
18.833264
 21
1.610320
 31
0.0
  0
LINE
  5
32d
100
AcDbEntity
  8
Capa_1
 62
7
100
AcDbLine
 10
18.833264
 20
1.610320
 30
0.0
 11
18.877534
 21
1.629220
 31
0.0
  0
LINE
  5
32e
100
AcDbEntity
  8
Capa_1
 62
7
100
AcDbLine
 10
18.877534
 20
1.629220
 30
0.0
 11
18.921804
 21
1.648120
 31
0.0
  0
LINE
  5
32f
100
AcDbEntity
  8
Capa_1
 62
7
100
AcDbLine
 10
18.921804
 20
1.648120
 30
0.0
 11
18.965024
 21
1.665920
 31
0.0
  0
LINE
  5
330
100
AcDbEntity
  8
Capa_1
 62
7
100
AcDbLine
 10
18.965024
 20
1.665920
 30
0.0
 11
19.141589
 21
1.772150
 31
0.0
  0
LINE
  5
331
100
AcDbEntity
  8
Capa_1
 62
7
100
AcDbLine
 10
19.141589
 20
1.772150
 30
0.0
 11
19.298046
 21
1.901930
 31
0.0
  0
LINE
  5
332
100
AcDbEntity
  8
Capa_1
 62
7
100
AcDbLine
 10
19.298046
 20
1.901930
 30
0.0
 11
19.433337
 21
2.051290
 31
0.0
  0
LINE
  5
333
100
AcDbEntity
  8
Capa_1
 62
7
100
AcDbLine
 10
19.433337
 20
2.051290
 30
0.0
 11
19.546402
 21
2.216250
 31
0.0
  0
LINE
  5
334
100
AcDbEntity
  8
Capa_1
 62
7
100
AcDbLine
 10
19.546402
 20
2.216250
 30
0.0
 11
19.636182
 21
2.392860
 31
0.0
  0
LINE
  5
335
100
AcDbEntity
  8
Capa_1
 62
7
100
AcDbLine
 10
19.636182
 20
2.392860
 30
0.0
 11
19.701622
 21
2.577150
 31
0.0
  0
LINE
  5
336
100
AcDbEntity
  8
Capa_1
 62
7
100
AcDbLine
 10
19.701622
 20
2.577150
 30
0.0
 11
19.741662
 21
2.765140
 31
0.0
  0
LINE
  5
337
100
AcDbEntity
  8
Capa_1
 62
7
100
AcDbLine
 10
19.741662
 20
2.765140
 30
0.0
 11
19.755242
 21
2.952860
 31
0.0
  0
LINE
  5
338
100
AcDbEntity
  8
Capa_1
 62
7
100
AcDbLine
 10
19.755242
 20
2.952860
 30
0.0
 11
19.738572
 21
3.147240
 31
0.0
  0
LINE
  5
339
100
AcDbEntity
  8
Capa_1
 62
7
100
AcDbLine
 10
19.738572
 20
3.147240
 30
0.0
 11
19.689622
 21
3.322570
 31
0.0
  0
LINE
  5
33a
100
AcDbEntity
  8
Capa_1
 62
7
100
AcDbLine
 10
19.689622
 20
3.322570
 30
0.0
 11
19.609982
 21
3.476730
 31
0.0
  0
LINE
  5
33b
100
AcDbEntity
  8
Capa_1
 62
7
100
AcDbLine
 10
19.609982
 20
3.476730
 30
0.0
 11
19.501238
 21
3.607610
 31
0.0
  0
LINE
  5
33c
100
AcDbEntity
  8
Capa_1
 62
7
100
AcDbLine
 10
19.501238
 20
3.607610
 30
0.0
 11
19.364977
 21
3.713090
 31
0.0
  0
LINE
  5
33d
100
AcDbEntity
  8
Capa_1
 62
7
100
AcDbLine
 10
19.364977
 20
3.713090
 30
0.0
 11
19.202788
 21
3.791090
 31
0.0
  0
LINE
  5
33e
100
AcDbEntity
  8
Capa_1
 62
7
100
AcDbLine
 10
19.202788
 20
3.791090
 30
0.0
 11
19.016256
 21
3.839390
 31
0.0
  0
LINE
  5
33f
100
AcDbEntity
  8
Capa_1
 62
7
100
AcDbLine
 10
19.016256
 20
3.839390
 30
0.0
 11
18.806971
 21
3.855990
 31
0.0
  0
LINE
  5
340
100
AcDbEntity
  8
Capa_1
 62
7
100
AcDbLine
 10
18.806971
 20
3.855990
 30
0.0
 11
18.806972
 21
3.855990
 31
0.0
  0
LINE
  5
341
100
AcDbEntity
  8
Capa_1
 62
7
100
AcDbLine
 10
18.806972
 20
3.855990
 30
0.0
 11
18.806973
 21
3.856000
 31
0.0
  0
LINE
  5
342
100
AcDbEntity
  8
Capa_1
 62
7
100
AcDbLine
 10
18.806973
 20
3.856000
 30
0.0
 11
18.806974
 21
3.856000
 31
0.0
  0
LINE
  5
343
100
AcDbEntity
  8
Capa_1
 62
7
100
AcDbLine
 10
18.806974
 20
3.856000
 30
0.0
 11
18.806975
 21
3.856010
 31
0.0
  0
LINE
  5
344
100
AcDbEntity
  8
Capa_1
 62
7
100
AcDbLine
 10
18.806975
 20
3.856010
 30
0.0
 11
18.806975
 21
3.856010
 31
0.0
  0
LINE
  5
345
100
AcDbEntity
  8
Capa_1
 62
7
100
AcDbLine
 10
18.806975
 20
3.856010
 30
0.0
 11
18.806976
 21
3.856020
 31
0.0
  0
LINE
  5
346
100
AcDbEntity
  8
Capa_1
 62
7
100
AcDbLine
 10
18.806976
 20
3.856020
 30
0.0
 11
18.806977
 21
3.856020
 31
0.0
  0
LINE
  5
347
100
AcDbEntity
  8
Capa_1
 62
7
100
AcDbLine
 10
18.806977
 20
3.856020
 30
0.0
 11
18.807290
 21
3.860800
 31
0.0
  0
LINE
  5
348
100
AcDbEntity
  8
Capa_1
 62
7
100
AcDbLine
 10
37.179955
 20
9.979370
 30
0.0
 11
37.070021
 21
9.973370
 31
0.0
  0
LINE
  5
349
100
AcDbEntity
  8
Capa_1
 62
7
100
AcDbLine
 10
37.070021
 20
9.973370
 30
0.0
 11
36.960880
 21
9.955270
 31
0.0
  0
LINE
  5
34a
100
AcDbEntity
  8
Capa_1
 62
7
100
AcDbLine
 10
36.960880
 20
9.955270
 30
0.0
 11
36.853327
 21
9.926070
 31
0.0
  0
LINE
  5
34b
100
AcDbEntity
  8
Capa_1
 62
7
100
AcDbLine
 10
36.853327
 20
9.926070
 30
0.0
 11
36.748155
 21
9.886470
 31
0.0
  0
LINE
  5
34c
100
AcDbEntity
  8
Capa_1
 62
7
100
AcDbLine
 10
36.748155
 20
9.886470
 30
0.0
 11
36.646158
 21
9.837370
 31
0.0
  0
LINE
  5
34d
100
AcDbEntity
  8
Capa_1
 62
7
100
AcDbLine
 10
36.646158
 20
9.837370
 30
0.0
 11
36.548128
 21
9.779570
 31
0.0
  0
LINE
  5
34e
100
AcDbEntity
  8
Capa_1
 62
7
100
AcDbLine
 10
36.548128
 20
9.779570
 30
0.0
 11
36.454858
 21
9.713770
 31
0.0
  0
LINE
  5
34f
100
AcDbEntity
  8
Capa_1
 62
7
100
AcDbLine
 10
36.454858
 20
9.713770
 30
0.0
 11
36.367148
 21
9.640870
 31
0.0
  0
LINE
  5
350
100
AcDbEntity
  8
Capa_1
 62
7
100
AcDbLine
 10
36.367148
 20
9.640870
 30
0.0
 11
36.291788
 21
9.563970
 31
0.0
  0
LINE
  5
351
100
AcDbEntity
  8
Capa_1
 62
7
100
AcDbLine
 10
36.291788
 20
9.563970
 30
0.0
 11
36.225688
 21
9.470170
 31
0.0
  0
LINE
  5
352
100
AcDbEntity
  8
Capa_1
 62
7
100
AcDbLine
 10
36.225688
 20
9.470170
 30
0.0
 11
36.154828
 21
9.310720
 31
0.0
  0
LINE
  5
353
100
AcDbEntity
  8
Capa_1
 62
7
100
AcDbLine
 10
36.154828
 20
9.310720
 30
0.0
 11
36.065178
 21
9.036960
 31
0.0
  0
LINE
  5
354
100
AcDbEntity
  8
Capa_1
 62
7
100
AcDbLine
 10
36.065178
 20
9.036960
 30
0.0
 11
35.942720
 21
8.600220
 31
0.0
  0
LINE
  5
355
100
AcDbEntity
  8
Capa_1
 62
7
100
AcDbLine
 10
35.942720
 20
8.600220
 30
0.0
 11
35.773431
 21
7.951820
 31
0.0
  0
LINE
  5
356
100
AcDbEntity
  8
Capa_1
 62
7
100
AcDbLine
 10
35.773431
 20
7.951820
 30
0.0
 11
35.543288
 21
7.043060
 31
0.0
  0
LINE
  5
357
100
AcDbEntity
  8
Capa_1
 62
7
100
AcDbLine
 10
35.543288
 20
7.043060
 30
0.0
 11
35.238267
 21
5.825270
 31
0.0
  0
LINE
  5
358
100
AcDbEntity
  8
Capa_1
 62
7
100
AcDbLine
 10
35.238267
 20
5.825270
 30
0.0
 11
35.072682
 21
5.148120
 31
0.0
  0
LINE
  5
359
100
AcDbEntity
  8
Capa_1
 62
7
100
AcDbLine
 10
35.072682
 20
5.148120
 30
0.0
 11
34.916887
 21
4.514350
 31
0.0
  0
LINE
  5
35a
100
AcDbEntity
  8
Capa_1
 62
7
100
AcDbLine
 10
34.916887
 20
4.514350
 30
0.0
 11
34.774321
 21
3.937740
 31
0.0
  0
LINE
  5
35b
100
AcDbEntity
  8
Capa_1
 62
7
100
AcDbLine
 10
34.774321
 20
3.937740
 30
0.0
 11
34.648423
 21
3.432030
 31
0.0
  0
LINE
  5
35c
100
AcDbEntity
  8
Capa_1
 62
7
100
AcDbLine
 10
34.648423
 20
3.432030
 30
0.0
 11
34.542634
 21
3.010990
 31
0.0
  0
LINE
  5
35d
100
AcDbEntity
  8
Capa_1
 62
7
100
AcDbLine
 10
34.542634
 20
3.010990
 30
0.0
 11
34.460394
 21
2.688370
 31
0.0
  0
LINE
  5
35e
100
AcDbEntity
  8
Capa_1
 62
7
100
AcDbLine
 10
34.460394
 20
2.688370
 30
0.0
 11
34.405144
 21
2.477940
 31
0.0
  0
LINE
  5
35f
100
AcDbEntity
  8
Capa_1
 62
7
100
AcDbLine
 10
34.405144
 20
2.477940
 30
0.0
 11
34.380314
 21
2.393440
 31
0.0
  0
LINE
  5
360
100
AcDbEntity
  8
Capa_1
 62
7
100
AcDbLine
 10
34.380314
 20
2.393440
 30
0.0
 11
34.350504
 21
2.337440
 31
0.0
  0
LINE
  5
361
100
AcDbEntity
  8
Capa_1
 62
7
100
AcDbLine
 10
34.350504
 20
2.337440
 30
0.0
 11
34.298474
 21
2.258340
 31
0.0
  0
LINE
  5
362
100
AcDbEntity
  8
Capa_1
 62
7
100
AcDbLine
 10
34.298474
 20
2.258340
 30
0.0
 11
34.229504
 21
2.162840
 31
0.0
  0
LINE
  5
363
100
AcDbEntity
  8
Capa_1
 62
7
100
AcDbLine
 10
34.229504
 20
2.162840
 30
0.0
 11
34.148894
 21
2.057580
 31
0.0
  0
LINE
  5
364
100
AcDbEntity
  8
Capa_1
 62
7
100
AcDbLine
 10
34.148894
 20
2.057580
 30
0.0
 11
34.061934
 21
1.949150
 31
0.0
  0
LINE
  5
365
100
AcDbEntity
  8
Capa_1
 62
7
100
AcDbLine
 10
34.061934
 20
1.949150
 30
0.0
 11
33.973914
 21
1.844150
 31
0.0
  0
LINE
  5
366
100
AcDbEntity
  8
Capa_1
 62
7
100
AcDbLine
 10
33.973914
 20
1.844150
 30
0.0
 11
33.890134
 21
1.749250
 31
0.0
  0
LINE
  5
367
100
AcDbEntity
  8
Capa_1
 62
7
100
AcDbLine
 10
33.890134
 20
1.749250
 30
0.0
 11
33.815874
 21
1.670950
 31
0.0
  0
LINE
  5
368
100
AcDbEntity
  8
Capa_1
 62
7
100
AcDbLine
 10
33.815874
 20
1.670950
 30
0.0
 11
33.638427
 21
1.493410
 31
0.0
  0
LINE
  5
369
100
AcDbEntity
  8
Capa_1
 62
7
100
AcDbLine
 10
33.638427
 20
1.493410
 30
0.0
 11
33.458863
 21
1.334400
 31
0.0
  0
LINE
  5
36a
100
AcDbEntity
  8
Capa_1
 62
7
100
AcDbLine
 10
33.458863
 20
1.334400
 30
0.0
 11
33.272949
 21
1.195490
 31
0.0
  0
LINE
  5
36b
100
AcDbEntity
  8
Capa_1
 62
7
100
AcDbLine
 10
33.272949
 20
1.195490
 30
0.0
 11
33.076452
 21
1.078280
 31
0.0
  0
LINE
  5
36c
100
AcDbEntity
  8
Capa_1
 62
7
100
AcDbLine
 10
33.076452
 20
1.078280
 30
0.0
 11
32.865138
 21
0.984380
 31
0.0
  0
LINE
  5
36d
100
AcDbEntity
  8
Capa_1
 62
7
100
AcDbLine
 10
32.865138
 20
0.984380
 30
0.0
 11
32.634774
 21
0.915280
 31
0.0
  0
LINE
  5
36e
100
AcDbEntity
  8
Capa_1
 62
7
100
AcDbLine
 10
32.634774
 20
0.915280
 30
0.0
 11
32.381127
 21
0.872680
 31
0.0
  0
LINE
  5
36f
100
AcDbEntity
  8
Capa_1
 62
7
100
AcDbLine
 10
32.381127
 20
0.872680
 30
0.0
 11
32.099963
 21
0.858180
 31
0.0
  0
LINE
  5
370
100
AcDbEntity
  8
Capa_1
 62
7
100
AcDbLine
 10
32.099963
 20
0.858180
 30
0.0
 11
31.753932
 21
0.891280
 31
0.0
  0
LINE
  5
371
100
AcDbEntity
  8
Capa_1
 62
7
100
AcDbLine
 10
31.753932
 20
0.891280
 30
0.0
 11
31.473783
 21
0.987280
 31
0.0
  0
LINE
  5
372
100
AcDbEntity
  8
Capa_1
 62
7
100
AcDbLine
 10
31.473783
 20
0.987280
 30
0.0
 11
31.253429
 21
1.141530
 31
0.0
  0
LINE
  5
373
100
AcDbEntity
  8
Capa_1
 62
7
100
AcDbLine
 10
31.253429
 20
1.141530
 30
0.0
 11
31.086786
 21
1.349230
 31
0.0
  0
LINE
  5
374
100
AcDbEntity
  8
Capa_1
 62
7
100
AcDbLine
 10
31.086786
 20
1.349230
 30
0.0
 11
30.967767
 21
1.605610
 31
0.0
  0
LINE
  5
375
100
AcDbEntity
  8
Capa_1
 62
7
100
AcDbLine
 10
30.967767
 20
1.605610
 30
0.0
 11
30.890287
 21
1.905910
 31
0.0
  0
LINE
  5
376
100
AcDbEntity
  8
Capa_1
 62
7
100
AcDbLine
 10
30.890287
 20
1.905910
 30
0.0
 11
30.848267
 21
2.245370
 31
0.0
  0
LINE
  5
377
100
AcDbEntity
  8
Capa_1
 62
7
100
AcDbLine
 10
30.848267
 20
2.245370
 30
0.0
 11
30.835607
 21
2.619230
 31
0.0
  0
LINE
  5
378
100
AcDbEntity
  8
Capa_1
 62
7
100
AcDbLine
 10
30.835607
 20
2.619230
 30
0.0
 11
30.835651
 21
2.686030
 31
0.0
  0
LINE
  5
379
100
AcDbEntity
  8
Capa_1
 62
7
100
AcDbLine
 10
30.835651
 20
2.686030
 30
0.0
 11
30.835960
 21
2.751230
 31
0.0
  0
LINE
  5
37a
100
AcDbEntity
  8
Capa_1
 62
7
100
AcDbLine
 10
30.835960
 20
2.751230
 30
0.0
 11
30.836798
 21
2.815330
 31
0.0
  0
LINE
  5
37b
100
AcDbEntity
  8
Capa_1
 62
7
100
AcDbLine
 10
30.836798
 20
2.815330
 30
0.0
 11
30.838398
 21
2.878930
 31
0.0
  0
LINE
  5
37c
100
AcDbEntity
  8
Capa_1
 62
7
100
AcDbLine
 10
30.838398
 20
2.878930
 30
0.0
 11
30.841098
 21
2.942530
 31
0.0
  0
LINE
  5
37d
100
AcDbEntity
  8
Capa_1
 62
7
100
AcDbLine
 10
30.841098
 20
2.942530
 30
0.0
 11
30.845098
 21
3.006630
 31
0.0
  0
LINE
  5
37e
100
AcDbEntity
  8
Capa_1
 62
7
100
AcDbLine
 10
30.845098
 20
3.006630
 30
0.0
 11
30.850698
 21
3.071830
 31
0.0
  0
LINE
  5
37f
100
AcDbEntity
  8
Capa_1
 62
7
100
AcDbLine
 10
30.850698
 20
3.071830
 30
0.0
 11
30.858198
 21
3.138630
 31
0.0
  0
LINE
  5
380
100
AcDbEntity
  8
Capa_1
 62
7
100
AcDbLine
 10
30.858198
 20
3.138630
 30
0.0
 11
30.914998
 21
3.469930
 31
0.0
  0
LINE
  5
381
100
AcDbEntity
  8
Capa_1
 62
7
100
AcDbLine
 10
30.914998
 20
3.469930
 30
0.0
 11
30.986608
 21
3.812080
 31
0.0
  0
LINE
  5
382
100
AcDbEntity
  8
Capa_1
 62
7
100
AcDbLine
 10
30.986608
 20
3.812080
 30
0.0
 11
31.077268
 21
4.178040
 31
0.0
  0
LINE
  5
383
100
AcDbEntity
  8
Capa_1
 62
7
100
AcDbLine
 10
31.077268
 20
4.178040
 30
0.0
 11
31.191215
 21
4.580790
 31
0.0
  0
LINE
  5
384
100
AcDbEntity
  8
Capa_1
 62
7
100
AcDbLine
 10
31.191215
 20
4.580790
 30
0.0
 11
31.332679
 21
5.033270
 31
0.0
  0
LINE
  5
385
100
AcDbEntity
  8
Capa_1
 62
7
100
AcDbLine
 10
31.332679
 20
5.033270
 30
0.0
 11
31.505893
 21
5.548460
 31
0.0
  0
LINE
  5
386
100
AcDbEntity
  8
Capa_1
 62
7
100
AcDbLine
 10
31.505893
 20
5.548460
 30
0.0
 11
31.715090
 21
6.139320
 31
0.0
  0
LINE
  5
387
100
AcDbEntity
  8
Capa_1
 62
7
100
AcDbLine
 10
31.715090
 20
6.139320
 30
0.0
 11
31.964504
 21
6.818810
 31
0.0
  0
LINE
  5
388
100
AcDbEntity
  8
Capa_1
 62
7
100
AcDbLine
 10
31.964504
 20
6.818810
 30
0.0
 11
32.085683
 21
7.140320
 31
0.0
  0
LINE
  5
389
100
AcDbEntity
  8
Capa_1
 62
7
100
AcDbLine
 10
32.085683
 20
7.140320
 30
0.0
 11
32.180403
 21
7.401240
 31
0.0
  0
LINE
  5
38a
100
AcDbEntity
  8
Capa_1
 62
7
100
AcDbLine
 10
32.180403
 20
7.401240
 30
0.0
 11
32.251843
 21
7.612950
 31
0.0
  0
LINE
  5
38b
100
AcDbEntity
  8
Capa_1
 62
7
100
AcDbLine
 10
32.251843
 20
7.612950
 30
0.0
 11
32.303173
 21
7.786830
 31
0.0
  0
LINE
  5
38c
100
AcDbEntity
  8
Capa_1
 62
7
100
AcDbLine
 10
32.303173
 20
7.786830
 30
0.0
 11
32.337563
 21
7.934240
 31
0.0
  0
LINE
  5
38d
100
AcDbEntity
  8
Capa_1
 62
7
100
AcDbLine
 10
32.337563
 20
7.934240
 30
0.0
 11
32.358203
 21
8.066580
 31
0.0
  0
LINE
  5
38e
100
AcDbEntity
  8
Capa_1
 62
7
100
AcDbLine
 10
32.358203
 20
8.066580
 30
0.0
 11
32.368253
 21
8.195210
 31
0.0
  0
LINE
  5
38f
100
AcDbEntity
  8
Capa_1
 62
7
100
AcDbLine
 10
32.368253
 20
8.195210
 30
0.0
 11
32.370853
 21
8.331520
 31
0.0
  0
LINE
  5
390
100
AcDbEntity
  8
Capa_1
 62
7
100
AcDbLine
 10
32.370853
 20
8.331520
 30
0.0
 11
32.333463
 21
8.730640
 31
0.0
  0
LINE
  5
391
100
AcDbEntity
  8
Capa_1
 62
7
100
AcDbLine
 10
32.333463
 20
8.730640
 30
0.0
 11
32.224101
 21
9.094580
 31
0.0
  0
LINE
  5
392
100
AcDbEntity
  8
Capa_1
 62
7
100
AcDbLine
 10
32.224101
 20
9.094580
 30
0.0
 11
32.047007
 21
9.417770
 31
0.0
  0
LINE
  5
393
100
AcDbEntity
  8
Capa_1
 62
7
100
AcDbLine
 10
32.047007
 20
9.417770
 30
0.0
 11
31.806413
 21
9.694650
 31
0.0
  0
LINE
  5
394
100
AcDbEntity
  8
Capa_1
 62
7
100
AcDbLine
 10
31.806413
 20
9.694650
 30
0.0
 11
31.506551
 21
9.919680
 31
0.0
  0
LINE
  5
395
100
AcDbEntity
  8
Capa_1
 62
7
100
AcDbLine
 10
31.506551
 20
9.919680
 30
0.0
 11
31.151657
 21
10.087290
 31
0.0
  0
LINE
  5
396
100
AcDbEntity
  8
Capa_1
 62
7
100
AcDbLine
 10
31.151657
 20
10.087290
 30
0.0
 11
30.745962
 21
10.191930
 31
0.0
  0
LINE
  5
397
100
AcDbEntity
  8
Capa_1
 62
7
100
AcDbLine
 10
30.745962
 20
10.191930
 30
0.0
 11
30.293701
 21
10.228030
 31
0.0
  0
LINE
  5
398
100
AcDbEntity
  8
Capa_1
 62
7
100
AcDbLine
 10
30.293701
 20
10.228030
 30
0.0
 11
30.048829
 21
10.214530
 31
0.0
  0
LINE
  5
399
100
AcDbEntity
  8
Capa_1
 62
7
100
AcDbLine
 10
30.048829
 20
10.214530
 30
0.0
 11
29.820626
 21
10.175430
 31
0.0
  0
LINE
  5
39a
100
AcDbEntity
  8
Capa_1
 62
7
100
AcDbLine
 10
29.820626
 20
10.175430
 30
0.0
 11
29.606710
 21
10.112530
 31
0.0
  0
LINE
  5
39b
100
AcDbEntity
  8
Capa_1
 62
7
100
AcDbLine
 10
29.606710
 20
10.112530
 30
0.0
 11
29.404701
 21
10.027630
 31
0.0
  0
LINE
  5
39c
100
AcDbEntity
  8
Capa_1
 62
7
100
AcDbLine
 10
29.404701
 20
10.027630
 30
0.0
 11
29.212217
 21
9.922640
 31
0.0
  0
LINE
  5
39d
100
AcDbEntity
  8
Capa_1
 62
7
100
AcDbLine
 10
29.212217
 20
9.922640
 30
0.0
 11
29.026876
 21
9.799390
 31
0.0
  0
LINE
  5
39e
100
AcDbEntity
  8
Capa_1
 62
7
100
AcDbLine
 10
29.026876
 20
9.799390
 30
0.0
 11
28.846298
 21
9.659730
 31
0.0
  0
LINE
  5
39f
100
AcDbEntity
  8
Capa_1
 62
7
100
AcDbLine
 10
28.846298
 20
9.659730
 30
0.0
 11
28.668101
 21
9.505520
 31
0.0
  0
LINE
  5
3a0
100
AcDbEntity
  8
Capa_1
 62
7
100
AcDbLine
 10
28.668101
 20
9.505520
 30
0.0
 11
28.457934
 21
9.284940
 31
0.0
  0
LINE
  5
3a1
100
AcDbEntity
  8
Capa_1
 62
7
100
AcDbLine
 10
28.457934
 20
9.284940
 30
0.0
 11
28.252529
 21
9.032090
 31
0.0
  0
LINE
  5
3a2
100
AcDbEntity
  8
Capa_1
 62
7
100
AcDbLine
 10
28.252529
 20
9.032090
 30
0.0
 11
28.054532
 21
8.750660
 31
0.0
  0
LINE
  5
3a3
100
AcDbEntity
  8
Capa_1
 62
7
100
AcDbLine
 10
28.054532
 20
8.750660
 30
0.0
 11
27.866590
 21
8.444370
 31
0.0
  0
LINE
  5
3a4
100
AcDbEntity
  8
Capa_1
 62
7
100
AcDbLine
 10
27.866590
 20
8.444370
 30
0.0
 11
27.691348
 21
8.116900
 31
0.0
  0
LINE
  5
3a5
100
AcDbEntity
  8
Capa_1
 62
7
100
AcDbLine
 10
27.691348
 20
8.116900
 30
0.0
 11
27.531451
 21
7.771970
 31
0.0
  0
LINE
  5
3a6
100
AcDbEntity
  8
Capa_1
 62
7
100
AcDbLine
 10
27.531451
 20
7.771970
 30
0.0
 11
27.389546
 21
7.413280
 31
0.0
  0
LINE
  5
3a7
100
AcDbEntity
  8
Capa_1
 62
7
100
AcDbLine
 10
27.389546
 20
7.413280
 30
0.0
 11
27.268279
 21
7.044540
 31
0.0
  0
LINE
  5
3a8
100
AcDbEntity
  8
Capa_1
 62
7
100
AcDbLine
 10
27.268279
 20
7.044540
 30
0.0
 11
27.252399
 21
6.988340
 31
0.0
  0
LINE
  5
3a9
100
AcDbEntity
  8
Capa_1
 62
7
100
AcDbLine
 10
27.252399
 20
6.988340
 30
0.0
 11
27.238639
 21
6.937940
 31
0.0
  0
LINE
  5
3aa
100
AcDbEntity
  8
Capa_1
 62
7
100
AcDbLine
 10
27.238639
 20
6.937940
 30
0.0
 11
27.226999
 21
6.892840
 31
0.0
  0
LINE
  5
3ab
100
AcDbEntity
  8
Capa_1
 62
7
100
AcDbLine
 10
27.226999
 20
6.892840
 30
0.0
 11
27.217499
 21
6.852540
 31
0.0
  0
LINE
  5
3ac
100
AcDbEntity
  8
Capa_1
 62
7
100
AcDbLine
 10
27.217499
 20
6.852540
 30
0.0
 11
27.210099
 21
6.816440
 31
0.0
  0
LINE
  5
3ad
100
AcDbEntity
  8
Capa_1
 62
7
100
AcDbLine
 10
27.210099
 20
6.816440
 30
0.0
 11
27.204799
 21
6.784040
 31
0.0
  0
LINE
  5
3ae
100
AcDbEntity
  8
Capa_1
 62
7
100
AcDbLine
 10
27.204799
 20
6.784040
 30
0.0
 11
27.201599
 21
6.754840
 31
0.0
  0
LINE
  5
3af
100
AcDbEntity
  8
Capa_1
 62
7
100
AcDbLine
 10
27.201599
 20
6.754840
 30
0.0
 11
27.200499
 21
6.728240
 31
0.0
  0
LINE
  5
3b0
100
AcDbEntity
  8
Capa_1
 62
7
100
AcDbLine
 10
27.200499
 20
6.728240
 30
0.0
 11
27.204499
 21
6.695440
 31
0.0
  0
LINE
  5
3b1
100
AcDbEntity
  8
Capa_1
 62
7
100
AcDbLine
 10
27.204499
 20
6.695440
 30
0.0
 11
27.215349
 21
6.664740
 31
0.0
  0
LINE
  5
3b2
100
AcDbEntity
  8
Capa_1
 62
7
100
AcDbLine
 10
27.215349
 20
6.664740
 30
0.0
 11
27.231489
 21
6.636140
 31
0.0
  0
LINE
  5
3b3
100
AcDbEntity
  8
Capa_1
 62
7
100
AcDbLine
 10
27.231489
 20
6.636140
 30
0.0
 11
27.251329
 21
6.609640
 31
0.0
  0
LINE
  5
3b4
100
AcDbEntity
  8
Capa_1
 62
7
100
AcDbLine
 10
27.251329
 20
6.609640
 30
0.0
 11
27.273289
 21
6.585340
 31
0.0
  0
LINE
  5
3b5
100
AcDbEntity
  8
Capa_1
 62
7
100
AcDbLine
 10
27.273289
 20
6.585340
 30
0.0
 11
27.295779
 21
6.563140
 31
0.0
  0
LINE
  5
3b6
100
AcDbEntity
  8
Capa_1
 62
7
100
AcDbLine
 10
27.295779
 20
6.563140
 30
0.0
 11
27.317209
 21
6.543040
 31
0.0
  0
LINE
  5
3b7
100
AcDbEntity
  8
Capa_1
 62
7
100
AcDbLine
 10
27.317209
 20
6.543040
 30
0.0
 11
27.335999
 21
6.525040
 31
0.0
  0
LINE
  5
3b8
100
AcDbEntity
  8
Capa_1
 62
7
100
AcDbLine
 10
27.335999
 20
6.525040
 30
0.0
 11
27.375509
 21
6.525040
 31
0.0
  0
LINE
  5
3b9
100
AcDbEntity
  8
Capa_1
 62
7
100
AcDbLine
 10
27.375509
 20
6.525040
 30
0.0
 11
27.415019
 21
6.525040
 31
0.0
  0
LINE
  5
3ba
100
AcDbEntity
  8
Capa_1
 62
7
100
AcDbLine
 10
27.415019
 20
6.525040
 30
0.0
 11
27.454529
 21
6.525040
 31
0.0
  0
LINE
  5
3bb
100
AcDbEntity
  8
Capa_1
 62
7
100
AcDbLine
 10
27.454529
 20
6.525040
 30
0.0
 11
27.494039
 21
6.525040
 31
0.0
  0
LINE
  5
3bc
100
AcDbEntity
  8
Capa_1
 62
7
100
AcDbLine
 10
27.494039
 20
6.525040
 30
0.0
 11
27.533549
 21
6.525040
 31
0.0
  0
LINE
  5
3bd
100
AcDbEntity
  8
Capa_1
 62
7
100
AcDbLine
 10
27.533549
 20
6.525040
 30
0.0
 11
27.573059
 21
6.525040
 31
0.0
  0
LINE
  5
3be
100
AcDbEntity
  8
Capa_1
 62
7
100
AcDbLine
 10
27.573059
 20
6.525040
 30
0.0
 11
27.612569
 21
6.525040
 31
0.0
  0
LINE
  5
3bf
100
AcDbEntity
  8
Capa_1
 62
7
100
AcDbLine
 10
27.612569
 20
6.525040
 30
0.0
 11
27.652079
 21
6.525040
 31
0.0
  0
LINE
  5
3c0
100
AcDbEntity
  8
Capa_1
 62
7
100
AcDbLine
 10
27.652079
 20
6.525040
 30
0.0
 11
27.790941
 21
6.525440
 31
0.0
  0
LINE
  5
3c1
100
AcDbEntity
  8
Capa_1
 62
7
100
AcDbLine
 10
27.790941
 20
6.525440
 30
0.0
 11
27.890911
 21
6.528440
 31
0.0
  0
LINE
  5
3c2
100
AcDbEntity
  8
Capa_1
 62
7
100
AcDbLine
 10
27.890911
 20
6.528440
 30
0.0
 11
27.959661
 21
6.536440
 31
0.0
  0
LINE
  5
3c3
100
AcDbEntity
  8
Capa_1
 62
7
100
AcDbLine
 10
27.959661
 20
6.536440
 30
0.0
 11
28.004861
 21
6.551140
 31
0.0
  0
LINE
  5
3c4
100
AcDbEntity
  8
Capa_1
 62
7
100
AcDbLine
 10
28.004861
 20
6.551140
 30
0.0
 11
28.034191
 21
6.575340
 31
0.0
  0
LINE
  5
3c5
100
AcDbEntity
  8
Capa_1
 62
7
100
AcDbLine
 10
28.034191
 20
6.575340
 30
0.0
 11
28.055311
 21
6.611440
 31
0.0
  0
LINE
  5
3c6
100
AcDbEntity
  8
Capa_1
 62
7
100
AcDbLine
 10
28.055311
 20
6.611440
 30
0.0
 11
28.075901
 21
6.661840
 31
0.0
  0
LINE
  5
3c7
100
AcDbEntity
  8
Capa_1
 62
7
100
AcDbLine
 10
28.075901
 20
6.661840
 30
0.0
 11
28.103641
 21
6.728940
 31
0.0
  0
LINE
  5
3c8
100
AcDbEntity
  8
Capa_1
 62
7
100
AcDbLine
 10
28.103641
 20
6.728940
 30
0.0
 11
28.203031
 21
7.074880
 31
0.0
  0
LINE
  5
3c9
100
AcDbEntity
  8
Capa_1
 62
7
100
AcDbLine
 10
28.203031
 20
7.074880
 30
0.0
 11
28.314597
 21
7.400980
 31
0.0
  0
LINE
  5
3ca
100
AcDbEntity
  8
Capa_1
 62
7
100
AcDbLine
 10
28.314597
 20
7.400980
 30
0.0
 11
28.437804
 21
7.706450
 31
0.0
  0
LINE
  5
3cb
100
AcDbEntity
  8
Capa_1
 62
7
100
AcDbLine
 10
28.437804
 20
7.706450
 30
0.0
 11
28.572124
 21
7.990480
 31
0.0
  0
LINE
  5
3cc
100
AcDbEntity
  8
Capa_1
 62
7
100
AcDbLine
 10
28.572124
 20
7.990480
 30
0.0
 11
28.717028
 21
8.252280
 31
0.0
  0
LINE
  5
3cd
100
AcDbEntity
  8
Capa_1
 62
7
100
AcDbLine
 10
28.717028
 20
8.252280
 30
0.0
 11
28.871986
 21
8.491070
 31
0.0
  0
LINE
  5
3ce
100
AcDbEntity
  8
Capa_1
 62
7
100
AcDbLine
 10
28.871986
 20
8.491070
 30
0.0
 11
29.036468
 21
8.706040
 31
0.0
  0
LINE
  5
3cf
100
AcDbEntity
  8
Capa_1
 62
7
100
AcDbLine
 10
29.036468
 20
8.706040
 30
0.0
 11
29.209947
 21
8.896410
 31
0.0
  0
LINE
  5
3d0
100
AcDbEntity
  8
Capa_1
 62
7
100
AcDbLine
 10
29.209947
 20
8.896410
 30
0.0
 11
29.335051
 21
9.014020
 31
0.0
  0
LINE
  5
3d1
100
AcDbEntity
  8
Capa_1
 62
7
100
AcDbLine
 10
29.335051
 20
9.014020
 30
0.0
 11
29.457244
 21
9.113320
 31
0.0
  0
LINE
  5
3d2
100
AcDbEntity
  8
Capa_1
 62
7
100
AcDbLine
 10
29.457244
 20
9.113320
 30
0.0
 11
29.577850
 21
9.195220
 31
0.0
  0
LINE
  5
3d3
100
AcDbEntity
  8
Capa_1
 62
7
100
AcDbLine
 10
29.577850
 20
9.195220
 30
0.0
 11
29.698191
 21
9.260420
 31
0.0
  0
LINE
  5
3d4
100
AcDbEntity
  8
Capa_1
 62
7
100
AcDbLine
 10
29.698191
 20
9.260420
 30
0.0
 11
29.819591
 21
9.309720
 31
0.0
  0
LINE
  5
3d5
100
AcDbEntity
  8
Capa_1
 62
7
100
AcDbLine
 10
29.819591
 20
9.309720
 30
0.0
 11
29.943372
 21
9.344020
 31
0.0
  0
LINE
  5
3d6
100
AcDbEntity
  8
Capa_1
 62
7
100
AcDbLine
 10
29.943372
 20
9.344020
 30
0.0
 11
30.070857
 21
9.364020
 31
0.0
  0
LINE
  5
3d7
100
AcDbEntity
  8
Capa_1
 62
7
100
AcDbLine
 10
30.070857
 20
9.364020
 30
0.0
 11
30.203369
 21
9.370020
 31
0.0
  0
LINE
  5
3d8
100
AcDbEntity
  8
Capa_1
 62
7
100
AcDbLine
 10
30.203369
 20
9.370020
 30
0.0
 11
30.217479
 21
9.370020
 31
0.0
  0
LINE
  5
3d9
100
AcDbEntity
  8
Capa_1
 62
7
100
AcDbLine
 10
30.217479
 20
9.370020
 30
0.0
 11
30.231589
 21
9.370020
 31
0.0
  0
LINE
  5
3da
100
AcDbEntity
  8
Capa_1
 62
7
100
AcDbLine
 10
30.231589
 20
9.370020
 30
0.0
 11
30.245699
 21
9.370020
 31
0.0
  0
LINE
  5
3db
100
AcDbEntity
  8
Capa_1
 62
7
100
AcDbLine
 10
30.245699
 20
9.370020
 30
0.0
 11
30.259809
 21
9.370020
 31
0.0
  0
LINE
  5
3dc
100
AcDbEntity
  8
Capa_1
 62
7
100
AcDbLine
 10
30.259809
 20
9.370020
 30
0.0
 11
30.273919
 21
9.370020
 31
0.0
  0
LINE
  5
3dd
100
AcDbEntity
  8
Capa_1
 62
7
100
AcDbLine
 10
30.273919
 20
9.370020
 30
0.0
 11
30.288029
 21
9.370020
 31
0.0
  0
LINE
  5
3de
100
AcDbEntity
  8
Capa_1
 62
7
100
AcDbLine
 10
30.288029
 20
9.370020
 30
0.0
 11
30.302139
 21
9.370020
 31
0.0
  0
LINE
  5
3df
100
AcDbEntity
  8
Capa_1
 62
7
100
AcDbLine
 10
30.302139
 20
9.370020
 30
0.0
 11
30.316249
 21
9.370020
 31
0.0
  0
LINE
  5
3e0
100
AcDbEntity
  8
Capa_1
 62
7
100
AcDbLine
 10
30.316249
 20
9.370020
 30
0.0
 11
30.407619
 21
9.362020
 31
0.0
  0
LINE
  5
3e1
100
AcDbEntity
  8
Capa_1
 62
7
100
AcDbLine
 10
30.407619
 20
9.362020
 30
0.0
 11
30.479939
 21
9.338520
 31
0.0
  0
LINE
  5
3e2
100
AcDbEntity
  8
Capa_1
 62
7
100
AcDbLine
 10
30.479939
 20
9.338520
 30
0.0
 11
30.535329
 21
9.298120
 31
0.0
  0
LINE
  5
3e3
100
AcDbEntity
  8
Capa_1
 62
7
100
AcDbLine
 10
30.535329
 20
9.298120
 30
0.0
 11
30.575899
 21
9.239720
 31
0.0
  0
LINE
  5
3e4
100
AcDbEntity
  8
Capa_1
 62
7
100
AcDbLine
 10
30.575899
 20
9.239720
 30
0.0
 11
30.603769
 21
9.162320
 31
0.0
  0
LINE
  5
3e5
100
AcDbEntity
  8
Capa_1
 62
7
100
AcDbLine
 10
30.603769
 20
9.162320
 30
0.0
 11
30.621059
 21
9.064820
 31
0.0
  0
LINE
  5
3e6
100
AcDbEntity
  8
Capa_1
 62
7
100
AcDbLine
 10
30.621059
 20
9.064820
 30
0.0
 11
30.629859
 21
8.946110
 31
0.0
  0
LINE
  5
3e7
100
AcDbEntity
  8
Capa_1
 62
7
100
AcDbLine
 10
30.629859
 20
8.946110
 30
0.0
 11
30.632359
 21
8.805180
 31
0.0
  0
LINE
  5
3e8
100
AcDbEntity
  8
Capa_1
 62
7
100
AcDbLine
 10
30.632359
 20
8.805180
 30
0.0
 11
30.630459
 21
8.641360
 31
0.0
  0
LINE
  5
3e9
100
AcDbEntity
  8
Capa_1
 62
7
100
AcDbLine
 10
30.630459
 20
8.641360
 30
0.0
 11
30.621459
 21
8.493680
 31
0.0
  0
LINE
  5
3ea
100
AcDbEntity
  8
Capa_1
 62
7
100
AcDbLine
 10
30.621459
 20
8.493680
 30
0.0
 11
30.600249
 21
8.344410
 31
0.0
  0
LINE
  5
3eb
100
AcDbEntity
  8
Capa_1
 62
7
100
AcDbLine
 10
30.600249
 20
8.344410
 30
0.0
 11
30.561839
 21
8.175830
 31
0.0
  0
LINE
  5
3ec
100
AcDbEntity
  8
Capa_1
 62
7
100
AcDbLine
 10
30.561839
 20
8.175830
 30
0.0
 11
30.501209
 21
7.970200
 31
0.0
  0
LINE
  5
3ed
100
AcDbEntity
  8
Capa_1
 62
7
100
AcDbLine
 10
30.501209
 20
7.970200
 30
0.0
 11
30.413319
 21
7.709810
 31
0.0
  0
LINE
  5
3ee
100
AcDbEntity
  8
Capa_1
 62
7
100
AcDbLine
 10
30.413319
 20
7.709810
 30
0.0
 11
30.293155
 21
7.376910
 31
0.0
  0
LINE
  5
3ef
100
AcDbEntity
  8
Capa_1
 62
7
100
AcDbLine
 10
30.293155
 20
7.376910
 30
0.0
 11
30.135684
 21
6.953800
 31
0.0
  0
LINE
  5
3f0
100
AcDbEntity
  8
Capa_1
 62
7
100
AcDbLine
 10
30.135684
 20
6.953800
 30
0.0
 11
29.908627
 21
6.337980
 31
0.0
  0
LINE
  5
3f1
100
AcDbEntity
  8
Capa_1
 62
7
100
AcDbLine
 10
29.908627
 20
6.337980
 30
0.0
 11
29.716231
 21
5.803390
 31
0.0
  0
LINE
  5
3f2
100
AcDbEntity
  8
Capa_1
 62
7
100
AcDbLine
 10
29.716231
 20
5.803390
 30
0.0
 11
29.555056
 21
5.338130
 31
0.0
  0
LINE
  5
3f3
100
AcDbEntity
  8
Capa_1
 62
7
100
AcDbLine
 10
29.555056
 20
5.338130
 30
0.0
 11
29.421662
 21
4.930270
 31
0.0
  0
LINE
  5
3f4
100
AcDbEntity
  8
Capa_1
 62
7
100
AcDbLine
 10
29.421662
 20
4.930270
 30
0.0
 11
29.312609
 21
4.567920
 31
0.0
  0
LINE
  5
3f5
100
AcDbEntity
  8
Capa_1
 62
7
100
AcDbLine
 10
29.312609
 20
4.567920
 30
0.0
 11
29.224459
 21
4.239180
 31
0.0
  0
LINE
  5
3f6
100
AcDbEntity
  8
Capa_1
 62
7
100
AcDbLine
 10
29.224459
 20
4.239180
 30
0.0
 11
29.153769
 21
3.932130
 31
0.0
  0
LINE
  5
3f7
100
AcDbEntity
  8
Capa_1
 62
7
100
AcDbLine
 10
29.153769
 20
3.932130
 30
0.0
 11
29.097109
 21
3.634870
 31
0.0
  0
LINE
  5
3f8
100
AcDbEntity
  8
Capa_1
 62
7
100
AcDbLine
 10
29.097109
 20
3.634870
 30
0.0
 11
29.082199
 21
3.533230
 31
0.0
  0
LINE
  5
3f9
100
AcDbEntity
  8
Capa_1
 62
7
100
AcDbLine
 10
29.082199
 20
3.533230
 30
0.0
 11
29.070999
 21
3.444030
 31
0.0
  0
LINE
  5
3fa
100
AcDbEntity
  8
Capa_1
 62
7
100
AcDbLine
 10
29.070999
 20
3.444030
 30
0.0
 11
29.062999
 21
3.360630
 31
0.0
  0
LINE
  5
3fb
100
AcDbEntity
  8
Capa_1
 62
7
100
AcDbLine
 10
29.062999
 20
3.360630
 30
0.0
 11
29.057599
 21
3.276430
 31
0.0
  0
LINE
  5
3fc
100
AcDbEntity
  8
Capa_1
 62
7
100
AcDbLine
 10
29.057599
 20
3.276430
 30
0.0
 11
29.054299
 21
3.184830
 31
0.0
  0
LINE
  5
3fd
100
AcDbEntity
  8
Capa_1
 62
7
100
AcDbLine
 10
29.054299
 20
3.184830
 30
0.0
 11
29.052599
 21
3.079220
 31
0.0
  0
LINE
  5
3fe
100
AcDbEntity
  8
Capa_1
 62
7
100
AcDbLine
 10
29.052599
 20
3.079220
 30
0.0
 11
29.051981
 21
2.952960
 31
0.0
  0
LINE
  5
3ff
100
AcDbEntity
  8
Capa_1
 62
7
100
AcDbLine
 10
29.051981
 20
2.952960
 30
0.0
 11
29.051893
 21
2.799460
 31
0.0
  0
LINE
  5
400
100
AcDbEntity
  8
Capa_1
 62
7
100
AcDbLine
 10
29.051893
 20
2.799460
 30
0.0
 11
29.051937
 21
2.659190
 31
0.0
  0
LINE
  5
401
100
AcDbEntity
  8
Capa_1
 62
7
100
AcDbLine
 10
29.051937
 20
2.659190
 30
0.0
 11
29.052246
 21
2.540870
 31
0.0
  0
LINE
  5
402
100
AcDbEntity
  8
Capa_1
 62
7
100
AcDbLine
 10
29.052246
 20
2.540870
 30
0.0
 11
29.053084
 21
2.441070
 31
0.0
  0
LINE
  5
403
100
AcDbEntity
  8
Capa_1
 62
7
100
AcDbLine
 10
29.053084
 20
2.441070
 30
0.0
 11
29.054684
 21
2.356370
 31
0.0
  0
LINE
  5
404
100
AcDbEntity
  8
Capa_1
 62
7
100
AcDbLine
 10
29.054684
 20
2.356370
 30
0.0
 11
29.057384
 21
2.283270
 31
0.0
  0
LINE
  5
405
100
AcDbEntity
  8
Capa_1
 62
7
100
AcDbLine
 10
29.057384
 20
2.283270
 30
0.0
 11
29.061384
 21
2.218370
 31
0.0
  0
LINE
  5
406
100
AcDbEntity
  8
Capa_1
 62
7
100
AcDbLine
 10
29.061384
 20
2.218370
 30
0.0
 11
29.066984
 21
2.158270
 31
0.0
  0
LINE
  5
407
100
AcDbEntity
  8
Capa_1
 62
7
100
AcDbLine
 10
29.066984
 20
2.158270
 30
0.0
 11
29.074484
 21
2.099470
 31
0.0
  0
LINE
  5
408
100
AcDbEntity
  8
Capa_1
 62
7
100
AcDbLine
 10
29.074484
 20
2.099470
 30
0.0
 11
29.144334
 21
1.814650
 31
0.0
  0
LINE
  5
409
100
AcDbEntity
  8
Capa_1
 62
7
100
AcDbLine
 10
29.144334
 20
1.814650
 30
0.0
 11
29.235354
 21
1.552310
 31
0.0
  0
LINE
  5
40a
100
AcDbEntity
  8
Capa_1
 62
7
100
AcDbLine
 10
29.235354
 20
1.552310
 30
0.0
 11
29.347537
 21
1.311670
 31
0.0
  0
LINE
  5
40b
100
AcDbEntity
  8
Capa_1
 62
7
100
AcDbLine
 10
29.347537
 20
1.311670
 30
0.0
 11
29.480887
 21
1.091940
 31
0.0
  0
LINE
  5
40c
100
AcDbEntity
  8
Capa_1
 62
7
100
AcDbLine
 10
29.480887
 20
1.091940
 30
0.0
 11
29.635404
 21
0.892310
 31
0.0
  0
LINE
  5
40d
100
AcDbEntity
  8
Capa_1
 62
7
100
AcDbLine
 10
29.635404
 20
0.892310
 30
0.0
 11
29.811087
 21
0.712000
 31
0.0
  0
LINE
  5
40e
100
AcDbEntity
  8
Capa_1
 62
7
100
AcDbLine
 10
29.811087
 20
0.712000
 30
0.0
 11
30.007937
 21
0.550200
 31
0.0
  0
LINE
  5
40f
100
AcDbEntity
  8
Capa_1
 62
7
100
AcDbLine
 10
30.007937
 20
0.550200
 30
0.0
 11
30.225954
 21
0.406140
 31
0.0
  0
LINE
  5
410
100
AcDbEntity
  8
Capa_1
 62
7
100
AcDbLine
 10
30.225954
 20
0.406140
 30
0.0
 11
30.412750
 21
0.317340
 31
0.0
  0
LINE
  5
411
100
AcDbEntity
  8
Capa_1
 62
7
100
AcDbLine
 10
30.412750
 20
0.317340
 30
0.0
 11
30.615420
 21
0.237840
 31
0.0
  0
LINE
  5
412
100
AcDbEntity
  8
Capa_1
 62
7
100
AcDbLine
 10
30.615420
 20
0.237840
 30
0.0
 11
30.830791
 21
0.168440
 31
0.0
  0
LINE
  5
413
100
AcDbEntity
  8
Capa_1
 62
7
100
AcDbLine
 10
30.830791
 20
0.168440
 30
0.0
 11
31.055687
 21
0.109840
 31
0.0
  0
LINE
  5
414
100
AcDbEntity
  8
Capa_1
 62
7
100
AcDbLine
 10
31.055687
 20
0.109840
 30
0.0
 11
31.286933
 21
0.062840
 31
0.0
  0
LINE
  5
415
100
AcDbEntity
  8
Capa_1
 62
7
100
AcDbLine
 10
31.286933
 20
0.062840
 30
0.0
 11
31.521353
 21
0.028340
 31
0.0
  0
LINE
  5
416
100
AcDbEntity
  8
Capa_1
 62
7
100
AcDbLine
 10
31.521353
 20
0.028340
 30
0.0
 11
31.755774
 21
0.007040
 31
0.0
  0
LINE
  5
417
100
AcDbEntity
  8
Capa_1
 62
7
100
AcDbLine
 10
31.755774
 20
0.007040
 30
0.0
 11
31.987020
 21
0.000040
 31
0.0
  0
LINE
  5
418
100
AcDbEntity
  8
Capa_1
 62
7
100
AcDbLine
 10
31.987020
 20
0.000040
 30
0.0
 11
32.360083
 21
0.022440
 31
0.0
  0
LINE
  5
419
100
AcDbEntity
  8
Capa_1
 62
7
100
AcDbLine
 10
32.360083
 20
0.022440
 30
0.0
 11
32.702454
 21
0.086140
 31
0.0
  0
LINE
  5
41a
100
AcDbEntity
  8
Capa_1
 62
7
100
AcDbLine
 10
32.702454
 20
0.086140
 30
0.0
 11
33.017308
 21
0.185840
 31
0.0
  0
LINE
  5
41b
100
AcDbEntity
  8
Capa_1
 62
7
100
AcDbLine
 10
33.017308
 20
0.185840
 30
0.0
 11
33.307821
 21
0.316190
 31
0.0
  0
LINE
  5
41c
100
AcDbEntity
  8
Capa_1
 62
7
100
AcDbLine
 10
33.307821
 20
0.316190
 30
0.0
 11
33.577166
 21
0.471940
 31
0.0
  0
LINE
  5
41d
100
AcDbEntity
  8
Capa_1
 62
7
100
AcDbLine
 10
33.577166
 20
0.471940
 30
0.0
 11
33.828521
 21
0.647800
 31
0.0
  0
LINE
  5
41e
100
AcDbEntity
  8
Capa_1
 62
7
100
AcDbLine
 10
33.828521
 20
0.647800
 30
0.0
 11
34.065058
 21
0.838470
 31
0.0
  0
LINE
  5
41f
100
AcDbEntity
  8
Capa_1
 62
7
100
AcDbLine
 10
34.065058
 20
0.838470
 30
0.0
 11
34.289954
 21
1.038670
 31
0.0
  0
LINE
  5
420
100
AcDbEntity
  8
Capa_1
 62
7
100
AcDbLine
 10
34.289954
 20
1.038670
 30
0.0
 11
34.340494
 21
1.088270
 31
0.0
  0
LINE
  5
421
100
AcDbEntity
  8
Capa_1
 62
7
100
AcDbLine
 10
34.340494
 20
1.088270
 30
0.0
 11
34.389444
 21
1.134670
 31
0.0
  0
LINE
  5
422
100
AcDbEntity
  8
Capa_1
 62
7
100
AcDbLine
 10
34.389444
 20
1.134670
 30
0.0
 11
34.435214
 21
1.176870
 31
0.0
  0
LINE
  5
423
100
AcDbEntity
  8
Capa_1
 62
7
100
AcDbLine
 10
34.435214
 20
1.176870
 30
0.0
 11
34.476224
 21
1.213770
 31
0.0
  0
LINE
  5
424
100
AcDbEntity
  8
Capa_1
 62
7
100
AcDbLine
 10
34.476224
 20
1.213770
 30
0.0
 11
34.510884
 21
1.244270
 31
0.0
  0
LINE
  5
425
100
AcDbEntity
  8
Capa_1
 62
7
100
AcDbLine
 10
34.510884
 20
1.244270
 30
0.0
 11
34.537604
 21
1.267370
 31
0.0
  0
LINE
  5
426
100
AcDbEntity
  8
Capa_1
 62
7
100
AcDbLine
 10
34.537604
 20
1.267370
 30
0.0
 11
34.554804
 21
1.281970
 31
0.0
  0
LINE
  5
427
100
AcDbEntity
  8
Capa_1
 62
7
100
AcDbLine
 10
34.554804
 20
1.281970
 30
0.0
 11
34.560904
 21
1.286970
 31
0.0
  0
LINE
  5
428
100
AcDbEntity
  8
Capa_1
 62
7
100
AcDbLine
 10
34.560904
 20
1.286970
 30
0.0
 11
34.702897
 21
1.018730
 31
0.0
  0
LINE
  5
429
100
AcDbEntity
  8
Capa_1
 62
7
100
AcDbLine
 10
34.702897
 20
1.018730
 30
0.0
 11
34.875582
 21
0.775090
 31
0.0
  0
LINE
  5
42a
100
AcDbEntity
  8
Capa_1
 62
7
100
AcDbLine
 10
34.875582
 20
0.775090
 30
0.0
 11
35.080017
 21
0.559500
 31
0.0
  0
LINE
  5
42b
100
AcDbEntity
  8
Capa_1
 62
7
100
AcDbLine
 10
35.080017
 20
0.559500
 30
0.0
 11
35.317260
 21
0.375390
 31
0.0
  0
LINE
  5
42c
100
AcDbEntity
  8
Capa_1
 62
7
100
AcDbLine
 10
35.317260
 20
0.375390
 30
0.0
 11
35.588369
 21
0.226210
 31
0.0
  0
LINE
  5
42d
100
AcDbEntity
  8
Capa_1
 62
7
100
AcDbLine
 10
35.588369
 20
0.226210
 30
0.0
 11
35.894404
 21
0.115390
 31
0.0
  0
LINE
  5
42e
100
AcDbEntity
  8
Capa_1
 62
7
100
AcDbLine
 10
35.894404
 20
0.115390
 30
0.0
 11
36.236422
 21
0.046390
 31
0.0
  0
LINE
  5
42f
100
AcDbEntity
  8
Capa_1
 62
7
100
AcDbLine
 10
36.236422
 20
0.046390
 30
0.0
 11
36.615482
 21
0.022590
 31
0.0
  0
LINE
  5
430
100
AcDbEntity
  8
Capa_1
 62
7
100
AcDbLine
 10
36.615482
 20
0.022590
 30
0.0
 11
36.722109
 21
0.022680
 31
0.0
  0
LINE
  5
431
100
AcDbEntity
  8
Capa_1
 62
7
100
AcDbLine
 10
36.722109
 20
0.022680
 30
0.0
 11
36.808099
 21
0.023300
 31
0.0
  0
LINE
  5
432
100
AcDbEntity
  8
Capa_1
 62
7
100
AcDbLine
 10
36.808099
 20
0.023300
 30
0.0
 11
36.878209
 21
0.025300
 31
0.0
  0
LINE
  5
433
100
AcDbEntity
  8
Capa_1
 62
7
100
AcDbLine
 10
36.878209
 20
0.025300
 30
0.0
 11
36.937209
 21
0.028300
 31
0.0
  0
LINE
  5
434
100
AcDbEntity
  8
Capa_1
 62
7
100
AcDbLine
 10
36.937209
 20
0.028300
 30
0.0
 11
36.989859
 21
0.033300
 31
0.0
  0
LINE
  5
435
100
AcDbEntity
  8
Capa_1
 62
7
100
AcDbLine
 10
36.989859
 20
0.033300
 30
0.0
 11
37.040929
 21
0.041300
 31
0.0
  0
LINE
  5
436
100
AcDbEntity
  8
Capa_1
 62
7
100
AcDbLine
 10
37.040929
 20
0.041300
 30
0.0
 11
37.095169
 21
0.052500
 31
0.0
  0
LINE
  5
437
100
AcDbEntity
  8
Capa_1
 62
7
100
AcDbLine
 10
37.095169
 20
0.052500
 30
0.0
 11
37.157349
 21
0.067400
 31
0.0
  0
LINE
  5
438
100
AcDbEntity
  8
Capa_1
 62
7
100
AcDbLine
 10
37.157349
 20
0.067400
 30
0.0
 11
37.467661
 21
0.208640
 31
0.0
  0
LINE
  5
439
100
AcDbEntity
  8
Capa_1
 62
7
100
AcDbLine
 10
37.467661
 20
0.208640
 30
0.0
 11
37.756013
 21
0.414180
 31
0.0
  0
LINE
  5
43a
100
AcDbEntity
  8
Capa_1
 62
7
100
AcDbLine
 10
37.756013
 20
0.414180
 30
0.0
 11
38.023727
 21
0.686920
 31
0.0
  0
LINE
  5
43b
100
AcDbEntity
  8
Capa_1
 62
7
100
AcDbLine
 10
38.023727
 20
0.686920
 30
0.0
 11
38.272126
 21
1.029780
 31
0.0
  0
LINE
  5
43c
100
AcDbEntity
  8
Capa_1
 62
7
100
AcDbLine
 10
38.272126
 20
1.029780
 30
0.0
 11
38.502534
 21
1.445660
 31
0.0
  0
LINE
  5
43d
100
AcDbEntity
  8
Capa_1
 62
7
100
AcDbLine
 10
38.502534
 20
1.445660
 30
0.0
 11
38.716273
 21
1.937480
 31
0.0
  0
LINE
  5
43e
100
AcDbEntity
  8
Capa_1
 62
7
100
AcDbLine
 10
38.716273
 20
1.937480
 30
0.0
 11
38.914667
 21
2.508140
 31
0.0
  0
LINE
  5
43f
100
AcDbEntity
  8
Capa_1
 62
7
100
AcDbLine
 10
38.914667
 20
2.508140
 30
0.0
 11
39.099037
 21
3.160560
 31
0.0
  0
LINE
  5
440
100
AcDbEntity
  8
Capa_1
 62
7
100
AcDbLine
 10
39.099037
 20
3.160560
 30
0.0
 11
39.114917
 21
3.224160
 31
0.0
  0
LINE
  5
441
100
AcDbEntity
  8
Capa_1
 62
7
100
AcDbLine
 10
39.114917
 20
3.224160
 30
0.0
 11
39.128677
 21
3.280160
 31
0.0
  0
LINE
  5
442
100
AcDbEntity
  8
Capa_1
 62
7
100
AcDbLine
 10
39.128677
 20
3.280160
 30
0.0
 11
39.140317
 21
3.329260
 31
0.0
  0
LINE
  5
443
100
AcDbEntity
  8
Capa_1
 62
7
100
AcDbLine
 10
39.140317
 20
3.329260
 30
0.0
 11
39.149817
 21
3.372260
 31
0.0
  0
LINE
  5
444
100
AcDbEntity
  8
Capa_1
 62
7
100
AcDbLine
 10
39.149817
 20
3.372260
 30
0.0
 11
39.157217
 21
3.409960
 31
0.0
  0
LINE
  5
445
100
AcDbEntity
  8
Capa_1
 62
7
100
AcDbLine
 10
39.157217
 20
3.409960
 30
0.0
 11
39.162517
 21
3.443160
 31
0.0
  0
LINE
  5
446
100
AcDbEntity
  8
Capa_1
 62
7
100
AcDbLine
 10
39.162517
 20
3.443160
 30
0.0
 11
39.165717
 21
3.472660
 31
0.0
  0
LINE
  5
447
100
AcDbEntity
  8
Capa_1
 62
7
100
AcDbLine
 10
39.165717
 20
3.472660
 30
0.0
 11
39.166817
 21
3.499260
 31
0.0
  0
LINE
  5
448
100
AcDbEntity
  8
Capa_1
 62
7
100
AcDbLine
 10
39.166817
 20
3.499260
 30
0.0
 11
39.162317
 21
3.566360
 31
0.0
  0
LINE
  5
449
100
AcDbEntity
  8
Capa_1
 62
7
100
AcDbLine
 10
39.162317
 20
3.566360
 30
0.0
 11
39.147457
 21
3.616760
 31
0.0
  0
LINE
  5
44a
100
AcDbEntity
  8
Capa_1
 62
7
100
AcDbLine
 10
39.147457
 20
3.616760
 30
0.0
 11
39.120427
 21
3.652860
 31
0.0
  0
LINE
  5
44b
100
AcDbEntity
  8
Capa_1
 62
7
100
AcDbLine
 10
39.120427
 20
3.652860
 30
0.0
 11
39.079377
 21
3.677060
 31
0.0
  0
LINE
  5
44c
100
AcDbEntity
  8
Capa_1
 62
7
100
AcDbLine
 10
39.079377
 20
3.677060
 30
0.0
 11
39.022447
 21
3.691760
 31
0.0
  0
LINE
  5
44d
100
AcDbEntity
  8
Capa_1
 62
7
100
AcDbLine
 10
39.022447
 20
3.691760
 30
0.0
 11
38.947787
 21
3.699760
 31
0.0
  0
LINE
  5
44e
100
AcDbEntity
  8
Capa_1
 62
7
100
AcDbLine
 10
38.947787
 20
3.699760
 30
0.0
 11
38.853547
 21
3.702760
 31
0.0
  0
LINE
  5
44f
100
AcDbEntity
  8
Capa_1
 62
7
100
AcDbLine
 10
38.853547
 20
3.702760
 30
0.0
 11
38.737880
 21
3.703160
 31
0.0
  0
LINE
  5
450
100
AcDbEntity
  8
Capa_1
 62
7
100
AcDbLine
 10
38.737880
 20
3.703160
 30
0.0
 11
38.616613
 21
3.702160
 31
0.0
  0
LINE
  5
451
100
AcDbEntity
  8
Capa_1
 62
7
100
AcDbLine
 10
38.616613
 20
3.702160
 30
0.0
 11
38.521273
 21
3.697160
 31
0.0
  0
LINE
  5
452
100
AcDbEntity
  8
Capa_1
 62
7
100
AcDbLine
 10
38.521273
 20
3.697160
 30
0.0
 11
38.448163
 21
3.688160
 31
0.0
  0
LINE
  5
453
100
AcDbEntity
  8
Capa_1
 62
7
100
AcDbLine
 10
38.448163
 20
3.688160
 30
0.0
 11
38.393573
 21
3.672560
 31
0.0
  0
LINE
  5
454
100
AcDbEntity
  8
Capa_1
 62
7
100
AcDbLine
 10
38.393573
 20
3.672560
 30
0.0
 11
38.353793
 21
3.649560
 31
0.0
  0
LINE
  5
455
100
AcDbEntity
  8
Capa_1
 62
7
100
AcDbLine
 10
38.353793
 20
3.649560
 30
0.0
 11
38.325133
 21
3.617860
 31
0.0
  0
LINE
  5
456
100
AcDbEntity
  8
Capa_1
 62
7
100
AcDbLine
 10
38.325133
 20
3.617860
 30
0.0
 11
38.303873
 21
3.576060
 31
0.0
  0
LINE
  5
457
100
AcDbEntity
  8
Capa_1
 62
7
100
AcDbLine
 10
38.303873
 20
3.576060
 30
0.0
 11
38.286323
 21
3.522960
 31
0.0
  0
LINE
  5
458
100
AcDbEntity
  8
Capa_1
 62
7
100
AcDbLine
 10
38.286323
 20
3.522960
 30
0.0
 11
38.197203
 21
3.187860
 31
0.0
  0
LINE
  5
459
100
AcDbEntity
  8
Capa_1
 62
7
100
AcDbLine
 10
38.197203
 20
3.187860
 30
0.0
 11
38.115223
 21
2.891130
 31
0.0
  0
LINE
  5
45a
100
AcDbEntity
  8
Capa_1
 62
7
100
AcDbLine
 10
38.115223
 20
2.891130
 30
0.0
 11
38.039063
 21
2.628800
 31
0.0
  0
LINE
  5
45b
100
AcDbEntity
  8
Capa_1
 62
7
100
AcDbLine
 10
38.039063
 20
2.628800
 30
0.0
 11
37.967403
 21
2.396890
 31
0.0
  0
LINE
  5
45c
100
AcDbEntity
  8
Capa_1
 62
7
100
AcDbLine
 10
37.967403
 20
2.396890
 30
0.0
 11
37.898923
 21
2.191440
 31
0.0
  0
LINE
  5
45d
100
AcDbEntity
  8
Capa_1
 62
7
100
AcDbLine
 10
37.898923
 20
2.191440
 30
0.0
 11
37.832293
 21
2.008480
 31
0.0
  0
LINE
  5
45e
100
AcDbEntity
  8
Capa_1
 62
7
100
AcDbLine
 10
37.832293
 20
2.008480
 30
0.0
 11
37.766193
 21
1.844050
 31
0.0
  0
LINE
  5
45f
100
AcDbEntity
  8
Capa_1
 62
7
100
AcDbLine
 10
37.766193
 20
1.844050
 30
0.0
 11
37.699303
 21
1.694160
 31
0.0
  0
LINE
  5
460
100
AcDbEntity
  8
Capa_1
 62
7
100
AcDbLine
 10
37.699303
 20
1.694160
 30
0.0
 11
37.604053
 21
1.503570
 31
0.0
  0
LINE
  5
461
100
AcDbEntity
  8
Capa_1
 62
7
100
AcDbLine
 10
37.604053
 20
1.503570
 30
0.0
 11
37.504573
 21
1.337850
 31
0.0
  0
LINE
  5
462
100
AcDbEntity
  8
Capa_1
 62
7
100
AcDbLine
 10
37.504573
 20
1.337850
 30
0.0
 11
37.400856
 21
1.196480
 31
0.0
  0
LINE
  5
463
100
AcDbEntity
  8
Capa_1
 62
7
100
AcDbLine
 10
37.400856
 20
1.196480
 30
0.0
 11
37.292907
 21
1.078910
 31
0.0
  0
LINE
  5
464
100
AcDbEntity
  8
Capa_1
 62
7
100
AcDbLine
 10
37.292907
 20
1.078910
 30
0.0
 11
37.180723
 21
0.984610
 31
0.0
  0
LINE
  5
465
100
AcDbEntity
  8
Capa_1
 62
7
100
AcDbLine
 10
37.180723
 20
0.984610
 30
0.0
 11
37.064307
 21
0.913110
 31
0.0
  0
LINE
  5
466
100
AcDbEntity
  8
Capa_1
 62
7
100
AcDbLine
 10
37.064307
 20
0.913110
 30
0.0
 11
36.943656
 21
0.863810
 31
0.0
  0
LINE
  5
467
100
AcDbEntity
  8
Capa_1
 62
7
100
AcDbLine
 10
36.943656
 20
0.863810
 30
0.0
 11
36.818773
 21
0.836210
 31
0.0
  0
LINE
  5
468
100
AcDbEntity
  8
Capa_1
 62
7
100
AcDbLine
 10
36.818773
 20
0.836210
 30
0.0
 11
36.642516
 21
0.854710
 31
0.0
  0
LINE
  5
469
100
AcDbEntity
  8
Capa_1
 62
7
100
AcDbLine
 10
36.642516
 20
0.854710
 30
0.0
 11
36.500920
 21
0.908110
 31
0.0
  0
LINE
  5
46a
100
AcDbEntity
  8
Capa_1
 62
7
100
AcDbLine
 10
36.500920
 20
0.908110
 30
0.0
 11
36.390545
 21
0.993310
 31
0.0
  0
LINE
  5
46b
100
AcDbEntity
  8
Capa_1
 62
7
100
AcDbLine
 10
36.390545
 20
0.993310
 30
0.0
 11
36.307955
 21
1.107080
 31
0.0
  0
LINE
  5
46c
100
AcDbEntity
  8
Capa_1
 62
7
100
AcDbLine
 10
36.307955
 20
1.107080
 30
0.0
 11
36.249705
 21
1.246250
 31
0.0
  0
LINE
  5
46d
100
AcDbEntity
  8
Capa_1
 62
7
100
AcDbLine
 10
36.249705
 20
1.246250
 30
0.0
 11
36.212355
 21
1.407650
 31
0.0
  0
LINE
  5
46e
100
AcDbEntity
  8
Capa_1
 62
7
100
AcDbLine
 10
36.212355
 20
1.407650
 30
0.0
 11
36.192465
 21
1.588100
 31
0.0
  0
LINE
  5
46f
100
AcDbEntity
  8
Capa_1
 62
7
100
AcDbLine
 10
36.192465
 20
1.588100
 30
0.0
 11
36.186565
 21
1.784420
 31
0.0
  0
LINE
  5
470
100
AcDbEntity
  8
Capa_1
 62
7
100
AcDbLine
 10
36.186565
 20
1.784420
 30
0.0
 11
36.186609
 21
1.827720
 31
0.0
  0
LINE
  5
471
100
AcDbEntity
  8
Capa_1
 62
7
100
AcDbLine
 10
36.186609
 20
1.827720
 30
0.0
 11
36.186918
 21
1.872620
 31
0.0
  0
LINE
  5
472
100
AcDbEntity
  8
Capa_1
 62
7
100
AcDbLine
 10
36.186918
 20
1.872620
 30
0.0
 11
36.187756
 21
1.918620
 31
0.0
  0
LINE
  5
473
100
AcDbEntity
  8
Capa_1
 62
7
100
AcDbLine
 10
36.187756
 20
1.918620
 30
0.0
 11
36.189356
 21
1.965120
 31
0.0
  0
LINE
  5
474
100
AcDbEntity
  8
Capa_1
 62
7
100
AcDbLine
 10
36.189356
 20
1.965120
 30
0.0
 11
36.192056
 21
2.011620
 31
0.0
  0
LINE
  5
475
100
AcDbEntity
  8
Capa_1
 62
7
100
AcDbLine
 10
36.192056
 20
2.011620
 30
0.0
 11
36.196056
 21
2.057620
 31
0.0
  0
LINE
  5
476
100
AcDbEntity
  8
Capa_1
 62
7
100
AcDbLine
 10
36.196056
 20
2.057620
 30
0.0
 11
36.201656
 21
2.102520
 31
0.0
  0
LINE
  5
477
100
AcDbEntity
  8
Capa_1
 62
7
100
AcDbLine
 10
36.201656
 20
2.102520
 30
0.0
 11
36.209156
 21
2.145820
 31
0.0
  0
LINE
  5
478
100
AcDbEntity
  8
Capa_1
 62
7
100
AcDbLine
 10
36.209156
 20
2.145820
 30
0.0
 11
36.282886
 21
2.441360
 31
0.0
  0
LINE
  5
479
100
AcDbEntity
  8
Capa_1
 62
7
100
AcDbLine
 10
36.282886
 20
2.441360
 30
0.0
 11
36.477266
 21
3.223200
 31
0.0
  0
LINE
  5
47a
100
AcDbEntity
  8
Capa_1
 62
7
100
AcDbLine
 10
36.477266
 20
3.223200
 30
0.0
 11
36.752080
 21
4.334190
 31
0.0
  0
LINE
  5
47b
100
AcDbEntity
  8
Capa_1
 62
7
100
AcDbLine
 10
36.752080
 20
4.334190
 30
0.0
 11
37.067111
 21
5.617150
 31
0.0
  0
LINE
  5
47c
100
AcDbEntity
  8
Capa_1
 62
7
100
AcDbLine
 10
37.067111
 20
5.617150
 30
0.0
 11
37.382141
 21
6.914930
 31
0.0
  0
LINE
  5
47d
100
AcDbEntity
  8
Capa_1
 62
7
100
AcDbLine
 10
37.382141
 20
6.914930
 30
0.0
 11
37.656955
 21
8.070370
 31
0.0
  0
LINE
  5
47e
100
AcDbEntity
  8
Capa_1
 62
7
100
AcDbLine
 10
37.656955
 20
8.070370
 30
0.0
 11
37.851335
 21
8.926290
 31
0.0
  0
LINE
  5
47f
100
AcDbEntity
  8
Capa_1
 62
7
100
AcDbLine
 10
37.851335
 20
8.926290
 30
0.0
 11
37.925065
 21
9.325550
 31
0.0
  0
LINE
  5
480
100
AcDbEntity
  8
Capa_1
 62
7
100
AcDbLine
 10
37.925065
 20
9.325550
 30
0.0
 11
37.908795
 21
9.476850
 31
0.0
  0
LINE
  5
481
100
AcDbEntity
  8
Capa_1
 62
7
100
AcDbLine
 10
37.908795
 20
9.476850
 30
0.0
 11
37.862625
 21
9.608830
 31
0.0
  0
LINE
  5
482
100
AcDbEntity
  8
Capa_1
 62
7
100
AcDbLine
 10
37.862625
 20
9.608830
 30
0.0
 11
37.790525
 21
9.721230
 31
0.0
  0
LINE
  5
483
100
AcDbEntity
  8
Capa_1
 62
7
100
AcDbLine
 10
37.790525
 20
9.721230
 30
0.0
 11
37.696465
 21
9.813830
 31
0.0
  0
LINE
  5
484
100
AcDbEntity
  8
Capa_1
 62
7
100
AcDbLine
 10
37.696465
 20
9.813830
 30
0.0
 11
37.584414
 21
9.886330
 31
0.0
  0
LINE
  5
485
100
AcDbEntity
  8
Capa_1
 62
7
100
AcDbLine
 10
37.584414
 20
9.886330
 30
0.0
 11
37.458340
 21
9.938430
 31
0.0
  0
LINE
  5
486
100
AcDbEntity
  8
Capa_1
 62
7
100
AcDbLine
 10
37.458340
 20
9.938430
 30
0.0
 11
37.322212
 21
9.969830
 31
0.0
  0
LINE
  5
487
100
AcDbEntity
  8
Capa_1
 62
7
100
AcDbLine
 10
37.322212
 20
9.969830
 30
0.0
 11
37.179998
 21
9.980330
 31
0.0
  0
LINE
  5
488
100
AcDbEntity
  8
Capa_1
 62
7
100
AcDbLine
 10
37.179998
 20
9.980330
 30
0.0
 11
37.179998
 21
9.980320
 31
0.0
  0
LINE
  5
489
100
AcDbEntity
  8
Capa_1
 62
7
100
AcDbLine
 10
37.179998
 20
9.980320
 30
0.0
 11
37.179998
 21
9.980320
 31
0.0
  0
LINE
  5
48a
100
AcDbEntity
  8
Capa_1
 62
7
100
AcDbLine
 10
37.179998
 20
9.980320
 30
0.0
 11
37.179998
 21
9.980310
 31
0.0
  0
LINE
  5
48b
100
AcDbEntity
  8
Capa_1
 62
7
100
AcDbLine
 10
37.179998
 20
9.980310
 30
0.0
 11
37.179997
 21
9.980310
 31
0.0
  0
LINE
  5
48c
100
AcDbEntity
  8
Capa_1
 62
7
100
AcDbLine
 10
37.179997
 20
9.980310
 30
0.0
 11
37.179997
 21
9.980300
 31
0.0
  0
LINE
  5
48d
100
AcDbEntity
  8
Capa_1
 62
7
100
AcDbLine
 10
37.179997
 20
9.980300
 30
0.0
 11
37.179997
 21
9.980300
 31
0.0
  0
LINE
  5
48e
100
AcDbEntity
  8
Capa_1
 62
7
100
AcDbLine
 10
37.179997
 20
9.980300
 30
0.0
 11
37.179997
 21
9.980290
 31
0.0
  0
LINE
  5
48f
100
AcDbEntity
  8
Capa_1
 62
7
100
AcDbLine
 10
37.179997
 20
9.980290
 30
0.0
 11
37.179955
 21
9.979370
 31
0.0
  0
LINE
  5
490
100
AcDbEntity
  8
Capa_1
 62
7
100
AcDbLine
 10
42.085331
 20
0.000000
 30
0.0
 11
42.229838
 21
0.010400
 31
0.0
  0
LINE
  5
491
100
AcDbEntity
  8
Capa_1
 62
7
100
AcDbLine
 10
42.229838
 20
0.010400
 30
0.0
 11
42.373550
 21
0.041200
 31
0.0
  0
LINE
  5
492
100
AcDbEntity
  8
Capa_1
 62
7
100
AcDbLine
 10
42.373550
 20
0.041200
 30
0.0
 11
42.513559
 21
0.091600
 31
0.0
  0
LINE
  5
493
100
AcDbEntity
  8
Capa_1
 62
7
100
AcDbLine
 10
42.513559
 20
0.091600
 30
0.0
 11
42.646953
 21
0.160800
 31
0.0
  0
LINE
  5
494
100
AcDbEntity
  8
Capa_1
 62
7
100
AcDbLine
 10
42.646953
 20
0.160800
 30
0.0
 11
42.770822
 21
0.248000
 31
0.0
  0
LINE
  5
495
100
AcDbEntity
  8
Capa_1
 62
7
100
AcDbLine
 10
42.770822
 20
0.248000
 30
0.0
 11
42.882256
 21
0.352380
 31
0.0
  0
LINE
  5
496
100
AcDbEntity
  8
Capa_1
 62
7
100
AcDbLine
 10
42.882256
 20
0.352380
 30
0.0
 11
42.978346
 21
0.473170
 31
0.0
  0
LINE
  5
497
100
AcDbEntity
  8
Capa_1
 62
7
100
AcDbLine
 10
42.978346
 20
0.473170
 30
0.0
 11
43.056176
 21
0.609560
 31
0.0
  0
LINE
  5
498
100
AcDbEntity
  8
Capa_1
 62
7
100
AcDbLine
 10
43.056176
 20
0.609560
 30
0.0
 11
43.086556
 21
0.682460
 31
0.0
  0
LINE
  5
499
100
AcDbEntity
  8
Capa_1
 62
7
100
AcDbLine
 10
43.086556
 20
0.682460
 30
0.0
 11
43.129906
 21
0.811710
 31
0.0
  0
LINE
  5
49a
100
AcDbEntity
  8
Capa_1
 62
7
100
AcDbLine
 10
43.129906
 20
0.811710
 30
0.0
 11
43.190716
 21
1.015570
 31
0.0
  0
LINE
  5
49b
100
AcDbEntity
  8
Capa_1
 62
7
100
AcDbLine
 10
43.190716
 20
1.015570
 30
0.0
 11
43.273486
 21
1.312300
 31
0.0
  0
LINE
  5
49c
100
AcDbEntity
  8
Capa_1
 62
7
100
AcDbLine
 10
43.273486
 20
1.312300
 30
0.0
 11
43.382715
 21
1.720150
 31
0.0
  0
LINE
  5
49d
100
AcDbEntity
  8
Capa_1
 62
7
100
AcDbLine
 10
43.382715
 20
1.720150
 30
0.0
 11
43.522901
 21
2.257390
 31
0.0
  0
LINE
  5
49e
100
AcDbEntity
  8
Capa_1
 62
7
100
AcDbLine
 10
43.522901
 20
2.257390
 30
0.0
 11
43.698540
 21
2.942260
 31
0.0
  0
LINE
  5
49f
100
AcDbEntity
  8
Capa_1
 62
7
100
AcDbLine
 10
43.698540
 20
2.942260
 30
0.0
 11
43.914132
 21
3.793030
 31
0.0
  0
LINE
  5
4a0
100
AcDbEntity
  8
Capa_1
 62
7
100
AcDbLine
 10
43.914132
 20
3.793030
 30
0.0
 11
44.007262
 21
4.171210
 31
0.0
  0
LINE
  5
4a1
100
AcDbEntity
  8
Capa_1
 62
7
100
AcDbLine
 10
44.007262
 20
4.171210
 30
0.0
 11
44.100392
 21
4.549390
 31
0.0
  0
LINE
  5
4a2
100
AcDbEntity
  8
Capa_1
 62
7
100
AcDbLine
 10
44.100392
 20
4.549390
 30
0.0
 11
44.193522
 21
4.927570
 31
0.0
  0
LINE
  5
4a3
100
AcDbEntity
  8
Capa_1
 62
7
100
AcDbLine
 10
44.193522
 20
4.927570
 30
0.0
 11
44.286652
 21
5.305740
 31
0.0
  0
LINE
  5
4a4
100
AcDbEntity
  8
Capa_1
 62
7
100
AcDbLine
 10
44.286652
 20
5.305740
 30
0.0
 11
44.379782
 21
5.683920
 31
0.0
  0
LINE
  5
4a5
100
AcDbEntity
  8
Capa_1
 62
7
100
AcDbLine
 10
44.379782
 20
5.683920
 30
0.0
 11
44.472912
 21
6.062100
 31
0.0
  0
LINE
  5
4a6
100
AcDbEntity
  8
Capa_1
 62
7
100
AcDbLine
 10
44.472912
 20
6.062100
 30
0.0
 11
44.566042
 21
6.440280
 31
0.0
  0
LINE
  5
4a7
100
AcDbEntity
  8
Capa_1
 62
7
100
AcDbLine
 10
44.566042
 20
6.440280
 30
0.0
 11
44.659172
 21
6.818460
 31
0.0
  0
LINE
  5
4a8
100
AcDbEntity
  8
Capa_1
 62
7
100
AcDbLine
 10
44.659172
 20
6.818460
 30
0.0
 11
44.678932
 21
6.852360
 31
0.0
  0
LINE
  5
4a9
100
AcDbEntity
  8
Capa_1
 62
7
100
AcDbLine
 10
44.678932
 20
6.852360
 30
0.0
 11
44.698692
 21
6.886260
 31
0.0
  0
LINE
  5
4aa
100
AcDbEntity
  8
Capa_1
 62
7
100
AcDbLine
 10
44.698692
 20
6.886260
 30
0.0
 11
44.718452
 21
6.920160
 31
0.0
  0
LINE
  5
4ab
100
AcDbEntity
  8
Capa_1
 62
7
100
AcDbLine
 10
44.718452
 20
6.920160
 30
0.0
 11
44.738212
 21
6.954060
 31
0.0
  0
LINE
  5
4ac
100
AcDbEntity
  8
Capa_1
 62
7
100
AcDbLine
 10
44.738212
 20
6.954060
 30
0.0
 11
44.757972
 21
6.987960
 31
0.0
  0
LINE
  5
4ad
100
AcDbEntity
  8
Capa_1
 62
7
100
AcDbLine
 10
44.757972
 20
6.987960
 30
0.0
 11
44.777732
 21
7.021860
 31
0.0
  0
LINE
  5
4ae
100
AcDbEntity
  8
Capa_1
 62
7
100
AcDbLine
 10
44.777732
 20
7.021860
 30
0.0
 11
44.797482
 21
7.055760
 31
0.0
  0
LINE
  5
4af
100
AcDbEntity
  8
Capa_1
 62
7
100
AcDbLine
 10
44.797482
 20
7.055760
 30
0.0
 11
44.817242
 21
7.089660
 31
0.0
  0
LINE
  5
4b0
100
AcDbEntity
  8
Capa_1
 62
7
100
AcDbLine
 10
44.817242
 20
7.089660
 30
0.0
 11
45.109562
 21
7.552420
 31
0.0
  0
LINE
  5
4b1
100
AcDbEntity
  8
Capa_1
 62
7
100
AcDbLine
 10
45.109562
 20
7.552420
 30
0.0
 11
45.411672
 21
7.959610
 31
0.0
  0
LINE
  5
4b2
100
AcDbEntity
  8
Capa_1
 62
7
100
AcDbLine
 10
45.411672
 20
7.959610
 30
0.0
 11
45.724895
 21
8.312830
 31
0.0
  0
LINE
  5
4b3
100
AcDbEntity
  8
Capa_1
 62
7
100
AcDbLine
 10
45.724895
 20
8.312830
 30
0.0
 11
46.050553
 21
8.613660
 31
0.0
  0
LINE
  5
4b4
100
AcDbEntity
  8
Capa_1
 62
7
100
AcDbLine
 10
46.050553
 20
8.613660
 30
0.0
 11
46.389969
 21
8.863690
 31
0.0
  0
LINE
  5
4b5
100
AcDbEntity
  8
Capa_1
 62
7
100
AcDbLine
 10
46.389969
 20
8.863690
 30
0.0
 11
46.744467
 21
9.064510
 31
0.0
  0
LINE
  5
4b6
100
AcDbEntity
  8
Capa_1
 62
7
100
AcDbLine
 10
46.744467
 20
9.064510
 30
0.0
 11
47.115368
 21
9.217700
 31
0.0
  0
LINE
  5
4b7
100
AcDbEntity
  8
Capa_1
 62
7
100
AcDbLine
 10
47.115368
 20
9.217700
 30
0.0
 11
47.503997
 21
9.324860
 31
0.0
  0
LINE
  5
4b8
100
AcDbEntity
  8
Capa_1
 62
7
100
AcDbLine
 10
47.503997
 20
9.324860
 30
0.0
 11
47.569967
 21
9.339760
 31
0.0
  0
LINE
  5
4b9
100
AcDbEntity
  8
Capa_1
 62
7
100
AcDbLine
 10
47.569967
 20
9.339760
 30
0.0
 11
47.633817
 21
9.350960
 31
0.0
  0
LINE
  5
4ba
100
AcDbEntity
  8
Capa_1
 62
7
100
AcDbLine
 10
47.633817
 20
9.350960
 30
0.0
 11
47.697667
 21
9.358960
 31
0.0
  0
LINE
  5
4bb
100
AcDbEntity
  8
Capa_1
 62
7
100
AcDbLine
 10
47.697667
 20
9.358960
 30
0.0
 11
47.763637
 21
9.363960
 31
0.0
  0
LINE
  5
4bc
100
AcDbEntity
  8
Capa_1
 62
7
100
AcDbLine
 10
47.763637
 20
9.363960
 30
0.0
 11
47.833837
 21
9.366960
 31
0.0
  0
LINE
  5
4bd
100
AcDbEntity
  8
Capa_1
 62
7
100
AcDbLine
 10
47.833837
 20
9.366960
 30
0.0
 11
47.910387
 21
9.368960
 31
0.0
  0
LINE
  5
4be
100
AcDbEntity
  8
Capa_1
 62
7
100
AcDbLine
 10
47.910387
 20
9.368960
 30
0.0
 11
47.995407
 21
9.369580
 31
0.0
  0
LINE
  5
4bf
100
AcDbEntity
  8
Capa_1
 62
7
100
AcDbLine
 10
47.995407
 20
9.369580
 30
0.0
 11
48.091007
 21
9.369670
 31
0.0
  0
LINE
  5
4c0
100
AcDbEntity
  8
Capa_1
 62
7
100
AcDbLine
 10
48.091007
 20
9.369670
 30
0.0
 11
48.378388
 21
9.347670
 31
0.0
  0
LINE
  5
4c1
100
AcDbEntity
  8
Capa_1
 62
7
100
AcDbLine
 10
48.378388
 20
9.347670
 30
0.0
 11
48.616293
 21
9.282270
 31
0.0
  0
LINE
  5
4c2
100
AcDbEntity
  8
Capa_1
 62
7
100
AcDbLine
 10
48.616293
 20
9.282270
 30
0.0
 11
48.808160
 21
9.174500
 31
0.0
  0
LINE
  5
4c3
100
AcDbEntity
  8
Capa_1
 62
7
100
AcDbLine
 10
48.808160
 20
9.174500
 30
0.0
 11
48.957429
 21
9.025450
 31
0.0
  0
LINE
  5
4c4
100
AcDbEntity
  8
Capa_1
 62
7
100
AcDbLine
 10
48.957429
 20
9.025450
 30
0.0
 11
49.067540
 21
8.836190
 31
0.0
  0
LINE
  5
4c5
100
AcDbEntity
  8
Capa_1
 62
7
100
AcDbLine
 10
49.067540
 20
8.836190
 30
0.0
 11
49.141930
 21
8.607770
 31
0.0
  0
LINE
  5
4c6
100
AcDbEntity
  8
Capa_1
 62
7
100
AcDbLine
 10
49.141930
 20
8.607770
 30
0.0
 11
49.184040
 21
8.341240
 31
0.0
  0
LINE
  5
4c7
100
AcDbEntity
  8
Capa_1
 62
7
100
AcDbLine
 10
49.184040
 20
8.341240
 30
0.0
 11
49.197310
 21
8.037680
 31
0.0
  0
LINE
  5
4c8
100
AcDbEntity
  8
Capa_1
 62
7
100
AcDbLine
 10
49.197310
 20
8.037680
 30
0.0
 11
49.196210
 21
7.925800
 31
0.0
  0
LINE
  5
4c9
100
AcDbEntity
  8
Capa_1
 62
7
100
AcDbLine
 10
49.196210
 20
7.925800
 30
0.0
 11
49.193010
 21
7.811550
 31
0.0
  0
LINE
  5
4ca
100
AcDbEntity
  8
Capa_1
 62
7
100
AcDbLine
 10
49.193010
 20
7.811550
 30
0.0
 11
49.187710
 21
7.696760
 31
0.0
  0
LINE
  5
4cb
100
AcDbEntity
  8
Capa_1
 62
7
100
AcDbLine
 10
49.187710
 20
7.696760
 30
0.0
 11
49.180310
 21
7.583300
 31
0.0
  0
LINE
  5
4cc
100
AcDbEntity
  8
Capa_1
 62
7
100
AcDbLine
 10
49.180310
 20
7.583300
 30
0.0
 11
49.170810
 21
7.473010
 31
0.0
  0
LINE
  5
4cd
100
AcDbEntity
  8
Capa_1
 62
7
100
AcDbLine
 10
49.170810
 20
7.473010
 30
0.0
 11
49.159170
 21
7.367750
 31
0.0
  0
LINE
  5
4ce
100
AcDbEntity
  8
Capa_1
 62
7
100
AcDbLine
 10
49.159170
 20
7.367750
 30
0.0
 11
49.145410
 21
7.269350
 31
0.0
  0
LINE
  5
4cf
100
AcDbEntity
  8
Capa_1
 62
7
100
AcDbLine
 10
49.145410
 20
7.269350
 30
0.0
 11
49.129540
 21
7.179650
 31
0.0
  0
LINE
  5
4d0
100
AcDbEntity
  8
Capa_1
 62
7
100
AcDbLine
 10
49.129540
 20
7.179650
 30
0.0
 11
49.051130
 21
6.807870
 31
0.0
  0
LINE
  5
4d1
100
AcDbEntity
  8
Capa_1
 62
7
100
AcDbLine
 10
49.051130
 20
6.807870
 30
0.0
 11
48.951030
 21
6.402480
 31
0.0
  0
LINE
  5
4d2
100
AcDbEntity
  8
Capa_1
 62
7
100
AcDbLine
 10
48.951030
 20
6.402480
 30
0.0
 11
48.828704
 21
5.961640
 31
0.0
  0
LINE
  5
4d3
100
AcDbEntity
  8
Capa_1
 62
7
100
AcDbLine
 10
48.828704
 20
5.961640
 30
0.0
 11
48.683624
 21
5.483490
 31
0.0
  0
LINE
  5
4d4
100
AcDbEntity
  8
Capa_1
 62
7
100
AcDbLine
 10
48.683624
 20
5.483490
 30
0.0
 11
48.515261
 21
4.966190
 31
0.0
  0
LINE
  5
4d5
100
AcDbEntity
  8
Capa_1
 62
7
100
AcDbLine
 10
48.515261
 20
4.966190
 30
0.0
 11
48.323085
 21
4.407880
 31
0.0
  0
LINE
  5
4d6
100
AcDbEntity
  8
Capa_1
 62
7
100
AcDbLine
 10
48.323085
 20
4.407880
 30
0.0
 11
48.106568
 21
3.806700
 31
0.0
  0
LINE
  5
4d7
100
AcDbEntity
  8
Capa_1
 62
7
100
AcDbLine
 10
48.106568
 20
3.806700
 30
0.0
 11
47.865180
 21
3.160810
 31
0.0
  0
LINE
  5
4d8
100
AcDbEntity
  8
Capa_1
 62
7
100
AcDbLine
 10
47.865180
 20
3.160810
 30
0.0
 11
47.773810
 21
2.920350
 31
0.0
  0
LINE
  5
4d9
100
AcDbEntity
  8
Capa_1
 62
7
100
AcDbLine
 10
47.773810
 20
2.920350
 30
0.0
 11
47.701490
 21
2.731480
 31
0.0
  0
LINE
  5
4da
100
AcDbEntity
  8
Capa_1
 62
7
100
AcDbLine
 10
47.701490
 20
2.731480
 30
0.0
 11
47.646100
 21
2.580180
 31
0.0
  0
LINE
  5
4db
100
AcDbEntity
  8
Capa_1
 62
7
100
AcDbLine
 10
47.646100
 20
2.580180
 30
0.0
 11
47.605530
 21
2.452430
 31
0.0
  0
LINE
  5
4dc
100
AcDbEntity
  8
Capa_1
 62
7
100
AcDbLine
 10
47.605530
 20
2.452430
 30
0.0
 11
47.577660
 21
2.334200
 31
0.0
  0
LINE
  5
4dd
100
AcDbEntity
  8
Capa_1
 62
7
100
AcDbLine
 10
47.577660
 20
2.334200
 30
0.0
 11
47.560370
 21
2.211480
 31
0.0
  0
LINE
  5
4de
100
AcDbEntity
  8
Capa_1
 62
7
100
AcDbLine
 10
47.560370
 20
2.211480
 30
0.0
 11
47.551570
 21
2.070240
 31
0.0
  0
LINE
  5
4df
100
AcDbEntity
  8
Capa_1
 62
7
100
AcDbLine
 10
47.551570
 20
2.070240
 30
0.0
 11
47.549070
 21
1.896450
 31
0.0
  0
LINE
  5
4e0
100
AcDbEntity
  8
Capa_1
 62
7
100
AcDbLine
 10
47.549070
 20
1.896450
 30
0.0
 11
47.561240
 21
1.709570
 31
0.0
  0
LINE
  5
4e1
100
AcDbEntity
  8
Capa_1
 62
7
100
AcDbLine
 10
47.561240
 20
1.709570
 30
0.0
 11
47.595640
 21
1.523210
 31
0.0
  0
LINE
  5
4e2
100
AcDbEntity
  8
Capa_1
 62
7
100
AcDbLine
 10
47.595640
 20
1.523210
 30
0.0
 11
47.649090
 21
1.340030
 31
0.0
  0
LINE
  5
4e3
100
AcDbEntity
  8
Capa_1
 62
7
100
AcDbLine
 10
47.649090
 20
1.340030
 30
0.0
 11
47.718410
 21
1.162670
 31
0.0
  0
LINE
  5
4e4
100
AcDbEntity
  8
Capa_1
 62
7
100
AcDbLine
 10
47.718410
 20
1.162670
 30
0.0
 11
47.800430
 21
0.993780
 31
0.0
  0
LINE
  5
4e5
100
AcDbEntity
  8
Capa_1
 62
7
100
AcDbLine
 10
47.800430
 20
0.993780
 30
0.0
 11
47.891980
 21
0.836000
 31
0.0
  0
LINE
  5
4e6
100
AcDbEntity
  8
Capa_1
 62
7
100
AcDbLine
 10
47.891980
 20
0.836000
 30
0.0
 11
47.989880
 21
0.691980
 31
0.0
  0
LINE
  5
4e7
100
AcDbEntity
  8
Capa_1
 62
7
100
AcDbLine
 10
47.989880
 20
0.691980
 30
0.0
 11
48.090951
 21
0.564360
 31
0.0
  0
LINE
  5
4e8
100
AcDbEntity
  8
Capa_1
 62
7
100
AcDbLine
 10
48.090951
 20
0.564360
 30
0.0
 11
48.231797
 21
0.450320
 31
0.0
  0
LINE
  5
4e9
100
AcDbEntity
  8
Capa_1
 62
7
100
AcDbLine
 10
48.231797
 20
0.450320
 30
0.0
 11
48.383756
 21
0.346340
 31
0.0
  0
LINE
  5
4ea
100
AcDbEntity
  8
Capa_1
 62
7
100
AcDbLine
 10
48.383756
 20
0.346340
 30
0.0
 11
48.547357
 21
0.254040
 31
0.0
  0
LINE
  5
4eb
100
AcDbEntity
  8
Capa_1
 62
7
100
AcDbLine
 10
48.547357
 20
0.254040
 30
0.0
 11
48.723128
 21
0.174940
 31
0.0
  0
LINE
  5
4ec
100
AcDbEntity
  8
Capa_1
 62
7
100
AcDbLine
 10
48.723128
 20
0.174940
 30
0.0
 11
48.911600
 21
0.110640
 31
0.0
  0
LINE
  5
4ed
100
AcDbEntity
  8
Capa_1
 62
7
100
AcDbLine
 10
48.911600
 20
0.110640
 30
0.0
 11
49.113300
 21
0.062740
 31
0.0
  0
LINE
  5
4ee
100
AcDbEntity
  8
Capa_1
 62
7
100
AcDbLine
 10
49.113300
 20
0.062740
 30
0.0
 11
49.328759
 21
0.032840
 31
0.0
  0
LINE
  5
4ef
100
AcDbEntity
  8
Capa_1
 62
7
100
AcDbLine
 10
49.328759
 20
0.032840
 30
0.0
 11
49.558506
 21
0.022540
 31
0.0
  0
LINE
  5
4f0
100
AcDbEntity
  8
Capa_1
 62
7
100
AcDbLine
 10
49.558506
 20
0.022540
 30
0.0
 11
49.708569
 21
0.023540
 31
0.0
  0
LINE
  5
4f1
100
AcDbEntity
  8
Capa_1
 62
7
100
AcDbLine
 10
49.708569
 20
0.023540
 30
0.0
 11
49.840376
 21
0.028540
 31
0.0
  0
LINE
  5
4f2
100
AcDbEntity
  8
Capa_1
 62
7
100
AcDbLine
 10
49.840376
 20
0.028540
 30
0.0
 11
49.958953
 21
0.038840
 31
0.0
  0
LINE
  5
4f3
100
AcDbEntity
  8
Capa_1
 62
7
100
AcDbLine
 10
49.958953
 20
0.038840
 30
0.0
 11
50.069328
 21
0.056040
 31
0.0
  0
LINE
  5
4f4
100
AcDbEntity
  8
Capa_1
 62
7
100
AcDbLine
 10
50.069328
 20
0.056040
 30
0.0
 11
50.176529
 21
0.081740
 31
0.0
  0
LINE
  5
4f5
100
AcDbEntity
  8
Capa_1
 62
7
100
AcDbLine
 10
50.176529
 20
0.081740
 30
0.0
 11
50.285581
 21
0.117440
 31
0.0
  0
LINE
  5
4f6
100
AcDbEntity
  8
Capa_1
 62
7
100
AcDbLine
 10
50.285581
 20
0.117440
 30
0.0
 11
50.401513
 21
0.164840
 31
0.0
  0
LINE
  5
4f7
100
AcDbEntity
  8
Capa_1
 62
7
100
AcDbLine
 10
50.401513
 20
0.164840
 30
0.0
 11
50.529351
 21
0.225440
 31
0.0
  0
LINE
  5
4f8
100
AcDbEntity
  8
Capa_1
 62
7
100
AcDbLine
 10
50.529351
 20
0.225440
 30
0.0
 11
50.896504
 21
0.459020
 31
0.0
  0
LINE
  5
4f9
100
AcDbEntity
  8
Capa_1
 62
7
100
AcDbLine
 10
50.896504
 20
0.459020
 30
0.0
 11
51.235612
 21
0.735210
 31
0.0
  0
LINE
  5
4fa
100
AcDbEntity
  8
Capa_1
 62
7
100
AcDbLine
 10
51.235612
 20
0.735210
 30
0.0
 11
51.546145
 21
1.052140
 31
0.0
  0
LINE
  5
4fb
100
AcDbEntity
  8
Capa_1
 62
7
100
AcDbLine
 10
51.546145
 20
1.052140
 30
0.0
 11
51.827573
 21
1.407960
 31
0.0
  0
LINE
  5
4fc
100
AcDbEntity
  8
Capa_1
 62
7
100
AcDbLine
 10
51.827573
 20
1.407960
 30
0.0
 11
52.079368
 21
1.800820
 31
0.0
  0
LINE
  5
4fd
100
AcDbEntity
  8
Capa_1
 62
7
100
AcDbLine
 10
52.079368
 20
1.800820
 30
0.0
 11
52.301001
 21
2.228870
 31
0.0
  0
LINE
  5
4fe
100
AcDbEntity
  8
Capa_1
 62
7
100
AcDbLine
 10
52.301001
 20
2.228870
 30
0.0
 11
52.491942
 21
2.690260
 31
0.0
  0
LINE
  5
4ff
100
AcDbEntity
  8
Capa_1
 62
7
100
AcDbLine
 10
52.491942
 20
2.690260
 30
0.0
 11
52.651662
 21
3.183130
 31
0.0
  0
LINE
  5
500
100
AcDbEntity
  8
Capa_1
 62
7
100
AcDbLine
 10
52.651662
 20
3.183130
 30
0.0
 11
52.668512
 21
3.240230
 31
0.0
  0
LINE
  5
501
100
AcDbEntity
  8
Capa_1
 62
7
100
AcDbLine
 10
52.668512
 20
3.240230
 30
0.0
 11
52.684832
 21
3.293130
 31
0.0
  0
LINE
  5
502
100
AcDbEntity
  8
Capa_1
 62
7
100
AcDbLine
 10
52.684832
 20
3.293130
 30
0.0
 11
52.700092
 21
3.341830
 31
0.0
  0
LINE
  5
503
100
AcDbEntity
  8
Capa_1
 62
7
100
AcDbLine
 10
52.700092
 20
3.341830
 30
0.0
 11
52.713762
 21
3.386230
 31
0.0
  0
LINE
  5
504
100
AcDbEntity
  8
Capa_1
 62
7
100
AcDbLine
 10
52.713762
 20
3.386230
 30
0.0
 11
52.725312
 21
3.426430
 31
0.0
  0
LINE
  5
505
100
AcDbEntity
  8
Capa_1
 62
7
100
AcDbLine
 10
52.725312
 20
3.426430
 30
0.0
 11
52.734212
 21
3.462430
 31
0.0
  0
LINE
  5
506
100
AcDbEntity
  8
Capa_1
 62
7
100
AcDbLine
 10
52.734212
 20
3.462430
 30
0.0
 11
52.739912
 21
3.494130
 31
0.0
  0
LINE
  5
507
100
AcDbEntity
  8
Capa_1
 62
7
100
AcDbLine
 10
52.739912
 20
3.494130
 30
0.0
 11
52.741912
 21
3.521630
 31
0.0
  0
LINE
  5
508
100
AcDbEntity
  8
Capa_1
 62
7
100
AcDbLine
 10
52.741912
 20
3.521630
 30
0.0
 11
52.735512
 21
3.587730
 31
0.0
  0
LINE
  5
509
100
AcDbEntity
  8
Capa_1
 62
7
100
AcDbLine
 10
52.735512
 20
3.587730
 30
0.0
 11
52.715842
 21
3.635530
 31
0.0
  0
LINE
  5
50a
100
AcDbEntity
  8
Capa_1
 62
7
100
AcDbLine
 10
52.715842
 20
3.635530
 30
0.0
 11
52.682412
 21
3.668030
 31
0.0
  0
LINE
  5
50b
100
AcDbEntity
  8
Capa_1
 62
7
100
AcDbLine
 10
52.682412
 20
3.668030
 30
0.0
 11
52.634702
 21
3.688130
 31
0.0
  0
LINE
  5
50c
100
AcDbEntity
  8
Capa_1
 62
7
100
AcDbLine
 10
52.634702
 20
3.688130
 30
0.0
 11
52.572172
 21
3.698630
 31
0.0
  0
LINE
  5
50d
100
AcDbEntity
  8
Capa_1
 62
7
100
AcDbLine
 10
52.572172
 20
3.698630
 30
0.0
 11
52.494292
 21
3.702630
 31
0.0
  0
LINE
  5
50e
100
AcDbEntity
  8
Capa_1
 62
7
100
AcDbLine
 10
52.494292
 20
3.702630
 30
0.0
 11
52.400542
 21
3.702850
 31
0.0
  0
LINE
  5
50f
100
AcDbEntity
  8
Capa_1
 62
7
100
AcDbLine
 10
52.400542
 20
3.702850
 30
0.0
 11
52.290387
 21
3.702280
 31
0.0
  0
LINE
  5
510
100
AcDbEntity
  8
Capa_1
 62
7
100
AcDbLine
 10
52.290387
 20
3.702280
 30
0.0
 11
52.169120
 21
3.701280
 31
0.0
  0
LINE
  5
511
100
AcDbEntity
  8
Capa_1
 62
7
100
AcDbLine
 10
52.169120
 20
3.701280
 30
0.0
 11
52.073780
 21
3.696280
 31
0.0
  0
LINE
  5
512
100
AcDbEntity
  8
Capa_1
 62
7
100
AcDbLine
 10
52.073780
 20
3.696280
 30
0.0
 11
52.000670
 21
3.687280
 31
0.0
  0
LINE
  5
513
100
AcDbEntity
  8
Capa_1
 62
7
100
AcDbLine
 10
52.000670
 20
3.687280
 30
0.0
 11
51.946080
 21
3.671680
 31
0.0
  0
LINE
  5
514
100
AcDbEntity
  8
Capa_1
 62
7
100
AcDbLine
 10
51.946080
 20
3.671680
 30
0.0
 11
51.906300
 21
3.648680
 31
0.0
  0
LINE
  5
515
100
AcDbEntity
  8
Capa_1
 62
7
100
AcDbLine
 10
51.906300
 20
3.648680
 30
0.0
 11
51.877640
 21
3.616980
 31
0.0
  0
LINE
  5
516
100
AcDbEntity
  8
Capa_1
 62
7
100
AcDbLine
 10
51.877640
 20
3.616980
 30
0.0
 11
51.856390
 21
3.575180
 31
0.0
  0
LINE
  5
517
100
AcDbEntity
  8
Capa_1
 62
7
100
AcDbLine
 10
51.856390
 20
3.575180
 30
0.0
 11
51.838840
 21
3.522080
 31
0.0
  0
LINE
  5
518
100
AcDbEntity
  8
Capa_1
 62
7
100
AcDbLine
 10
51.838840
 20
3.522080
 30
0.0
 11
51.701257
 21
3.069560
 31
0.0
  0
LINE
  5
519
100
AcDbEntity
  8
Capa_1
 62
7
100
AcDbLine
 10
51.701257
 20
3.069560
 30
0.0
 11
51.525573
 21
2.606980
 31
0.0
  0
LINE
  5
51a
100
AcDbEntity
  8
Capa_1
 62
7
100
AcDbLine
 10
51.525573
 20
2.606980
 30
0.0
 11
51.311790
 21
2.156040
 31
0.0
  0
LINE
  5
51b
100
AcDbEntity
  8
Capa_1
 62
7
100
AcDbLine
 10
51.311790
 20
2.156040
 30
0.0
 11
51.059907
 21
1.738430
 31
0.0
  0
LINE
  5
51c
100
AcDbEntity
  8
Capa_1
 62
7
100
AcDbLine
 10
51.059907
 20
1.738430
 30
0.0
 11
50.769923
 21
1.375870
 31
0.0
  0
LINE
  5
51d
100
AcDbEntity
  8
Capa_1
 62
7
100
AcDbLine
 10
50.769923
 20
1.375870
 30
0.0
 11
50.441840
 21
1.090030
 31
0.0
  0
LINE
  5
51e
100
AcDbEntity
  8
Capa_1
 62
7
100
AcDbLine
 10
50.441840
 20
1.090030
 30
0.0
 11
50.075656
 21
0.902610
 31
0.0
  0
LINE
  5
51f
100
AcDbEntity
  8
Capa_1
 62
7
100
AcDbLine
 10
50.075656
 20
0.902610
 30
0.0
 11
49.671373
 21
0.835310
 31
0.0
  0
LINE
  5
520
100
AcDbEntity
  8
Capa_1
 62
7
100
AcDbLine
 10
49.671373
 20
0.835310
 30
0.0
 11
49.564129
 21
0.844310
 31
0.0
  0
LINE
  5
521
100
AcDbEntity
  8
Capa_1
 62
7
100
AcDbLine
 10
49.564129
 20
0.844310
 30
0.0
 11
49.478049
 21
0.872610
 31
0.0
  0
LINE
  5
522
100
AcDbEntity
  8
Capa_1
 62
7
100
AcDbLine
 10
49.478049
 20
0.872610
 30
0.0
 11
49.411019
 21
0.919410
 31
0.0
  0
LINE
  5
523
100
AcDbEntity
  8
Capa_1
 62
7
100
AcDbLine
 10
49.411019
 20
0.919410
 30
0.0
 11
49.360929
 21
0.984510
 31
0.0
  0
LINE
  5
524
100
AcDbEntity
  8
Capa_1
 62
7
100
AcDbLine
 10
49.360929
 20
0.984510
 30
0.0
 11
49.325649
 21
1.067510
 31
0.0
  0
LINE
  5
525
100
AcDbEntity
  8
Capa_1
 62
7
100
AcDbLine
 10
49.325649
 20
1.067510
 30
0.0
 11
49.303069
 21
1.168280
 31
0.0
  0
LINE
  5
526
100
AcDbEntity
  8
Capa_1
 62
7
100
AcDbLine
 10
49.303069
 20
1.168280
 30
0.0
 11
49.291079
 21
1.286500
 31
0.0
  0
LINE
  5
527
100
AcDbEntity
  8
Capa_1
 62
7
100
AcDbLine
 10
49.291079
 20
1.286500
 30
0.0
 11
49.287579
 21
1.421930
 31
0.0
  0
LINE
  5
528
100
AcDbEntity
  8
Capa_1
 62
7
100
AcDbLine
 10
49.287579
 20
1.421930
 30
0.0
 11
49.291179
 21
1.570450
 31
0.0
  0
LINE
  5
529
100
AcDbEntity
  8
Capa_1
 62
7
100
AcDbLine
 10
49.291179
 20
1.570450
 30
0.0
 11
49.303479
 21
1.716850
 31
0.0
  0
LINE
  5
52a
100
AcDbEntity
  8
Capa_1
 62
7
100
AcDbLine
 10
49.303479
 20
1.716850
 30
0.0
 11
49.326889
 21
1.869600
 31
0.0
  0
LINE
  5
52b
100
AcDbEntity
  8
Capa_1
 62
7
100
AcDbLine
 10
49.326889
 20
1.869600
 30
0.0
 11
49.363799
 21
2.037170
 31
0.0
  0
LINE
  5
52c
100
AcDbEntity
  8
Capa_1
 62
7
100
AcDbLine
 10
49.363799
 20
2.037170
 30
0.0
 11
49.416579
 21
2.228030
 31
0.0
  0
LINE
  5
52d
100
AcDbEntity
  8
Capa_1
 62
7
100
AcDbLine
 10
49.416579
 20
2.228030
 30
0.0
 11
49.487619
 21
2.450630
 31
0.0
  0
LINE
  5
52e
100
AcDbEntity
  8
Capa_1
 62
7
100
AcDbLine
 10
49.487619
 20
2.450630
 30
0.0
 11
49.579299
 21
2.713450
 31
0.0
  0
LINE
  5
52f
100
AcDbEntity
  8
Capa_1
 62
7
100
AcDbLine
 10
49.579299
 20
2.713450
 30
0.0
 11
49.693997
 21
3.024950
 31
0.0
  0
LINE
  5
530
100
AcDbEntity
  8
Capa_1
 62
7
100
AcDbLine
 10
49.693997
 20
3.024950
 30
0.0
 11
49.928859
 21
3.658670
 31
0.0
  0
LINE
  5
531
100
AcDbEntity
  8
Capa_1
 62
7
100
AcDbLine
 10
49.928859
 20
3.658670
 30
0.0
 11
50.142025
 21
4.255090
 31
0.0
  0
LINE
  5
532
100
AcDbEntity
  8
Capa_1
 62
7
100
AcDbLine
 10
50.142025
 20
4.255090
 30
0.0
 11
50.332965
 21
4.812870
 31
0.0
  0
LINE
  5
533
100
AcDbEntity
  8
Capa_1
 62
7
100
AcDbLine
 10
50.332965
 20
4.812870
 30
0.0
 11
50.501152
 21
5.330700
 31
0.0
  0
LINE
  5
534
100
AcDbEntity
  8
Capa_1
 62
7
100
AcDbLine
 10
50.501152
 20
5.330700
 30
0.0
 11
50.646056
 21
5.807260
 31
0.0
  0
LINE
  5
535
100
AcDbEntity
  8
Capa_1
 62
7
100
AcDbLine
 10
50.646056
 20
5.807260
 30
0.0
 11
50.767147
 21
6.241220
 31
0.0
  0
LINE
  5
536
100
AcDbEntity
  8
Capa_1
 62
7
100
AcDbLine
 10
50.767147
 20
6.241220
 30
0.0
 11
50.863897
 21
6.631260
 31
0.0
  0
LINE
  5
537
100
AcDbEntity
  8
Capa_1
 62
7
100
AcDbLine
 10
50.863897
 20
6.631260
 30
0.0
 11
50.935777
 21
6.976060
 31
0.0
  0
LINE
  5
538
100
AcDbEntity
  8
Capa_1
 62
7
100
AcDbLine
 10
50.935777
 20
6.976060
 30
0.0
 11
50.951657
 21
7.065760
 31
0.0
  0
LINE
  5
539
100
AcDbEntity
  8
Capa_1
 62
7
100
AcDbLine
 10
50.951657
 20
7.065760
 30
0.0
 11
50.965417
 21
7.164160
 31
0.0
  0
LINE
  5
53a
100
AcDbEntity
  8
Capa_1
 62
7
100
AcDbLine
 10
50.965417
 20
7.164160
 30
0.0
 11
50.977057
 21
7.269420
 31
0.0
  0
LINE
  5
53b
100
AcDbEntity
  8
Capa_1
 62
7
100
AcDbLine
 10
50.977057
 20
7.269420
 30
0.0
 11
50.986557
 21
7.379710
 31
0.0
  0
LINE
  5
53c
100
AcDbEntity
  8
Capa_1
 62
7
100
AcDbLine
 10
50.986557
 20
7.379710
 30
0.0
 11
50.993957
 21
7.493170
 31
0.0
  0
LINE
  5
53d
100
AcDbEntity
  8
Capa_1
 62
7
100
AcDbLine
 10
50.993957
 20
7.493170
 30
0.0
 11
50.999257
 21
7.607960
 31
0.0
  0
LINE
  5
53e
100
AcDbEntity
  8
Capa_1
 62
7
100
AcDbLine
 10
50.999257
 20
7.607960
 30
0.0
 11
51.002457
 21
7.722210
 31
0.0
  0
LINE
  5
53f
100
AcDbEntity
  8
Capa_1
 62
7
100
AcDbLine
 10
51.002457
 20
7.722210
 30
0.0
 11
51.003557
 21
7.834090
 31
0.0
  0
LINE
  5
540
100
AcDbEntity
  8
Capa_1
 62
7
100
AcDbLine
 10
51.003557
 20
7.834090
 30
0.0
 11
50.951917
 21
8.397170
 31
0.0
  0
LINE
  5
541
100
AcDbEntity
  8
Capa_1
 62
7
100
AcDbLine
 10
50.951917
 20
8.397170
 30
0.0
 11
50.802119
 21
8.884310
 31
0.0
  0
LINE
  5
542
100
AcDbEntity
  8
Capa_1
 62
7
100
AcDbLine
 10
50.802119
 20
8.884310
 30
0.0
 11
50.561833
 21
9.295780
 31
0.0
  0
LINE
  5
543
100
AcDbEntity
  8
Capa_1
 62
7
100
AcDbLine
 10
50.561833
 20
9.295780
 30
0.0
 11
50.238733
 21
9.631840
 31
0.0
  0
LINE
  5
544
100
AcDbEntity
  8
Capa_1
 62
7
100
AcDbLine
 10
50.238733
 20
9.631840
 30
0.0
 11
49.840491
 21
9.892770
 31
0.0
  0
LINE
  5
545
100
AcDbEntity
  8
Capa_1
 62
7
100
AcDbLine
 10
49.840491
 20
9.892770
 30
0.0
 11
49.374780
 21
10.078810
 31
0.0
  0
LINE
  5
546
100
AcDbEntity
  8
Capa_1
 62
7
100
AcDbLine
 10
49.374780
 20
10.078810
 30
0.0
 11
48.849273
 21
10.190240
 31
0.0
  0
LINE
  5
547
100
AcDbEntity
  8
Capa_1
 62
7
100
AcDbLine
 10
48.849273
 20
10.190240
 30
0.0
 11
48.271644
 21
10.227340
 31
0.0
  0
LINE
  5
548
100
AcDbEntity
  8
Capa_1
 62
7
100
AcDbLine
 10
48.271644
 20
10.227340
 30
0.0
 11
47.754339
 21
10.198540
 31
0.0
  0
LINE
  5
549
100
AcDbEntity
  8
Capa_1
 62
7
100
AcDbLine
 10
47.754339
 20
10.198540
 30
0.0
 11
47.282808
 21
10.115840
 31
0.0
  0
LINE
  5
54a
100
AcDbEntity
  8
Capa_1
 62
7
100
AcDbLine
 10
47.282808
 20
10.115840
 30
0.0
 11
46.852022
 21
9.984430
 31
0.0
  0
LINE
  5
54b
100
AcDbEntity
  8
Capa_1
 62
7
100
AcDbLine
 10
46.852022
 20
9.984430
 30
0.0
 11
46.456955
 21
9.809630
 31
0.0
  0
LINE
  5
54c
100
AcDbEntity
  8
Capa_1
 62
7
100
AcDbLine
 10
46.456955
 20
9.809630
 30
0.0
 11
46.092580
 21
9.596730
 31
0.0
  0
LINE
  5
54d
100
AcDbEntity
  8
Capa_1
 62
7
100
AcDbLine
 10
46.092580
 20
9.596730
 30
0.0
 11
45.753869
 21
9.351020
 31
0.0
  0
LINE
  5
54e
100
AcDbEntity
  8
Capa_1
 62
7
100
AcDbLine
 10
45.753869
 20
9.351020
 30
0.0
 11
45.435796
 21
9.077790
 31
0.0
  0
LINE
  5
54f
100
AcDbEntity
  8
Capa_1
 62
7
100
AcDbLine
 10
45.435796
 20
9.077790
 30
0.0
 11
45.133333
 21
8.782340
 31
0.0
  0
LINE
  5
550
100
AcDbEntity
  8
Capa_1
 62
7
100
AcDbLine
 10
45.133333
 20
8.782340
 30
0.0
 11
45.102293
 21
8.751340
 31
0.0
  0
LINE
  5
551
100
AcDbEntity
  8
Capa_1
 62
7
100
AcDbLine
 10
45.102293
 20
8.751340
 30
0.0
 11
45.071253
 21
8.720340
 31
0.0
  0
LINE
  5
552
100
AcDbEntity
  8
Capa_1
 62
7
100
AcDbLine
 10
45.071253
 20
8.720340
 30
0.0
 11
45.040213
 21
8.689340
 31
0.0
  0
LINE
  5
553
100
AcDbEntity
  8
Capa_1
 62
7
100
AcDbLine
 10
45.040213
 20
8.689340
 30
0.0
 11
45.009173
 21
8.658340
 31
0.0
  0
LINE
  5
554
100
AcDbEntity
  8
Capa_1
 62
7
100
AcDbLine
 10
45.009173
 20
8.658340
 30
0.0
 11
44.978133
 21
8.627340
 31
0.0
  0
LINE
  5
555
100
AcDbEntity
  8
Capa_1
 62
7
100
AcDbLine
 10
44.978133
 20
8.627340
 30
0.0
 11
44.947083
 21
8.596340
 31
0.0
  0
LINE
  5
556
100
AcDbEntity
  8
Capa_1
 62
7
100
AcDbLine
 10
44.947083
 20
8.596340
 30
0.0
 11
44.916043
 21
8.565340
 31
0.0
  0
LINE
  5
557
100
AcDbEntity
  8
Capa_1
 62
7
100
AcDbLine
 10
44.916043
 20
8.565340
 30
0.0
 11
44.885003
 21
8.534340
 31
0.0
  0
LINE
  5
558
100
AcDbEntity
  8
Capa_1
 62
7
100
AcDbLine
 10
44.885003
 20
8.534340
 30
0.0
 11
44.877503
 21
8.535340
 31
0.0
  0
LINE
  5
559
100
AcDbEntity
  8
Capa_1
 62
7
100
AcDbLine
 10
44.877503
 20
8.535340
 30
0.0
 11
44.871903
 21
8.538340
 31
0.0
  0
LINE
  5
55a
100
AcDbEntity
  8
Capa_1
 62
7
100
AcDbLine
 10
44.871903
 20
8.538340
 30
0.0
 11
44.867903
 21
8.542340
 31
0.0
  0
LINE
  5
55b
100
AcDbEntity
  8
Capa_1
 62
7
100
AcDbLine
 10
44.867903
 20
8.542340
 30
0.0
 11
44.865203
 21
8.548340
 31
0.0
  0
LINE
  5
55c
100
AcDbEntity
  8
Capa_1
 62
7
100
AcDbLine
 10
44.865203
 20
8.548340
 30
0.0
 11
44.863603
 21
8.555340
 31
0.0
  0
LINE
  5
55d
100
AcDbEntity
  8
Capa_1
 62
7
100
AcDbLine
 10
44.863603
 20
8.555340
 30
0.0
 11
44.862765
 21
8.563340
 31
0.0
  0
LINE
  5
55e
100
AcDbEntity
  8
Capa_1
 62
7
100
AcDbLine
 10
44.862765
 20
8.563340
 30
0.0
 11
44.862456
 21
8.571340
 31
0.0
  0
LINE
  5
55f
100
AcDbEntity
  8
Capa_1
 62
7
100
AcDbLine
 10
44.862456
 20
8.571340
 30
0.0
 11
44.862412
 21
8.579340
 31
0.0
  0
LINE
  5
560
100
AcDbEntity
  8
Capa_1
 62
7
100
AcDbLine
 10
44.862412
 20
8.579340
 30
0.0
 11
44.855412
 21
8.619440
 31
0.0
  0
LINE
  5
561
100
AcDbEntity
  8
Capa_1
 62
7
100
AcDbLine
 10
44.855412
 20
8.619440
 30
0.0
 11
44.836272
 21
8.684440
 31
0.0
  0
LINE
  5
562
100
AcDbEntity
  8
Capa_1
 62
7
100
AcDbLine
 10
44.836272
 20
8.684440
 30
0.0
 11
44.807612
 21
8.767440
 31
0.0
  0
LINE
  5
563
100
AcDbEntity
  8
Capa_1
 62
7
100
AcDbLine
 10
44.807612
 20
8.767440
 30
0.0
 11
44.772072
 21
8.861540
 31
0.0
  0
LINE
  5
564
100
AcDbEntity
  8
Capa_1
 62
7
100
AcDbLine
 10
44.772072
 20
8.861540
 30
0.0
 11
44.732302
 21
8.959840
 31
0.0
  0
LINE
  5
565
100
AcDbEntity
  8
Capa_1
 62
7
100
AcDbLine
 10
44.732302
 20
8.959840
 30
0.0
 11
44.690942
 21
9.055540
 31
0.0
  0
LINE
  5
566
100
AcDbEntity
  8
Capa_1
 62
7
100
AcDbLine
 10
44.690942
 20
9.055540
 30
0.0
 11
44.650642
 21
9.141740
 31
0.0
  0
LINE
  5
567
100
AcDbEntity
  8
Capa_1
 62
7
100
AcDbLine
 10
44.650642
 20
9.141740
 30
0.0
 11
44.614042
 21
9.211540
 31
0.0
  0
LINE
  5
568
100
AcDbEntity
  8
Capa_1
 62
7
100
AcDbLine
 10
44.614042
 20
9.211540
 30
0.0
 11
44.472313
 21
9.423740
 31
0.0
  0
LINE
  5
569
100
AcDbEntity
  8
Capa_1
 62
7
100
AcDbLine
 10
44.472313
 20
9.423740
 30
0.0
 11
44.301481
 21
9.617940
 31
0.0
  0
LINE
  5
56a
100
AcDbEntity
  8
Capa_1
 62
7
100
AcDbLine
 10
44.301481
 20
9.617940
 30
0.0
 11
44.102073
 21
9.790980
 31
0.0
  0
LINE
  5
56b
100
AcDbEntity
  8
Capa_1
 62
7
100
AcDbLine
 10
44.102073
 20
9.790980
 30
0.0
 11
43.874620
 21
9.939670
 31
0.0
  0
LINE
  5
56c
100
AcDbEntity
  8
Capa_1
 62
7
100
AcDbLine
 10
43.874620
 20
9.939670
 30
0.0
 11
43.619650
 21
10.060850
 31
0.0
  0
LINE
  5
56d
100
AcDbEntity
  8
Capa_1
 62
7
100
AcDbLine
 10
43.619650
 20
10.060850
 30
0.0
 11
43.337692
 21
10.151350
 31
0.0
  0
LINE
  5
56e
100
AcDbEntity
  8
Capa_1
 62
7
100
AcDbLine
 10
43.337692
 20
10.151350
 30
0.0
 11
43.029276
 21
10.207950
 31
0.0
  0
LINE
  5
56f
100
AcDbEntity
  8
Capa_1
 62
7
100
AcDbLine
 10
43.029276
 20
10.207950
 30
0.0
 11
42.694931
 21
10.227550
 31
0.0
  0
LINE
  5
570
100
AcDbEntity
  8
Capa_1
 62
7
100
AcDbLine
 10
42.694931
 20
10.227550
 30
0.0
 11
42.636771
 21
10.226550
 31
0.0
  0
LINE
  5
571
100
AcDbEntity
  8
Capa_1
 62
7
100
AcDbLine
 10
42.636771
 20
10.226550
 30
0.0
 11
42.580991
 21
10.223550
 31
0.0
  0
LINE
  5
572
100
AcDbEntity
  8
Capa_1
 62
7
100
AcDbLine
 10
42.580991
 20
10.223550
 30
0.0
 11
42.527851
 21
10.219550
 31
0.0
  0
LINE
  5
573
100
AcDbEntity
  8
Capa_1
 62
7
100
AcDbLine
 10
42.527851
 20
10.219550
 30
0.0
 11
42.477621
 21
10.213550
 31
0.0
  0
LINE
  5
574
100
AcDbEntity
  8
Capa_1
 62
7
100
AcDbLine
 10
42.477621
 20
10.213550
 30
0.0
 11
42.430571
 21
10.206550
 31
0.0
  0
LINE
  5
575
100
AcDbEntity
  8
Capa_1
 62
7
100
AcDbLine
 10
42.430571
 20
10.206550
 30
0.0
 11
42.386961
 21
10.198550
 31
0.0
  0
LINE
  5
576
100
AcDbEntity
  8
Capa_1
 62
7
100
AcDbLine
 10
42.386961
 20
10.198550
 30
0.0
 11
42.347051
 21
10.190550
 31
0.0
  0
LINE
  5
577
100
AcDbEntity
  8
Capa_1
 62
7
100
AcDbLine
 10
42.347051
 20
10.190550
 30
0.0
 11
42.311111
 21
10.182550
 31
0.0
  0
LINE
  5
578
100
AcDbEntity
  8
Capa_1
 62
7
100
AcDbLine
 10
42.311111
 20
10.182550
 30
0.0
 11
41.918117
 21
10.037820
 31
0.0
  0
LINE
  5
579
100
AcDbEntity
  8
Capa_1
 62
7
100
AcDbLine
 10
41.918117
 20
10.037820
 30
0.0
 11
41.567456
 21
9.799440
 31
0.0
  0
LINE
  5
57a
100
AcDbEntity
  8
Capa_1
 62
7
100
AcDbLine
 10
41.567456
 20
9.799440
 30
0.0
 11
41.257011
 21
9.481670
 31
0.0
  0
LINE
  5
57b
100
AcDbEntity
  8
Capa_1
 62
7
100
AcDbLine
 10
41.257011
 20
9.481670
 30
0.0
 11
40.984667
 21
9.098820
 31
0.0
  0
LINE
  5
57c
100
AcDbEntity
  8
Capa_1
 62
7
100
AcDbLine
 10
40.984667
 20
9.098820
 30
0.0
 11
40.748306
 21
8.665170
 31
0.0
  0
LINE
  5
57d
100
AcDbEntity
  8
Capa_1
 62
7
100
AcDbLine
 10
40.748306
 20
8.665170
 30
0.0
 11
40.545812
 21
8.195010
 31
0.0
  0
LINE
  5
57e
100
AcDbEntity
  8
Capa_1
 62
7
100
AcDbLine
 10
40.545812
 20
8.195010
 30
0.0
 11
40.375067
 21
7.702620
 31
0.0
  0
LINE
  5
57f
100
AcDbEntity
  8
Capa_1
 62
7
100
AcDbLine
 10
40.375067
 20
7.702620
 30
0.0
 11
40.233956
 21
7.202290
 31
0.0
  0
LINE
  5
580
100
AcDbEntity
  8
Capa_1
 62
7
100
AcDbLine
 10
40.233956
 20
7.202290
 30
0.0
 11
40.209656
 21
7.117990
 31
0.0
  0
LINE
  5
581
100
AcDbEntity
  8
Capa_1
 62
7
100
AcDbLine
 10
40.209656
 20
7.117990
 30
0.0
 11
40.187746
 21
7.036090
 31
0.0
  0
LINE
  5
582
100
AcDbEntity
  8
Capa_1
 62
7
100
AcDbLine
 10
40.187746
 20
7.036090
 30
0.0
 11
40.168476
 21
6.958990
 31
0.0
  0
LINE
  5
583
100
AcDbEntity
  8
Capa_1
 62
7
100
AcDbLine
 10
40.168476
 20
6.958990
 30
0.0
 11
40.152116
 21
6.888990
 31
0.0
  0
LINE
  5
584
100
AcDbEntity
  8
Capa_1
 62
7
100
AcDbLine
 10
40.152116
 20
6.888990
 30
0.0
 11
40.138926
 21
6.828490
 31
0.0
  0
LINE
  5
585
100
AcDbEntity
  8
Capa_1
 62
7
100
AcDbLine
 10
40.138926
 20
6.828490
 30
0.0
 11
40.129226
 21
6.779990
 31
0.0
  0
LINE
  5
586
100
AcDbEntity
  8
Capa_1
 62
7
100
AcDbLine
 10
40.129226
 20
6.779990
 30
0.0
 11
40.123226
 21
6.745690
 31
0.0
  0
LINE
  5
587
100
AcDbEntity
  8
Capa_1
 62
7
100
AcDbLine
 10
40.123226
 20
6.745690
 30
0.0
 11
40.121126
 21
6.728090
 31
0.0
  0
LINE
  5
588
100
AcDbEntity
  8
Capa_1
 62
7
100
AcDbLine
 10
40.121126
 20
6.728090
 30
0.0
 11
40.125126
 21
6.701790
 31
0.0
  0
LINE
  5
589
100
AcDbEntity
  8
Capa_1
 62
7
100
AcDbLine
 10
40.125126
 20
6.701790
 30
0.0
 11
40.135976
 21
6.674190
 31
0.0
  0
LINE
  5
58a
100
AcDbEntity
  8
Capa_1
 62
7
100
AcDbLine
 10
40.135976
 20
6.674190
 30
0.0
 11
40.152116
 21
6.645990
 31
0.0
  0
LINE
  5
58b
100
AcDbEntity
  8
Capa_1
 62
7
100
AcDbLine
 10
40.152116
 20
6.645990
 30
0.0
 11
40.171956
 21
6.618090
 31
0.0
  0
LINE
  5
58c
100
AcDbEntity
  8
Capa_1
 62
7
100
AcDbLine
 10
40.171956
 20
6.618090
 30
0.0
 11
40.193916
 21
6.591190
 31
0.0
  0
LINE
  5
58d
100
AcDbEntity
  8
Capa_1
 62
7
100
AcDbLine
 10
40.193916
 20
6.591190
 30
0.0
 11
40.216406
 21
6.566190
 31
0.0
  0
LINE
  5
58e
100
AcDbEntity
  8
Capa_1
 62
7
100
AcDbLine
 10
40.216406
 20
6.566190
 30
0.0
 11
40.237836
 21
6.543790
 31
0.0
  0
LINE
  5
58f
100
AcDbEntity
  8
Capa_1
 62
7
100
AcDbLine
 10
40.237836
 20
6.543790
 30
0.0
 11
40.256626
 21
6.524890
 31
0.0
  0
LINE
  5
590
100
AcDbEntity
  8
Capa_1
 62
7
100
AcDbLine
 10
40.256626
 20
6.524890
 30
0.0
 11
40.296136
 21
6.524890
 31
0.0
  0
LINE
  5
591
100
AcDbEntity
  8
Capa_1
 62
7
100
AcDbLine
 10
40.296136
 20
6.524890
 30
0.0
 11
40.335646
 21
6.524890
 31
0.0
  0
LINE
  5
592
100
AcDbEntity
  8
Capa_1
 62
7
100
AcDbLine
 10
40.335646
 20
6.524890
 30
0.0
 11
40.375156
 21
6.524890
 31
0.0
  0
LINE
  5
593
100
AcDbEntity
  8
Capa_1
 62
7
100
AcDbLine
 10
40.375156
 20
6.524890
 30
0.0
 11
40.414666
 21
6.524890
 31
0.0
  0
LINE
  5
594
100
AcDbEntity
  8
Capa_1
 62
7
100
AcDbLine
 10
40.414666
 20
6.524890
 30
0.0
 11
40.454176
 21
6.524890
 31
0.0
  0
LINE
  5
595
100
AcDbEntity
  8
Capa_1
 62
7
100
AcDbLine
 10
40.454176
 20
6.524890
 30
0.0
 11
40.493686
 21
6.524890
 31
0.0
  0
LINE
  5
596
100
AcDbEntity
  8
Capa_1
 62
7
100
AcDbLine
 10
40.493686
 20
6.524890
 30
0.0
 11
40.533196
 21
6.524890
 31
0.0
  0
LINE
  5
597
100
AcDbEntity
  8
Capa_1
 62
7
100
AcDbLine
 10
40.533196
 20
6.524890
 30
0.0
 11
40.572706
 21
6.524890
 31
0.0
  0
LINE
  5
598
100
AcDbEntity
  8
Capa_1
 62
7
100
AcDbLine
 10
40.572706
 20
6.524890
 30
0.0
 11
40.686521
 21
6.525890
 31
0.0
  0
LINE
  5
599
100
AcDbEntity
  8
Capa_1
 62
7
100
AcDbLine
 10
40.686521
 20
6.525890
 30
0.0
 11
40.776261
 21
6.529890
 31
0.0
  0
LINE
  5
59a
100
AcDbEntity
  8
Capa_1
 62
7
100
AcDbLine
 10
40.776261
 20
6.529890
 30
0.0
 11
40.845361
 21
6.537890
 31
0.0
  0
LINE
  5
59b
100
AcDbEntity
  8
Capa_1
 62
7
100
AcDbLine
 10
40.845361
 20
6.537890
 30
0.0
 11
40.897261
 21
6.550190
 31
0.0
  0
LINE
  5
59c
100
AcDbEntity
  8
Capa_1
 62
7
100
AcDbLine
 10
40.897261
 20
6.550190
 30
0.0
 11
40.935401
 21
6.567790
 31
0.0
  0
LINE
  5
59d
100
AcDbEntity
  8
Capa_1
 62
7
100
AcDbLine
 10
40.935401
 20
6.567790
 30
0.0
 11
40.963221
 21
6.591490
 31
0.0
  0
LINE
  5
59e
100
AcDbEntity
  8
Capa_1
 62
7
100
AcDbLine
 10
40.963221
 20
6.591490
 30
0.0
 11
40.984171
 21
6.622090
 31
0.0
  0
LINE
  5
59f
100
AcDbEntity
  8
Capa_1
 62
7
100
AcDbLine
 10
40.984171
 20
6.622090
 30
0.0
 11
41.001681
 21
6.660290
 31
0.0
  0
LINE
  5
5a0
100
AcDbEntity
  8
Capa_1
 62
7
100
AcDbLine
 10
41.001681
 20
6.660290
 30
0.0
 11
41.004681
 21
6.677890
 31
0.0
  0
LINE
  5
5a1
100
AcDbEntity
  8
Capa_1
 62
7
100
AcDbLine
 10
41.004681
 20
6.677890
 30
0.0
 11
41.013281
 21
6.712190
 31
0.0
  0
LINE
  5
5a2
100
AcDbEntity
  8
Capa_1
 62
7
100
AcDbLine
 10
41.013281
 20
6.712190
 30
0.0
 11
41.026641
 21
6.760790
 31
0.0
  0
LINE
  5
5a3
100
AcDbEntity
  8
Capa_1
 62
7
100
AcDbLine
 10
41.026641
 20
6.760790
 30
0.0
 11
41.043971
 21
6.821290
 31
0.0
  0
LINE
  5
5a4
100
AcDbEntity
  8
Capa_1
 62
7
100
AcDbLine
 10
41.043971
 20
6.821290
 30
0.0
 11
41.064471
 21
6.891290
 31
0.0
  0
LINE
  5
5a5
100
AcDbEntity
  8
Capa_1
 62
7
100
AcDbLine
 10
41.064471
 20
6.891290
 30
0.0
 11
41.087361
 21
6.968390
 31
0.0
  0
LINE
  5
5a6
100
AcDbEntity
  8
Capa_1
 62
7
100
AcDbLine
 10
41.087361
 20
6.968390
 30
0.0
 11
41.111831
 21
7.050290
 31
0.0
  0
LINE
  5
5a7
100
AcDbEntity
  8
Capa_1
 62
7
100
AcDbLine
 10
41.111831
 20
7.050290
 30
0.0
 11
41.137101
 21
7.134590
 31
0.0
  0
LINE
  5
5a8
100
AcDbEntity
  8
Capa_1
 62
7
100
AcDbLine
 10
41.137101
 20
7.134590
 30
0.0
 11
41.190811
 21
7.340170
 31
0.0
  0
LINE
  5
5a9
100
AcDbEntity
  8
Capa_1
 62
7
100
AcDbLine
 10
41.190811
 20
7.340170
 30
0.0
 11
41.249281
 21
7.547340
 31
0.0
  0
LINE
  5
5aa
100
AcDbEntity
  8
Capa_1
 62
7
100
AcDbLine
 10
41.249281
 20
7.547340
 30
0.0
 11
41.310931
 21
7.751340
 31
0.0
  0
LINE
  5
5ab
100
AcDbEntity
  8
Capa_1
 62
7
100
AcDbLine
 10
41.310931
 20
7.751340
 30
0.0
 11
41.374171
 21
7.947390
 31
0.0
  0
LINE
  5
5ac
100
AcDbEntity
  8
Capa_1
 62
7
100
AcDbLine
 10
41.374171
 20
7.947390
 30
0.0
 11
41.437401
 21
8.130750
 31
0.0
  0
LINE
  5
5ad
100
AcDbEntity
  8
Capa_1
 62
7
100
AcDbLine
 10
41.437401
 20
8.130750
 30
0.0
 11
41.499051
 21
8.296640
 31
0.0
  0
LINE
  5
5ae
100
AcDbEntity
  8
Capa_1
 62
7
100
AcDbLine
 10
41.499051
 20
8.296640
 30
0.0
 11
41.557521
 21
8.440310
 31
0.0
  0
LINE
  5
5af
100
AcDbEntity
  8
Capa_1
 62
7
100
AcDbLine
 10
41.557521
 20
8.440310
 30
0.0
 11
41.611231
 21
8.556990
 31
0.0
  0
LINE
  5
5b0
100
AcDbEntity
  8
Capa_1
 62
7
100
AcDbLine
 10
41.611231
 20
8.556990
 30
0.0
 11
41.704761
 21
8.735500
 31
0.0
  0
LINE
  5
5b1
100
AcDbEntity
  8
Capa_1
 62
7
100
AcDbLine
 10
41.704761
 20
8.735500
 30
0.0
 11
41.800671
 21
8.897070
 31
0.0
  0
LINE
  5
5b2
100
AcDbEntity
  8
Capa_1
 62
7
100
AcDbLine
 10
41.800671
 20
8.897070
 30
0.0
 11
41.901345
 21
9.039590
 31
0.0
  0
LINE
  5
5b3
100
AcDbEntity
  8
Capa_1
 62
7
100
AcDbLine
 10
41.901345
 20
9.039590
 30
0.0
 11
42.009163
 21
9.160950
 31
0.0
  0
LINE
  5
5b4
100
AcDbEntity
  8
Capa_1
 62
7
100
AcDbLine
 10
42.009163
 20
9.160950
 30
0.0
 11
42.126505
 21
9.259050
 31
0.0
  0
LINE
  5
5b5
100
AcDbEntity
  8
Capa_1
 62
7
100
AcDbLine
 10
42.126505
 20
9.259050
 30
0.0
 11
42.255754
 21
9.331750
 31
0.0
  0
LINE
  5
5b6
100
AcDbEntity
  8
Capa_1
 62
7
100
AcDbLine
 10
42.255754
 20
9.331750
 30
0.0
 11
42.399291
 21
9.376950
 31
0.0
  0
LINE
  5
5b7
100
AcDbEntity
  8
Capa_1
 62
7
100
AcDbLine
 10
42.399291
 20
9.376950
 30
0.0
 11
42.559496
 21
9.392450
 31
0.0
  0
LINE
  5
5b8
100
AcDbEntity
  8
Capa_1
 62
7
100
AcDbLine
 10
42.559496
 20
9.392450
 30
0.0
 11
42.699461
 21
9.374950
 31
0.0
  0
LINE
  5
5b9
100
AcDbEntity
  8
Capa_1
 62
7
100
AcDbLine
 10
42.699461
 20
9.374950
 30
0.0
 11
42.815613
 21
9.324650
 31
0.0
  0
LINE
  5
5ba
100
AcDbEntity
  8
Capa_1
 62
7
100
AcDbLine
 10
42.815613
 20
9.324650
 30
0.0
 11
42.909543
 21
9.244750
 31
0.0
  0
LINE
  5
5bb
100
AcDbEntity
  8
Capa_1
 62
7
100
AcDbLine
 10
42.909543
 20
9.244750
 30
0.0
 11
42.982833
 21
9.138390
 31
0.0
  0
LINE
  5
5bc
100
AcDbEntity
  8
Capa_1
 62
7
100
AcDbLine
 10
42.982833
 20
9.138390
 30
0.0
 11
43.037073
 21
9.008750
 31
0.0
  0
LINE
  5
5bd
100
AcDbEntity
  8
Capa_1
 62
7
100
AcDbLine
 10
43.037073
 20
9.008750
 30
0.0
 11
43.073853
 21
8.858990
 31
0.0
  0
LINE
  5
5be
100
AcDbEntity
  8
Capa_1
 62
7
100
AcDbLine
 10
43.073853
 20
8.858990
 30
0.0
 11
43.094753
 21
8.692310
 31
0.0
  0
LINE
  5
5bf
100
AcDbEntity
  8
Capa_1
 62
7
100
AcDbLine
 10
43.094753
 20
8.692310
 30
0.0
 11
43.101353
 21
8.511860
 31
0.0
  0
LINE
  5
5c0
100
AcDbEntity
  8
Capa_1
 62
7
100
AcDbLine
 10
43.101353
 20
8.511860
 30
0.0
 11
43.101309
 21
8.442360
 31
0.0
  0
LINE
  5
5c1
100
AcDbEntity
  8
Capa_1
 62
7
100
AcDbLine
 10
43.101309
 20
8.442360
 30
0.0
 11
43.101000
 21
8.370460
 31
0.0
  0
LINE
  5
5c2
100
AcDbEntity
  8
Capa_1
 62
7
100
AcDbLine
 10
43.101000
 20
8.370460
 30
0.0
 11
43.100162
 21
8.297960
 31
0.0
  0
LINE
  5
5c3
100
AcDbEntity
  8
Capa_1
 62
7
100
AcDbLine
 10
43.100162
 20
8.297960
 30
0.0
 11
43.098562
 21
8.226860
 31
0.0
  0
LINE
  5
5c4
100
AcDbEntity
  8
Capa_1
 62
7
100
AcDbLine
 10
43.098562
 20
8.226860
 30
0.0
 11
43.095862
 21
8.158860
 31
0.0
  0
LINE
  5
5c5
100
AcDbEntity
  8
Capa_1
 62
7
100
AcDbLine
 10
43.095862
 20
8.158860
 30
0.0
 11
43.091862
 21
8.095960
 31
0.0
  0
LINE
  5
5c6
100
AcDbEntity
  8
Capa_1
 62
7
100
AcDbLine
 10
43.091862
 20
8.095960
 30
0.0
 11
43.086262
 21
8.039960
 31
0.0
  0
LINE
  5
5c7
100
AcDbEntity
  8
Capa_1
 62
7
100
AcDbLine
 10
43.086262
 20
8.039960
 30
0.0
 11
43.078762
 21
7.992660
 31
0.0
  0
LINE
  5
5c8
100
AcDbEntity
  8
Capa_1
 62
7
100
AcDbLine
 10
43.078762
 20
7.992660
 30
0.0
 11
42.964197
 21
7.470810
 31
0.0
  0
LINE
  5
5c9
100
AcDbEntity
  8
Capa_1
 62
7
100
AcDbLine
 10
42.964197
 20
7.470810
 30
0.0
 11
42.746445
 21
6.582250
 31
0.0
  0
LINE
  5
5ca
100
AcDbEntity
  8
Capa_1
 62
7
100
AcDbLine
 10
42.746445
 20
6.582250
 30
0.0
 11
42.462018
 21
5.453450
 31
0.0
  0
LINE
  5
5cb
100
AcDbEntity
  8
Capa_1
 62
7
100
AcDbLine
 10
42.462018
 20
5.453450
 30
0.0
 11
42.147428
 21
4.210880
 31
0.0
  0
LINE
  5
5cc
100
AcDbEntity
  8
Capa_1
 62
7
100
AcDbLine
 10
42.147428
 20
4.210880
 30
0.0
 11
41.839189
 21
2.981010
 31
0.0
  0
LINE
  5
5cd
100
AcDbEntity
  8
Capa_1
 62
7
100
AcDbLine
 10
41.839189
 20
2.981010
 30
0.0
 11
41.573812
 21
1.890310
 31
0.0
  0
LINE
  5
5ce
100
AcDbEntity
  8
Capa_1
 62
7
100
AcDbLine
 10
41.573812
 20
1.890310
 30
0.0
 11
41.387810
 21
1.065250
 31
0.0
  0
LINE
  5
5cf
100
AcDbEntity
  8
Capa_1
 62
7
100
AcDbLine
 10
41.387810
 20
1.065250
 30
0.0
 11
41.317690
 21
0.632300
 31
0.0
  0
LINE
  5
5d0
100
AcDbEntity
  8
Capa_1
 62
7
100
AcDbLine
 10
41.317690
 20
0.632300
 30
0.0
 11
41.334930
 21
0.488460
 31
0.0
  0
LINE
  5
5d1
100
AcDbEntity
  8
Capa_1
 62
7
100
AcDbLine
 10
41.334930
 20
0.488460
 30
0.0
 11
41.383660
 21
0.362070
 31
0.0
  0
LINE
  5
5d2
100
AcDbEntity
  8
Capa_1
 62
7
100
AcDbLine
 10
41.383660
 20
0.362070
 30
0.0
 11
41.459380
 21
0.253680
 31
0.0
  0
LINE
  5
5d3
100
AcDbEntity
  8
Capa_1
 62
7
100
AcDbLine
 10
41.459380
 20
0.253680
 30
0.0
 11
41.557590
 21
0.163780
 31
0.0
  0
LINE
  5
5d4
100
AcDbEntity
  8
Capa_1
 62
7
100
AcDbLine
 10
41.557590
 20
0.163780
 30
0.0
 11
41.673786
 21
0.092980
 31
0.0
  0
LINE
  5
5d5
100
AcDbEntity
  8
Capa_1
 62
7
100
AcDbLine
 10
41.673786
 20
0.092980
 30
0.0
 11
41.803476
 21
0.041780
 31
0.0
  0
LINE
  5
5d6
100
AcDbEntity
  8
Capa_1
 62
7
100
AcDbLine
 10
41.803476
 20
0.041780
 30
0.0
 11
41.942162
 21
0.010680
 31
0.0
  0
LINE
  5
5d7
100
AcDbEntity
  8
Capa_1
 62
7
100
AcDbLine
 10
41.942162
 20
0.010680
 30
0.0
 11
42.085346
 21
0.000180
 31
0.0
  0
LINE
  5
5d8
100
AcDbEntity
  8
Capa_1
 62
7
100
AcDbLine
 10
42.085346
 20
0.000180
 30
0.0
 11
42.085347
 21
0.000180
 31
0.0
  0
LINE
  5
5d9
100
AcDbEntity
  8
Capa_1
 62
7
100
AcDbLine
 10
42.085347
 20
0.000180
 30
0.0
 11
42.085347
 21
0.000190
 31
0.0
  0
LINE
  5
5da
100
AcDbEntity
  8
Capa_1
 62
7
100
AcDbLine
 10
42.085347
 20
0.000190
 30
0.0
 11
42.085348
 21
0.000190
 31
0.0
  0
LINE
  5
5db
100
AcDbEntity
  8
Capa_1
 62
7
100
AcDbLine
 10
42.085348
 20
0.000190
 30
0.0
 11
42.085348
 21
0.000200
 31
0.0
  0
LINE
  5
5dc
100
AcDbEntity
  8
Capa_1
 62
7
100
AcDbLine
 10
42.085348
 20
0.000200
 30
0.0
 11
42.085349
 21
0.000200
 31
0.0
  0
LINE
  5
5dd
100
AcDbEntity
  8
Capa_1
 62
7
100
AcDbLine
 10
42.085349
 20
0.000200
 30
0.0
 11
42.085349
 21
0.000210
 31
0.0
  0
LINE
  5
5de
100
AcDbEntity
  8
Capa_1
 62
7
100
AcDbLine
 10
42.085349
 20
0.000210
 30
0.0
 11
42.085350
 21
0.000210
 31
0.0
  0
LINE
  5
5df
100
AcDbEntity
  8
Capa_1
 62
7
100
AcDbLine
 10
42.085350
 20
0.000210
 30
0.0
 11
42.085331
 21
0.000000
 31
0.0
  0
ENDSEC
  0
SECTION
  2
OBJECTS
  0
DICTIONARY
  5
C
330
0
100
AcDbDictionary
  3
ACAD_GROUP
350
D
  3
ACAD_MLINESTYLE
350
17
  0
DICTIONARY
  5
D
330
C
100
AcDbDictionary
  0
DICTIONARY
  5
1A
330
C
100
AcDbDictionary
  0
DICTIONARY
  5
17
330
C
100
AcDbDictionary
  3
STANDARD
350
18
  0
DICTIONARY
  5
19
330
C
100
AcDbDictionary
  0
ENDSEC
  0
EOF
